<?xml version="1.0" encoding="utf-8"?>
<!-- Generator: Adobe Illustrator 21.1.0, SVG Export Plug-In . SVG Version: 6.00 Build 0)  -->
<svg version="1.1" id="Layer_1" xmlns="http://www.w3.org/2000/svg" xmlns:xlink="http://www.w3.org/1999/xlink" x="0px" y="0px"
	 viewBox="0 0 90 90" style="enable-background:new 0 0 90 90;" xml:space="preserve">
<style type="text/css">
	.st0{fill:#E1F1FB;}
	.st1{fill:none;stroke:#1E3D5C;stroke-width:2;stroke-linecap:round;stroke-miterlimit:10;}
</style>
<title>ADL Bathing</title>
<path class="st0" d="M79.3,51.2H52V61c-1.9,10.5-9.5,7.2-9.5,7.2c-7.8-3.8-3.5-6.2-3.5-6.2c-9.1,3.2-8.9-5.4-8.9-5.4
	c-6.9,1.3-8.7-3.3-9.2-5.3H9.5c-1.3,0-2.3,1-2.3,2.3c0,0.2,0,0.5,0.1,0.7l6,19.8c0.6,1.9,2.3,3.2,4.3,3.2h53.5c2,0,3.7-1.3,4.3-3.2
	l6-19.8c0.4-1.2-0.3-2.5-1.5-2.9C79.8,51.2,79.5,51.2,79.3,51.2z"/>
<line class="st1" x1="52.7" y1="51.4" x2="68.9" y2="51.4"/>
<path class="st1" d="M52.7,61.3c0,4.1-3.3,7.5-7.5,7.5c-3.5,0-6.6-2.5-7.3-5.9"/>
<path class="st1" d="M40.5,60c-1,2.7-4.1,4.1-6.8,3c-2-0.8-3.4-2.7-3.4-4.9c0-0.3,0-0.6,0.1-0.9"/>
<path class="st1" d="M21.1,51.4H9.6c-1.3,0-2.3,1.1-2.3,2.3c0,0.2,0,0.4,0.1,0.7l6.3,20.3c0.6,2,2.4,3.4,4.5,3.4h56
	c2.1,0,3.9-1.3,4.5-3.3l6.3-20.3c0.4-1.2-0.3-2.5-1.6-2.9c-0.2-0.1-0.4-0.1-0.7-0.1h-9.1"/>
<path class="st1" d="M73.6,51.4V7.5c0-0.6-0.5-1.2-1.2-1.2h-4.2c-0.3,0-0.7,0.2-0.9,0.4l-4,4.4"/>
<path class="st1" d="M13.1,40.8c0-4.4,3.5-7.9,7.9-7.9h0c0.5,0,1,0,1.5,0.1"/>
<path class="st1" d="M17.8,33.1c0-5,5.7-8.7,10.9-8.7c6,0,10.9,4,10.9,9"/>
<path class="st1" d="M33.3,37.3c5-4.2,12.5-3.5,16.6,1.5c1.8,2.1,2.7,4.8,2.7,7.5v14.9"/>
<line class="st1" x1="13.1" y1="40.1" x2="13.1" y2="51.2"/>
<path class="st1" d="M36.2,48.1c1,2.5,3.9,3.8,6.5,2.8"/>
<path class="st1" d="M19.5,38.7c0.6,1.5,2.3,2.2,3.8,1.6c0,0,0,0,0,0"/>
<circle class="st1" cx="20.2" cy="65.8" r="2.4"/>
<circle class="st1" cx="10.2" cy="22.2" r="5.2"/>
<circle class="st1" cx="34.1" cy="14.9" r="3.7"/>
<line class="st1" x1="30.3" y1="78" x2="26.8" y2="84.7"/>
<line class="st1" x1="62" y1="78" x2="65.5" y2="84.7"/>
</svg>
