<?xml version="1.0" encoding="utf-8"?>
<!-- Generator: Adobe Illustrator 21.1.0, SVG Export Plug-In . SVG Version: 6.00 Build 0)  -->
<svg version="1.1" id="Layer_1" xmlns="http://www.w3.org/2000/svg" xmlns:xlink="http://www.w3.org/1999/xlink" x="0px" y="0px"
	 viewBox="0 0 90 90" style="enable-background:new 0 0 90 90;" xml:space="preserve">
<style type="text/css">
	.st0{fill:#E1F1FB;}
	.st1{fill:none;stroke:#1E3D5C;stroke-width:2;stroke-linecap:round;stroke-linejoin:round;}
</style>
<title>ADL Getting Dressed</title>
<polyline class="st0" points="28.6,19.1 28.6,44 58.3,44 58.3,4.6 28.6,4.6 28.6,6.9 "/>
<polyline class="st0" points="16.7,59 16.7,64.8 69.8,64.8 69.8,55.7 16.7,55.7 16.7,56.2 "/>
<line class="st1" x1="16.7" y1="53.8" x2="16.7" y2="87.7"/>
<line class="st1" x1="72.6" y1="53.8" x2="72.6" y2="87.7"/>
<line class="st1" x1="16.7" y1="64.8" x2="72.6" y2="64.8"/>
<line class="st1" x1="42" y1="59.3" x2="47.2" y2="59.3"/>
<polyline class="st1" points="28.6,17.9 28.6,44 60.7,44 60.7,2.7 28.6,2.7 28.6,5.1 "/>
<line class="st1" x1="28.6" y1="9.7" x2="28.6" y2="13.3"/>
<line class="st1" x1="35.2" y1="22.4" x2="49.8" y2="7.8"/>
<line class="st1" x1="34.1" y1="31.5" x2="55.1" y2="10.4"/>
<path class="st1" d="M9.8,44h69.6l0,0v4.7c0,2.8-2.3,5.2-5.2,5.2l0,0H15c-2.8,0-5.2-2.3-5.2-5.1c0,0,0-0.1,0-0.1V44L9.8,44z"/>
<rect x="68.4" y="33.7" class="st1" width="5.3" height="10.2"/>
<rect x="70.3" y="31.1" class="st1" width="1.3" height="1.6"/>
<rect x="15.6" y="33.7" class="st1" width="5.3" height="10.2"/>
<rect x="17.6" y="29.8" class="st1" width="1.4" height="2.9"/>
<rect x="18.8" y="29.8" class="st1" width="1.6" height="0.6"/>
</svg>
