<?xml version="1.0" encoding="utf-8"?>
<!-- Generator: Adobe Illustrator 21.1.0, SVG Export Plug-In . SVG Version: 6.00 Build 0)  -->
<svg version="1.1" id="Layer_1" xmlns="http://www.w3.org/2000/svg" xmlns:xlink="http://www.w3.org/1999/xlink" x="0px" y="0px"
	 viewBox="0 0 90 90" style="enable-background:new 0 0 90 90;" xml:space="preserve">
<style type="text/css">
	.st0{fill:#E1F1FB;}
	.st1{fill:none;stroke:#1E3D5C;stroke-width:2;stroke-linecap:round;stroke-linejoin:round;}
	.st2{fill:#1E3D5C;}
</style>
<title>ADL Ambulation &amp;amp; Mobility</title>
<path class="st0" d="M11.4,23v16.2h6.4c0.8,0,1.5,0.7,1.6,1.5c0,0.8-0.9,1.3-1.6,1.3h-6.4v2.9H14c0.8,0,1.5,0.7,1.5,1.5
	c0,0,0,0,0,0.1c0,0.8-0.9,1.2-1.5,1.2h-2.6v3.1l0,0c0.7,0,1.4,0.5,1.4,1.2v0.1c0,0.7-0.6,1.3-1.3,1.2h-0.1l0,0v11.1H18
	c0.4-3.9,3.8-6.8,7.7-6.7c3.9,0,7.2,2.8,7.7,6.7h23.3v-28c0-0.6,0.5-1.2,1.1-1.2c0,0,0,0,0.1,0V23H11.4z"/>
<polygon class="st0" points="68.6,45.2 77.8,45.2 81.3,48.1 81.3,51.8 68.6,51.8 "/>
<polyline class="st1" points="10.2,34.7 10.2,23 58,23 58,65.4 36.7,65.4 "/>
<polyline class="st1" points="14.9,65.4 10.2,65.4 10.2,57.5 "/>
<polyline class="st1" points="62.5,65.4 58,65.4 58,36.2 80.4,36.2 87.1,43 87.1,65.4 83.6,65.4 "/>
<circle class="st1" cx="73.3" cy="65.4" r="5.5"/>
<circle class="st1" cx="25.8" cy="65.4" r="5.5"/>
<polygon class="st1" points="65.6,42.6 76.5,42.6 80.6,46.6 80.6,51.7 65.6,51.7 "/>
<line class="st1" x1="6.7" y1="40.7" x2="17.7" y2="40.7"/>
<line class="st1" x1="4" y1="46.4" x2="13.9" y2="46.4"/>
<line class="st1" x1="2.1" y1="52" x2="11.3" y2="52"/>
<rect x="33.6" y="35.7" class="st2" width="4.4" height="18.9"/>
<rect x="26.3" y="43" class="st2" width="18.9" height="4.4"/>
</svg>
