<svg id="Layer_1" data-name="Layer 1" xmlns="http://www.w3.org/2000/svg" viewBox="0 0 90 90"><defs><style>.cls-1{fill:#e9d9f9;}.cls-2{fill:none;stroke:#7a329f;stroke-linecap:round;stroke-linejoin:round;stroke-width:2px;}</style></defs><title>ADL Getting Dressed</title><polyline class="cls-1" points="28.56 19.13 28.56 43.97 58.31 43.97 58.31 4.61 28.56 4.61 28.56 6.87"/><polyline class="cls-1" points="16.69 59.03 16.69 64.82 69.83 64.82 69.83 55.65 16.69 55.65 16.69 56.18"/><line class="cls-2" x1="16.69" y1="53.83" x2="16.69" y2="87.72"/><line class="cls-2" x1="72.55" y1="53.83" x2="72.55" y2="87.72"/><line class="cls-2" x1="16.69" y1="64.82" x2="72.55" y2="64.82"/><line class="cls-2" x1="42.02" y1="59.28" x2="47.23" y2="59.28"/><polyline class="cls-2" points="28.56 17.94 28.56 43.97 60.68 43.97 60.68 2.72 28.56 2.72 28.56 5.1"/><line class="cls-2" x1="28.56" y1="9.71" x2="28.56" y2="13.34"/><line class="cls-2" x1="35.18" y1="22.36" x2="49.77" y2="7.77"/><line class="cls-2" x1="34.12" y1="31.46" x2="55.13" y2="10.44"/><path class="cls-2" d="M9.8,44H79.44a0,0,0,0,1,0,0v4.72a5.15,5.15,0,0,1-5.15,5.15H15A5.15,5.15,0,0,1,9.8,48.68V44a0,0,0,0,1,0,0Z"/><rect class="cls-2" x="68.36" y="33.72" width="5.31" height="10.24"/><rect class="cls-2" x="70.34" y="31.12" width="1.35" height="1.58"/><rect class="cls-2" x="15.58" y="33.72" width="5.31" height="10.24"/><rect class="cls-2" x="17.56" y="29.77" width="1.35" height="2.93"/><rect class="cls-2" x="18.77" y="29.77" width="1.63" height="0.61"/></svg>