<?xml version="1.0" encoding="utf-8"?>
<!-- Generator: Adobe Illustrator 21.1.0, SVG Export Plug-In . SVG Version: 6.00 Build 0)  -->
<svg version="1.1" id="Layer_1" xmlns="http://www.w3.org/2000/svg" xmlns:xlink="http://www.w3.org/1999/xlink" x="0px" y="0px"
	 viewBox="0 0 90 90" style="enable-background:new 0 0 90 90;" xml:space="preserve">
<style type="text/css">
	.st0{fill:#E1F1FB;}
	.st1{fill:none;stroke:#1E3D5C;stroke-width:2;stroke-linecap:round;stroke-linejoin:round;}
</style>
<title>ADL Continence</title>
<path class="st0" d="M47.7,58.7v25.4c0,2.2,2.6,4,4.8,4c2.2,0,4-1.8,4-4V34.8l-0.8,6.8l-8.2,7.7l-0.3,4.4l0,0
	c0.9,1.3,2.6,1.6,3.9,0.7c0.1,0,0.1-0.1,0.2-0.2l14.1-9.1c1.3-1,1.3-2.8,0.8-4.5l-1.1,4.8c1.5-0.7,2-2.9,1.3-4.5L61,30l1.1,2.4
	c-0.7-1.9-1.9-3.7-3.3-5.2c-1.2-1.2-2.8-1.9-4.4-2.1h-0.2H41.2h-0.3c-1.7,0.2-3.2,0.9-4.4,2.1l-1,1.4c-2.4,3.7-4.5,7.6-6.3,11.6
	l-0.2,0.5c-0.6,1.7-0.6,3.5,0.8,4.5l13,8.9c-0.1-0.1,2.4,1.9,4.3-0.6l0,0c1-1.4,0.8-3.3-0.6-4.3l-11.1-7.6l3.4-7v49.4
	c0,2.2,1.8,4,4,4c2.2,0,4.8-1.8,4.8-4"/>
<path class="st1" d="M53.7,41.9v-8.8"/>
<path class="st1" d="M45,57.1v25.4c0,2.2,2.6,4,4.8,4c2.2,0,4-1.8,4-4V50.6"/>
<path class="st1" d="M36.2,51.8v30.7c0,2.2,1.8,4,4,4c2.2,0,4.8-1.8,4.8-4"/>
<circle class="st0" cx="47.6" cy="13.4" r="8"/>
<path class="st1" d="M36.2,33.1v8.5"/>
<circle class="st1" cx="45" cy="12.4" r="8"/>
<path class="st1" d="M58.3,28.4l5.1,11c0.7,1.5,0.3,3.8-1.3,4.5"/>
<path class="st1" d="M56.9,40.1l-3.2-6.8"/>
<path class="st1" d="M44.4,52.2L44.4,52.2c0.9,1.3,2.6,1.6,3.9,0.7c0.1,0,0.1-0.1,0.2-0.2l14-9.1c1.4-1,1.3-2.8,0.8-4.5"/>
<path class="st1" d="M56.9,40.1l-12.2,7.7"/>
<path class="st1" d="M32.8,40.1L44,47.6c1.4,1,1.6,3,0.6,4.3l0,0c-1.9,2.5-4.5,0.5-4.3,0.6l-13-8.9c-1.4-1-1.4-2.8-0.8-4.5"/>
<path class="st1" d="M32.8,40.1l3.4-7"/>
<path class="st1" d="M59.4,30.8c-0.7-1.9-1.9-3.7-3.3-5.2c-1.2-1.2-2.8-1.9-4.4-2.1h-0.3H51h-0.3H39.2h-0.3h-0.3h-0.3
	c-1.7,0.2-3.2,0.9-4.4,2.1L32.9,27c-2.4,3.7-4.5,7.6-6.3,11.7"/>
</svg>
