<?xml version="1.0" encoding="utf-8"?>
<!-- Generator: Adobe Illustrator 21.1.0, SVG Export Plug-In . SVG Version: 6.00 Build 0)  -->
<svg version="1.1" id="Layer_1" xmlns="http://www.w3.org/2000/svg" xmlns:xlink="http://www.w3.org/1999/xlink" x="0px" y="0px"
	 viewBox="0 0 90 90" style="enable-background:new 0 0 90 90;" xml:space="preserve">
<style type="text/css">
	.st0{fill:#E1F1FB;}
	.st1{fill:none;stroke:#1E3D5C;stroke-width:2;stroke-linecap:round;stroke-miterlimit:10;}
</style>
<title>ADL Eating</title>
<path class="st0" d="M44.6,5.9v20.9c0,0.9-0.4,1.7-1,2.3l-6.1,6c-0.7,0.7-1,1.6-1,2.5l2.4,43.6v0.5c-0.2,3.4-3.1,6-6.5,5.9
	c-3.2-0.2-5.8-2.8-5.9-6v-0.3l2.3-43.7c0.1-0.9-0.3-1.8-0.9-2.5l-6-6c-0.6-0.6-0.9-1.4-0.9-2.3V5.9"/>
<path class="st0" d="M74,20.1c0-9.6-7.6-17.4-11.4-17.4s-12,7.8-12,17.4c0,7.8,4,13.5,8.7,15.6c0,0.4,0,1.8,0,1.8l-2,43.7
	c0,0,0,0.1,0,0.3c0,3.4,2.4,6.2,5.3,6.2c3,0,5.4-2.8,5.4-6.3v-0.3l-2-43.6v-0.9C70.6,34.6,74,27.9,74,20.1"/>
<path class="st1" d="M41.7,5.9v20.9c0,0.9-0.4,1.7-1,2.3l-6.1,6c-0.7,0.7-1,1.6-1,2.5L36,81.2v0.5c0,3.4-2.8,6.1-6.3,6.1
	c-3.4,0-6.1-2.8-6.1-6.3v-0.3l2.3-43.7c0.1-0.9-0.3-1.8-0.9-2.5l-6-6c-0.6-0.6-1-1.4-1-2.3V5.9"/>
<path class="st1" d="M48.4,15.5c-0.4,1.5-0.6,3-0.6,4.5c0,7.8,3.9,14.4,9.3,16.6v0.8l-2.3,43.7v0.3c-0.1,3.4,2.5,6.3,5.9,6.4
	c3.4,0.1,6.3-2.5,6.4-5.9c0-0.2,0-0.3,0-0.5v-0.3l-2.4-43.7c0,0,0-0.4,0-0.9c5.4-2.1,9.3-8.8,9.3-16.6"/>
<path class="st1" d="M51.7,9c-0.8,1.1-1.5,2.2-2.1,3.5"/>
<path class="st1" d="M74,20.1c0-9.6-8.8-17.4-13.2-17.4c-1.8,0-4.4,1.4-6.8,3.6"/>
<line class="st1" x1="33.6" y1="5.9" x2="33.6" y2="23"/>
<line class="st1" x1="25.9" y1="5.9" x2="25.9" y2="23"/>
</svg>
