<svg id="Layer_1" data-name="Layer 1" xmlns="http://www.w3.org/2000/svg" viewBox="0 0 90 90"><defs><style>.cls-1{fill:#e9d9f9;}.cls-2{fill:none;stroke:#7a329f;stroke-linecap:round;stroke-miterlimit:10;stroke-width:2px;}</style></defs><title>ADL Eating</title><path class="cls-1" d="M44.63,5.93V26.79a3.21,3.21,0,0,1-1,2.32l-6.12,6a3.27,3.27,0,0,0-1,2.5l2.37,43.64v.48a6.18,6.18,0,0,1-12.35-.16v-.32l2.26-43.73A3.26,3.26,0,0,0,27.88,35l-6-6a3.26,3.26,0,0,1-.94-2.29V5.93"/><path class="cls-1" d="M74,20.07c0-9.58-7.58-17.35-11.37-17.35S50.61,10.49,50.61,20.07c0,7.8,4,13.46,8.66,15.64,0,.42,0,1.77,0,1.77l-2,43.73s0,.14,0,.29c0,3.43,2.39,6.22,5.35,6.22s5.38-2.8,5.36-6.25l0-.26L66,37.57l0-.87C70.62,34.56,74,27.93,74,20.07"/><path class="cls-2" d="M41.74,5.93V26.79a3.25,3.25,0,0,1-1,2.32l-6.13,6a3.26,3.26,0,0,0-1,2.5L36,81.21v.48a6.17,6.17,0,0,1-12.34-.16v-.32l2.25-43.73A3.21,3.21,0,0,0,25,35l-6-6A3.23,3.23,0,0,1,18,26.7V5.93"/><path class="cls-2" d="M48.39,15.52a16.73,16.73,0,0,0-.64,4.55c0,7.8,3.9,14.39,9.26,16.58l0,.83L54.72,81.21l0,.29a6.2,6.2,0,1,0,12.39,0l0-.26L64.7,37.57s0-.44,0-.87C70.08,34.56,74,27.93,74,20.07"/><path class="cls-2" d="M51.69,9a21.48,21.48,0,0,0-2.12,3.46"/><path class="cls-2" d="M74,20.07c0-9.58-8.76-17.35-13.15-17.35C59,2.72,56.42,4.08,54,6.35"/><line class="cls-2" x1="33.58" y1="5.93" x2="33.58" y2="22.95"/><line class="cls-2" x1="25.92" y1="5.93" x2="25.92" y2="22.95"/></svg>