<svg id="Layer_1" data-name="Layer 1" xmlns="http://www.w3.org/2000/svg" viewBox="0 0 90 90"><defs><style>.cls-1{fill:#e9d9f9;}.cls-2{fill:none;stroke:#7a329f;stroke-linecap:round;stroke-linejoin:round;stroke-width:2px;}</style></defs><title>ADL Continence</title><path class="cls-1" d="M47.65,58.71V84.09c0,2.21,2.58,4,4.79,4a4,4,0,0,0,4-4V34.84l-.83,6.82-8.22,7.7-.31,4.37h0a2.77,2.77,0,0,0,4.06.56l14.06-9.11c1.35-1,1.34-2.81.78-4.49l-1.12,4.75c1.54-.71,2-2.93,1.25-4.48L61,30l1.1,2.39a14.38,14.38,0,0,0-3.32-5.17,7.53,7.53,0,0,0-4.43-2.07l-.24,0H41.19l-.25,0a7.47,7.47,0,0,0-4.42,2.07l-1,1.36a82.39,82.39,0,0,0-6.28,11.64l-.17.5c-.56,1.68-.56,3.46.79,4.49l13,8.93c-.14-.11,2.44,1.9,4.33-.59h0a3.1,3.1,0,0,0-.58-4.33L35.5,41.66l3.38-7v49.4a4,4,0,0,0,4,4c2.2,0,4.78-1.78,4.78-4"/><path class="cls-2" d="M53.72,41.86V33.11"/><path class="cls-2" d="M45,57.13V82.51c0,2.2,2.58,4,4.78,4a4,4,0,0,0,4-4V50.59"/><path class="cls-2" d="M36.17,51.81v30.7a4,4,0,0,0,4,4c2.21,0,4.79-1.79,4.79-4"/><circle class="cls-1" cx="47.6" cy="13.38" r="8.05"/><path class="cls-2" d="M36.17,33.11v8.54"/><circle class="cls-2" cx="44.95" cy="12.38" r="8.05"/><path class="cls-2" d="M58.3,28.39l5.1,11c.71,1.54.28,3.76-1.26,4.48"/><path class="cls-2" d="M56.9,40.07l-3.18-6.82"/><path class="cls-2" d="M44.36,52.15h0a2.78,2.78,0,0,0,4.07.55l14-9.1c1.36-1,1.35-2.81.79-4.5"/><path class="cls-2" d="M56.9,40.07,44.68,47.78"/><path class="cls-2" d="M32.79,40.07,44,47.6a3.11,3.11,0,0,1,.59,4.34h0c-1.9,2.49-4.48.48-4.34.59l-13-8.93c-1.36-1-1.35-2.81-.79-4.5"/><path class="cls-2" d="M32.79,40.07l3.38-7"/><path class="cls-2" d="M59.4,30.77a14.29,14.29,0,0,0-3.32-5.16,7.51,7.51,0,0,0-4.43-2.08h-.26l-.35,0-.3,0H39.15l-.29,0-.35,0h-.28a7.54,7.54,0,0,0-4.42,2.08L32.87,27a80.58,80.58,0,0,0-6.28,11.65"/></svg>