<?xml version="1.0" encoding="utf-8"?>
<!-- Generator: Adobe Illustrator 21.1.0, SVG Export Plug-In . SVG Version: 6.00 Build 0)  -->
<svg version="1.1" id="Layer_1" xmlns="http://www.w3.org/2000/svg" xmlns:xlink="http://www.w3.org/1999/xlink" x="0px" y="0px"
	 viewBox="0 0 90 90" style="enable-background:new 0 0 90 90;" xml:space="preserve">
<style type="text/css">
	.st0{fill:#E1F1FB;}
	.st1{fill:none;stroke:#1E3D5C;stroke-width:2;stroke-linecap:round;stroke-linejoin:round;}
</style>
<title>ADL Toileting</title>
<polygon class="st0" points="27.7,83.4 27.7,86.5 63.2,86.5 63.2,83.4 58.6,83.4 32.2,83.4 "/>
<path class="st0" d="M45.7,66.8c8.6,0,16.3-5.5,19-13.6h-38C29.5,61.3,37.1,66.8,45.7,66.8z"/>
<path class="st0" d="M67.5,30.9c0-15.1-9.8-27.4-21.8-27.4S23.8,15.8,23.8,30.9c0,4.9,1.1,9.8,3.2,14.3h37.3
	C66.4,40.7,67.5,35.9,67.5,30.9z"/>
<line class="st1" x1="20.2" y1="10.9" x2="28.3" y2="10.9"/>
<polyline class="st1" points="12.5,13.8 12.5,10.9 16.1,10.9 "/>
<polyline class="st1" points="22,37 12.5,37 12.5,17.5 "/>
<polyline class="st1" points="61.7,10.9 77.5,10.9 77.5,37 68,37 "/>
<rect x="18.7" y="45.9" class="st1" width="52.5" height="5.5"/>
<rect x="25.8" y="81.6" class="st1" width="38.5" height="5.9"/>
<path class="st1" d="M24.9,45.7c-2.3-4.6-3.4-9.6-3.4-14.7C21.5,15.2,32,2.5,45,2.5S68.5,15.2,68.5,31c0,5.1-1.1,10.2-3.4,14.8"/>
<path class="st1" d="M65.8,52.6c-3.7,11.5-16,17.8-27.5,14.1c-6.7-2.2-11.9-7.4-14.1-14.1"/>
<line class="st1" x1="35.9" y1="65.8" x2="31.5" y2="81.6"/>
<line class="st1" x1="54.1" y1="65.8" x2="58.5" y2="81.6"/>
</svg>
