<svg id="Layer_1" data-name="Layer 1" xmlns="http://www.w3.org/2000/svg" viewBox="0 0 90 90"><defs><style>.cls-1{fill:#e9d9f9;}.cls-2{fill:none;stroke:#7a329f;stroke-linecap:round;stroke-miterlimit:10;stroke-width:2px;}</style></defs><title>ADL Bathing</title><path class="cls-1" d="M79.31,51.18H52V61c-1.94,10.48-9.54,7.15-9.54,7.15-7.77-3.79-3.55-6.24-3.55-6.24-9.06,3.16-8.86-5.42-8.86-5.42-6.85,1.34-8.7-3.35-9.17-5.32H9.52a2.28,2.28,0,0,0-2.14,3l6,19.77a4.5,4.5,0,0,0,4.29,3.23H71.19a4.5,4.5,0,0,0,4.28-3.23l6-19.77A2.29,2.29,0,0,0,79.31,51.18Z"/><line class="cls-2" x1="52.67" y1="51.36" x2="68.92" y2="51.36"/><path class="cls-2" d="M52.67,61.29a7.48,7.48,0,0,1-14.8,1.54"/><path class="cls-2" d="M40.52,60a5.28,5.28,0,0,1-10.21-1.9,5.64,5.64,0,0,1,.08-.93"/><path class="cls-2" d="M21.06,51.36H9.62a2.34,2.34,0,0,0-2.24,3l6.25,20.25A4.7,4.7,0,0,0,18.12,78h56a4.69,4.69,0,0,0,4.48-3.31L84.89,54.4a2.34,2.34,0,0,0-2.24-3H73.56"/><path class="cls-2" d="M73.56,51.36V7.46a1.17,1.17,0,0,0-1.17-1.17h-4.2a1.15,1.15,0,0,0-.89.42l-4,4.45"/><path class="cls-2" d="M13.14,40.76a7.92,7.92,0,0,1,7.92-7.92,8.31,8.31,0,0,1,1.51.14"/><path class="cls-2" d="M17.75,33.13c0-5,5.7-8.66,10.9-8.66,6,0,10.9,4,10.9,9"/><path class="cls-2" d="M33.31,37.29a11.81,11.81,0,0,1,19.36,9.07V61.29"/><line class="cls-2" x1="13.14" y1="40.1" x2="13.14" y2="51.2"/><path class="cls-2" d="M36.15,48.06a5,5,0,0,0,6.49,2.75"/><path class="cls-2" d="M19.45,38.72a2.9,2.9,0,0,0,3.79,1.6"/><circle class="cls-2" cx="20.17" cy="65.77" r="2.42"/><circle class="cls-2" cx="10.21" cy="22.22" r="5.21"/><circle class="cls-2" cx="34.11" cy="14.94" r="3.7"/><line class="cls-2" x1="30.29" y1="77.96" x2="26.79" y2="84.74"/><line class="cls-2" x1="61.98" y1="77.96" x2="65.49" y2="84.74"/></svg>