<svg id="Layer_1" data-name="Layer 1" xmlns="http://www.w3.org/2000/svg" viewBox="0 0 90 90"><defs><style>.cls-1{fill:#e9d9f9;}.cls-2{fill:none;stroke:#7a329f;stroke-linecap:round;stroke-linejoin:round;stroke-width:2px;}</style></defs><title>ADL Transferring</title><path class="cls-1" d="M82.77,81.6a18.32,18.32,0,1,0-36.63,0Z"/><circle class="cls-1" cx="20.22" cy="52.61" r="9.63"/><path class="cls-1" d="M38.54,81.6a18.32,18.32,0,0,0-36.64,0Z"/><circle class="cls-2" cx="23.24" cy="51.47" r="9.63"/><path class="cls-2" d="M41.55,80.46a18.32,18.32,0,1,0-36.63,0Z"/><circle class="cls-1" cx="64.45" cy="52.61" r="9.63"/><path class="cls-2" d="M85.62,80.46a18.32,18.32,0,1,0-36.63,0Z"/><circle class="cls-2" cx="67.31" cy="51.47" r="9.63"/><line class="cls-2" x1="23.8" y1="16.12" x2="67.06" y2="16.12"/><line class="cls-2" x1="63.09" y1="12.16" x2="67.06" y2="16.12"/><line class="cls-2" x1="67.06" y1="16.12" x2="63.09" y2="20.08"/><line class="cls-2" x1="67.06" y1="30.2" x2="23.8" y2="30.2"/><line class="cls-2" x1="27.77" y1="34.16" x2="23.8" y2="30.2"/><line class="cls-2" x1="23.8" y1="30.2" x2="27.77" y2="26.23"/></svg>