<svg id="Layer_1" data-name="Layer 1" xmlns="http://www.w3.org/2000/svg" viewBox="0 0 90 90"><defs><style>.cls-1{fill:#e9d9f9;}.cls-2{fill:none;stroke:#7a329f;stroke-linecap:round;stroke-linejoin:round;stroke-width:2px;}.cls-3{fill:#7a329f;}</style></defs><title>G&amp;amp;N Meal Delivery</title><path class="cls-1" d="M11.35,23V39.16H17.7a1.55,1.55,0,0,1,1.56,1.49c0,.82-.92,1.27-1.56,1.27H11.35v2.94h2.56a1.5,1.5,0,0,1,1.5,1.56c0,.81-.86,1.15-1.5,1.15H11.35v3.06h0A1.33,1.33,0,0,1,12.76,52a1.29,1.29,0,0,1-1.42,1.23h0V64.3h6.71a7.47,7.47,0,0,1,7.74-6.66,7.75,7.75,0,0,1,7.71,6.66H56.8v-28A1.16,1.16,0,0,1,58,35.11V23Z"/><polygon class="cls-1" points="68.56 45.16 77.85 45.16 81.3 48.08 81.3 51.76 68.56 51.76 68.56 45.16"/><polyline class="cls-2" points="10.19 34.71 10.19 22.98 57.96 22.98 57.96 65.41 36.67 65.41"/><polyline class="cls-2" points="14.89 65.41 10.19 65.41 10.19 57.45"/><polyline class="cls-2" points="62.51 65.41 57.96 65.41 57.96 36.22 80.39 36.22 87.14 42.96 87.14 65.41 83.58 65.41"/><circle class="cls-2" cx="73.35" cy="65.41" r="5.51"/><circle class="cls-2" cx="25.8" cy="65.41" r="5.51"/><polygon class="cls-2" points="65.62 42.56 76.53 42.56 80.58 46.61 80.58 51.71 65.62 51.71 65.62 42.56"/><line class="cls-2" x1="6.69" y1="40.72" x2="17.7" y2="40.72"/><line class="cls-2" x1="3.98" y1="46.37" x2="13.91" y2="46.37"/><line class="cls-2" x1="2.13" y1="52.02" x2="11.34" y2="52.02"/><path class="cls-3" d="M38.15,33.43a3.83,3.83,0,0,1,2.29-1.21c1.46,0,4.39,2.59,4.39,5.79,0,2.62-1.32,4.83-3.14,5.55l0,.29.79,10v.09a2.07,2.07,0,1,1-4.14,0v-.09l.75-10,0-.28c-1.79-.73-3.1-2.93-3.1-5.53a5.48,5.48,0,0,1,.22-1.52l.39-1a7.39,7.39,0,0,1,.71-1.15"/><path class="cls-3" d="M30.62,33.29h.74V39c0,.33-.68.6-1,.6s-.93-.27-.93-.6V33.29H28.06V39c0,.33-.66.6-1,.6s-.89-.27-.89-.6V33.29H24.82v6.93a1,1,0,0,0,.32.76l2,2a1.09,1.09,0,0,1,.32.82l-.76,10v.1a2.06,2.06,0,0,0,4.12.06v-.16l-.79-10a1.11,1.11,0,0,1,.33-.84l2-2a1.11,1.11,0,0,0,.33-.78v-7Z"/><path class="cls-3" d="M28.74,40.45a.67.67,0,0,1-.68-.68V33.34a.68.68,0,0,1,1.36,0v6.43A.68.68,0,0,1,28.74,40.45Z"/><path class="cls-3" d="M25.5,40.45a.67.67,0,0,1-.68-.68V33.34a.68.68,0,1,1,1.36,0v6.43A.68.68,0,0,1,25.5,40.45Z"/><path class="cls-3" d="M32.06,40.45a.67.67,0,0,1-.68-.68V33.34a.68.68,0,0,1,1.36,0v6.43A.68.68,0,0,1,32.06,40.45Z"/></svg>