<svg id="Layer_1" data-name="Layer 1" xmlns="http://www.w3.org/2000/svg" viewBox="0 0 90 90"><defs><style>.cls-1{fill:#e9d9f9;}.cls-2{fill:none;stroke:#7a329f;stroke-linecap:round;stroke-linejoin:round;stroke-width:2px;}</style></defs><title>G&amp;amp;N Grocery Delivery</title><polygon class="cls-1" points="61.43 36.62 55.71 32.47 49.98 36.62 43.91 32.22 37.81 36.65 31.9 32.36 26.05 36.6 20.3 32.43 20.3 37.3 20.3 40.87 20.3 83.89 65.2 83.89 65.2 41.5 65.2 37.88 65.2 34.05 61.43 36.62"/><polyline class="cls-2" points="20.17 50.97 19.73 84.47 67.77 84.47 67.77 37.88 67.77 34.03 67.77 28.42 61.43 33.31 55.71 28.89 49.98 33.31 43.91 28.63 37.81 33.33 31.9 28.77 26.05 33.28 20.3 28.84 20.3 34.03 20.3 36.83"/><line class="cls-2" x1="20.26" y1="41.63" x2="20.21" y2="46.42"/><rect class="cls-2" x="27.65" y="14.9" width="11.75" height="3.41"/><path class="cls-2" d="M23.52,31.33v-11a2,2,0,0,1,2-2h16a2,2,0,0,1,2,2v8.64"/><path class="cls-2" d="M46.5,30.63l1.91-10.72a7.63,7.63,0,0,1,9.74-6l5,1.54a7.8,7.8,0,0,1,4,12.15L64.8,30.71"/><polyline class="cls-2" points="61.68 14.89 70.34 4.47 76.28 10.4 65.08 16.37"/><line class="cls-2" x1="48.61" y1="19.71" x2="54.2" y2="21.67"/><line class="cls-2" x1="62.17" y1="27.29" x2="65.72" y2="28.53"/><line class="cls-2" x1="63.47" y1="20.48" x2="68.32" y2="22.18"/><path class="cls-2" d="M54.26,43.71v8.75A10.25,10.25,0,0,1,44,62.68h0A10.24,10.24,0,0,1,33.82,52.46V43.71"/></svg>