<?xml version="1.0" encoding="utf-8"?>
<!-- Generator: Adobe Illustrator 21.1.0, SVG Export Plug-In . SVG Version: 6.00 Build 0)  -->
<svg version="1.1" id="Layer_1" xmlns="http://www.w3.org/2000/svg" xmlns:xlink="http://www.w3.org/1999/xlink" x="0px" y="0px"
	 viewBox="0 0 90 90" style="enable-background:new 0 0 90 90;" xml:space="preserve">
<style type="text/css">
	.st0{fill:#E1F1FB;}
	.st1{fill:none;stroke:#1E3D5C;stroke-width:2;stroke-linecap:round;stroke-linejoin:round;}
</style>
<title>G&amp;amp;N Grocery Delivery</title>
<polygon class="st0" points="61.4,36.6 55.7,32.5 50,36.6 43.9,32.2 37.8,36.7 31.9,32.4 26,36.6 20.3,32.4 20.3,37.3 20.3,40.9 
	20.3,83.9 65.2,83.9 65.2,41.5 65.2,37.9 65.2,34 "/>
<polyline class="st1" points="20.2,51 19.7,84.5 67.8,84.5 67.8,37.9 67.8,34 67.8,28.4 61.4,33.3 55.7,28.9 50,33.3 43.9,28.6 
	37.8,33.3 31.9,28.8 26,33.3 20.3,28.8 20.3,34 20.3,36.8 "/>
<line class="st1" x1="20.3" y1="41.6" x2="20.2" y2="46.4"/>
<rect x="27.6" y="14.9" class="st1" width="11.8" height="3.4"/>
<path class="st1" d="M23.5,31.3v-11c0-1.1,0.9-2,2-2h16c1.1,0,2,0.9,2,2V29"/>
<path class="st1" d="M46.5,30.6l1.9-10.7c0.7-4.2,4.7-6.9,8.8-6.2c0.3,0.1,0.6,0.1,0.9,0.2l5,1.5c4.1,1.2,6.5,5.6,5.2,9.7
	c-0.3,0.9-0.7,1.7-1.2,2.4l-2.3,3.1"/>
<polyline class="st1" points="61.7,14.9 70.3,4.5 76.3,10.4 65.1,16.4 "/>
<line class="st1" x1="48.6" y1="19.7" x2="54.2" y2="21.7"/>
<line class="st1" x1="62.2" y1="27.3" x2="65.7" y2="28.5"/>
<line class="st1" x1="63.5" y1="20.5" x2="68.3" y2="22.2"/>
<path class="st1" d="M54.3,43.7v8.8c0,5.7-4.6,10.2-10.3,10.2l0,0c-5.6,0-10.2-4.6-10.2-10.2v-8.8"/>
</svg>
