<?xml version="1.0" encoding="utf-8"?>
<!-- Generator: Adobe Illustrator 21.1.0, SVG Export Plug-In . SVG Version: 6.00 Build 0)  -->
<svg version="1.1" id="Layer_1" xmlns="http://www.w3.org/2000/svg" xmlns:xlink="http://www.w3.org/1999/xlink" x="0px" y="0px"
	 viewBox="0 0 90 90" style="enable-background:new 0 0 90 90;" xml:space="preserve">
<style type="text/css">
	.st0{fill:#E1F1FB;}
	.st1{fill:none;stroke:#1E3D5C;stroke-width:2;stroke-linecap:round;stroke-linejoin:round;stroke-miterlimit:10;}
</style>
<g>
	<rect x="5.1" y="22.1" class="st0" width="29.6" height="8.6"/>
	<path class="st0" d="M59.8,77.8h-20v-37c0-2.7,2.2-4.9,4.9-4.9h10.1c2.7,0,4.9,2.2,4.9,4.9L59.8,77.8L59.8,77.8z"/>
	<path class="st0" d="M72.4,15.2h15.1c0-2.3-1.7-4.2-3.7-4.2h-9.3h-2.3c-1.6,0-2.9,1.5-2.9,3.3v61.3c0,1.8,1.3,3.3,2.9,3.3h2.3h9.3
		c2,0,3.7-1.9,3.7-4.2H72.4V15.2z"/>
	<path class="st1" d="M19,78.2h-0.6c-1.7,0-3.1-1.4-3.1-3.1V41.5c0-0.7,0.6-1.3,1.2-1.3h4.1c0.7,0,1.3,0.6,1.3,1.3v33.9
		C21.9,76.9,20.6,78.2,19,78.2z"/>
	<rect x="2.5" y="22.1" class="st1" width="32.1" height="8.6"/>
	<g>
		<line class="st1" x1="18.6" y1="40.2" x2="10.9" y2="30.7"/>
		<line class="st1" x1="18.6" y1="40.2" x2="26.2" y2="30.7"/>
	</g>
	<line class="st1" x1="8.4" y1="26.4" x2="28.8" y2="26.4"/>
	<path class="st1" d="M59.8,77.8H37.1v-38c0-3.6,2.9-6.5,6.5-6.5h9.7c3.6,0,6.5,2.9,6.5,6.5V77.8z"/>
	<path class="st1" d="M54.4,32.7H42.5v-5.9c0-1.4,1.1-2.5,2.5-2.5h6.9c1.4,0,2.5,1.1,2.5,2.5V32.7z"/>
	<rect x="46.1" y="18.4" class="st1" width="4.8" height="5.8"/>
	<path class="st1" d="M32.8,15.4h7.1l3.5,3h8.8V11H35c-1.2,0-2.2,1-2.2,2.2V15.4z"/>
	<line class="st1" x1="72.8" y1="19.7" x2="86.8" y2="19.7"/>
	<line class="st1" x1="72.8" y1="24.7" x2="86.8" y2="24.7"/>
	<line class="st1" x1="72.8" y1="39.9" x2="86.8" y2="39.9"/>
	<line class="st1" x1="72.8" y1="34.9" x2="86.8" y2="34.9"/>
	<line class="st1" x1="72.8" y1="29.8" x2="86.8" y2="29.8"/>
	<line class="st1" x1="72.8" y1="60.2" x2="86.8" y2="60.2"/>
	<line class="st1" x1="72.8" y1="55.1" x2="86.8" y2="55.1"/>
	<line class="st1" x1="72.8" y1="50" x2="86.8" y2="50"/>
	<line class="st1" x1="72.8" y1="45" x2="86.8" y2="45"/>
	<line class="st1" x1="72.8" y1="65.2" x2="86.8" y2="65.2"/>
	<line class="st1" x1="72.8" y1="70.3" x2="86.8" y2="70.3"/>
	<path class="st1" d="M66.9,24.6v51.1c0,1.8,1.5,3.3,3.3,3.3h2.7h10.5c2.3,0,4.2-1.9,4.2-4.2H72.8V15.2h14.7c0-2.3-1.9-4.2-4.2-4.2
		H72.8h-2.7c-0.8,0-1.6,0.3-2.2,0.8"/>
	<line class="st1" x1="66.9" y1="18" x2="66.9" y2="20.9"/>
	<path class="st1" d="M68,11.9c-0.7,0.6-1.1,1.5-1.1,2.4"/>
</g>
</svg>
