<?xml version="1.0" encoding="utf-8"?>
<!-- Generator: Adobe Illustrator 21.1.0, SVG Export Plug-In . SVG Version: 6.00 Build 0)  -->
<svg version="1.1" id="Layer_1" xmlns="http://www.w3.org/2000/svg" xmlns:xlink="http://www.w3.org/1999/xlink" x="0px" y="0px"
	 viewBox="0 0 90 90" style="enable-background:new 0 0 90 90;" xml:space="preserve">
<style type="text/css">
	.st0{fill:#E1F1FB;}
	.st1{fill:none;stroke:#1E3D5C;stroke-width:2;stroke-linecap:round;stroke-linejoin:round;}
	.st2{fill:#FFFFFF;stroke:#1E3D5C;stroke-width:2;stroke-miterlimit:10;}
</style>
<title>HAH - Help at Home</title>
<path class="st0" d="M46.5,11.3L18.1,36v46.2h55.4v-47l0,0L46.5,11.3z"/>
<path class="st1" d="M18.4,37.3v44.9h55.4V38.5l0,0"/>
<polyline class="st1" points="84.7,42.4 45.2,7.9 5.7,42.4 "/>
<path class="st2" d="M38.4,41.8h13.5c1.7,0,3,1.3,3,3V61c0,1.7-1.3,3-3,3H38.4c-1.7,0-3-1.3-3-3V44.8C35.4,43.2,36.8,41.8,38.4,41.8
	z"/>
<line class="st1" x1="45.2" y1="64.1" x2="45.2" y2="74.4"/>
<line class="st1" x1="40.7" y1="35.5" x2="40.7" y2="41.8"/>
<line class="st1" x1="41.6" y1="52.3" x2="48.8" y2="52.3"/>
<line class="st1" x1="41.6" y1="57.4" x2="48.8" y2="57.4"/>
<line class="st1" x1="49.9" y1="35.5" x2="49.9" y2="41.8"/>
</svg>
