<?xml version="1.0" encoding="utf-8"?>
<!-- Generator: Adobe Illustrator 21.1.0, SVG Export Plug-In . SVG Version: 6.00 Build 0)  -->
<svg version="1.1" id="Layer_1" xmlns="http://www.w3.org/2000/svg" xmlns:xlink="http://www.w3.org/1999/xlink" x="0px" y="0px"
	 viewBox="0 0 90 90" style="enable-background:new 0 0 90 90;" xml:space="preserve">
<style type="text/css">
	.st0{fill:#E1F1FB;}
	.st1{fill:none;stroke:#1E3D5C;stroke-width:2;stroke-linecap:round;stroke-linejoin:round;}
</style>
<title>HAH - Food Preparation</title>
<path class="st0" d="M8.8,61.7V84h13.4V61.7H8.8z M17,80.7c-2.2,0-4-1.8-4-4s1.8-4,4-4s4,1.8,4,4C21,78.9,19.2,80.6,17,80.7L17,80.7
	z"/>
<path class="st0" d="M6.4,48.3h81.1l0,0v1c0,3.1-2.5,5.6-5.6,5.6h-70c-3.1,0-5.6-2.5-5.6-5.6L6.4,48.3L6.4,48.3z"/>
<polyline class="st1" points="8.8,59 25.5,59 25.5,83.9 8.8,83.9 "/>
<path class="st1" d="M25.5,68.3v9.4h34.1c1.7,0,3.3-0.7,4.4-2l14.6-15.4c1-1.2,1.4-1.7,1.2-3.3c-0.1-1.2-1.2-2-2.4-1.8
	c-0.5,0.1-0.9,0.3-1.2,0.6l-13.6,9.7c-0.3,0.3-0.6,0.4-1,0.4H41.9"/>
<path class="st1" d="M32.5,55.2c0.4-0.2,0.9-0.3,1.4-0.3h13.9c1.7,0,3.1,1.4,3.1,3.1l0,0c0,1.7-1.4,3.1-3.1,3.1l0,0h-7.6"/>
<path class="st1" d="M56,65.9H40.6c-1.3,0-2.4-1.1-2.4-2.4l0,0c0-1.3,1.1-2.4,2.4-2.4h7.2"/>
<line class="st1" x1="25.5" y1="61.1" x2="31.8" y2="55.5"/>
<circle class="st1" cx="17" cy="76.6" r="2.8"/>
<path class="st1" d="M2.5,45.9h85l0,0v1.4c0,4.2-3.4,7.6-7.6,7.6H10.1c-4.2,0-7.6-3.4-7.6-7.6L2.5,45.9L2.5,45.9z"/>
<path class="st1" d="M28.5,13.6c5.1-2.6,10.8-4,16.5-3.9c20,0,36.3,15.9,36.3,35.6"/>
<path class="st1" d="M19.9,19.6c1.4-1.3,3-2.6,4.6-3.6"/>
<path class="st1" d="M8.7,45.3c0-8.1,2.8-15.9,7.9-22.1"/>
<ellipse class="st1" cx="45" cy="6.5" rx="3.1" ry="3.1"/>
</svg>
