<?xml version="1.0" encoding="utf-8"?>
<!-- Generator: Adobe Illustrator 21.1.0, SVG Export Plug-In . SVG Version: 6.00 Build 0)  -->
<svg version="1.1" id="Layer_1" xmlns="http://www.w3.org/2000/svg" xmlns:xlink="http://www.w3.org/1999/xlink" x="0px" y="0px"
	 viewBox="0 0 90 90" style="enable-background:new 0 0 90 90;" xml:space="preserve">
<style type="text/css">
	.st0{fill:#E1F1FB;}
	.st1{fill:none;stroke:#1E3D5C;stroke-width:2;stroke-linecap:round;stroke-miterlimit:10;}
	.st2{fill:none;stroke:#1E3D5C;stroke-width:2;stroke-linecap:round;stroke-linejoin:round;}
</style>
<title>HAH - Shopping</title>
<path class="st0" d="M77.8,56.1l-54.5-0.3l-6.5-30.3h66.3c0.6,0,1,0.4,1,1v0.1L77.8,56.1z"/>
<line class="st1" x1="66.4" y1="22.6" x2="71.7" y2="22.6"/>
<path class="st1" d="M77.5,22.6h7.3c1.4-0.1,2.5,0.9,2.7,2.2c0,0.1,0,0.3,0,0.4l-6,28.6c-0.3,1.2-1.4,2.1-2.7,2H23.6l-6.5-33.2h43.5
	"/>
<polyline class="st2" points="78.8,68.5 25.8,68.5 14.4,8.5 2.5,4.6 "/>
<circle class="st2" cx="39.7" cy="80.7" r="6.1"/>
<circle class="st2" cx="65.4" cy="80.7" r="6.1"/>
<line class="st1" x1="31.7" y1="35.4" x2="73.8" y2="35.4"/>
<line class="st1" x1="36.9" y1="44.1" x2="68.5" y2="44.1"/>
</svg>
