<?xml version="1.0" encoding="utf-8"?>
<!-- Generator: Adobe Illustrator 21.1.0, SVG Export Plug-In . SVG Version: 6.00 Build 0)  -->
<svg version="1.1" id="Layer_1" xmlns="http://www.w3.org/2000/svg" xmlns:xlink="http://www.w3.org/1999/xlink" x="0px" y="0px"
	 viewBox="0 0 90 90" style="enable-background:new 0 0 90 90;" xml:space="preserve">
<style type="text/css">
	.st0{fill:#E1F1FB;}
	.st1{fill:none;stroke:#1E3D5C;stroke-width:2;stroke-linecap:round;stroke-miterlimit:10;}
	.st2{fill:none;stroke:#1E3D5C;stroke-width:2;stroke-linecap:round;stroke-linejoin:round;}
</style>
<title>HAH - Housekeeping</title>
<path class="st0" d="M50.8,81.3v-4.1c0-0.2,0-0.3,0.1-0.5c0.8-5.5,5.2-9.8,10.7-10.4l0.4-31H39.2v7.1c0,0.2,0,0.3-0.1,0.4
	c-0.2,1.2-0.8,2.4-1.8,3.2c0.4,1,0.6,2,0.6,3c0,6-4.8,10.8-10.7,10.8l0,0c-2,0-4-0.5-5.8-1.5l4.1,26.9c0,0.1,0.1,0.1,0.1,0.1h23.1
	c0.7,0,1.3,0.4,1.5,1.1h0.7L50.8,81.3z"/>
<path class="st1" d="M38.1,42.1c0,2.5-2,4.5-4.5,4.5l0,0c-0.3,0-0.6,0-0.9-0.1"/>
<path class="st1" d="M13.6,39.6c0-2.3,1.8-4.1,4.1-4.1l0,0"/>
<path class="st1" d="M23.7,52.5c-1.1,0.9-2.5,1.4-4,1.4c-3.4,0-6.2-2.8-6.2-6.2V40"/>
<line class="st1" x1="38.1" y1="42.6" x2="38.1" y2="35.4"/>
<path class="st1" d="M22.7,41.3c-0.9,2,0.1,4.4,2.1,5.2"/>
<circle class="st1" cx="17.8" cy="27.7" r="4.4"/>
<circle class="st1" cx="6.9" cy="34.4" r="3.1"/>
<path class="st2" d="M48.7,87H25.6c-0.6,0-1.1-0.4-1.2-1l-4.5-30.1"/>
<line class="st2" x1="17.6" y1="35.4" x2="61.1" y2="35.4"/>
<path class="st1" d="M36,45.9c0.4,1.1,0.7,2.2,0.8,3.4l0,0c0,5.3-4.3,9.7-9.6,9.7l0,0c-3.9,0-7-1.8-8.6-5.1"/>
<path class="st1" d="M64.7,9V4.2C64.7,3,65.6,2,66.8,2l0,0l0,0C68,2,69,3,69,4.2v63.6"/>
<line class="st1" x1="64.7" y1="18.6" x2="64.7" y2="14"/>
<line class="st1" x1="64.7" y1="67.8" x2="64.7" y2="23.7"/>
<path class="st1" d="M52.3,81.5v-2.9c0-5.9,4.8-10.8,10.8-10.8h7.6c5.9,0,10.8,4.8,10.8,10.8v3"/>
<line class="st1" x1="57.2" y1="77.4" x2="57.2" y2="87"/>
<line class="st1" x1="52.3" y1="77.4" x2="52.3" y2="87"/>
<line class="st1" x1="62" y1="77.4" x2="62" y2="87"/>
<line class="st1" x1="66.9" y1="77.4" x2="66.9" y2="87"/>
<line class="st1" x1="71.8" y1="77.4" x2="71.8" y2="87"/>
<line class="st1" x1="76.6" y1="77.4" x2="76.6" y2="87"/>
<line class="st1" x1="81.5" y1="77.4" x2="81.5" y2="87"/>
</svg>
