<?xml version="1.0" encoding="utf-8"?>
<!-- Generator: Adobe Illustrator 21.1.0, SVG Export Plug-In . SVG Version: 6.00 Build 0)  -->
<svg version="1.1" id="Layer_1" xmlns="http://www.w3.org/2000/svg" xmlns:xlink="http://www.w3.org/1999/xlink" x="0px" y="0px"
	 viewBox="0 0 90 90" style="enable-background:new 0 0 90 90;" xml:space="preserve">
<style type="text/css">
	.st0{fill:#E1F1FB;}
	.st1{fill:none;stroke:#1E3D5C;stroke-width:2;stroke-linecap:round;stroke-linejoin:round;}
	.st2{fill:none;stroke:#1E3D5C;stroke-width:2;stroke-linecap:round;stroke-miterlimit:10;}
</style>
<title>HAH - Companionship &amp;amp; Errands</title>
<circle class="st0" cx="33.3" cy="10.9" r="5.9"/>
<path class="st0" d="M39.7,87.8c-1.5,0-3.7-0.3-4.3-1c-0.3-0.4-0.5-0.8-0.5-1.3V52.3l-3.1-1v34.1c0,0.2-0.3,2.4-4,2.4
	c-1,0.1-2.1-0.2-2.9-0.9c-0.4-0.4-0.6-1-0.5-1.6V27l-1.7,1c-1.9,1.2-4.7,5-4.7,9.9c0,4.7,2.7,11.8,2.8,12.1l0.2,0.4l0.4,0.1
	c0.1,0.1,0.4,0.5,0.3,1.7c-0.1,1.4-0.9,1.5-0.9,1.5h-0.1l-0.1,0.1c-0.4,0.1-0.7,0.2-1.1,0.2s-0.8-0.1-1.1-0.4c-0.7-0.6-1.6-3-2-4.4
	c0-0.1-1.9-7-1.9-11.2c0-3,1.2-6.2,2-8.5c0.4-1,0.7-1.8,0.8-2.5c0.6-1.6,1.6-3.1,2.8-4.4c1-0.7,2.1-1.4,3.3-1.8
	c1.1-0.4,2.9-1.1,4-1.4c2.9,1,2.6,0.9,4.9,0.9c3.2,0,5.8-1.9,8.2-4.3c0.8,0.3,3.5,2.5,4.2,2.8c-0.8,1.4-1.3,2.9-1.6,4.5v0.1v61.9
	v0.1c0.1,0.5-0.1,1-0.4,1.5C41.8,87.6,40.7,87.9,39.7,87.8z"/>
<path class="st1" d="M32.1,52.3v32c0,0,0.5,3.4,5.8,3.4s4.4-3.7,4.4-3.7V22.4c0,0,0.8-4.4,2.3-5"/>
<path class="st1" d="M25.1,16.5c-1.1,1.1-2.5,1.8-4,2.2c-1.3,0.5-2.6,1.2-3.7,2c0,0-2.6,2.8-3.1,5s-2.9,6.8-2.9,11.2s2,11.5,2,11.5
	s1,3.8,2.3,5s3.3,0.3,3.3,0.3s1.7-0.2,1.9-2.5S20,48.5,20,48.5s-2.8-7.2-2.8-11.7s2.6-8,4.2-8.9v56.3c0,0-0.1,3.7,4.9,3.7
	s5.4-3.4,5.4-3.4"/>
<circle class="st2" cx="56.1" cy="11.9" r="6.8"/>
<path class="st1" d="M56.3,52.8v31.5c0,0,1.3,3.4,6.2,3.4S67,84,67,84V29.9c1.6,1,4.2,4.4,4.2,8.9s-2.2,9.6-2.8,11.7
	c-0.3,0.8-0.4,1.6-0.4,2.4c0.3,2.3,1.9,2.5,1.9,2.5s2,0.8,3.3-0.3s2.3-5,2.3-5c0.8-3.7,1.3-7.4,1.5-11.1c0-4.4-2.4-9.1-2.9-11.2
	s-3.1-5-3.1-5"/>
<path class="st1" d="M46,29.5v54.6c0,0-0.3,3.7,4.9,3.7s5.3-3.4,5.3-3.4"/>
<path class="st2" d="M69.8,19.2c0.1-0.2,0.1-0.4-0.1-0.5L65.9,16c-0.1-0.1-0.4-0.1-0.5,0.1l0,0l-0.8,1.1v0.1l-0.2,0.2
	c-0.9,1.2-0.6,2.8,0.6,3.7c1.2,0.9,2.8,0.6,3.7-0.6l0.2-0.2H69L69.8,19.2z"/>
<circle class="st2" cx="32.2" cy="9.8" r="7"/>
</svg>
