<svg id="Layer_1" data-name="Layer 1" xmlns="http://www.w3.org/2000/svg" viewBox="0 0 90 90"><defs><style>.cls-1{fill:#e9d9f9;}.cls-2{fill:none;stroke:#7a329f;stroke-linecap:round;stroke-miterlimit:10;stroke-width:2px;}</style></defs><title>HAH - Laundry</title><path class="cls-1" d="M82.43,21.23V11.48c0-3.85-4.13-7-8-7H16.55c-3.85,0-6.67,2.13-6.67,6V21.21H81.34ZM30,14.15a3.46,3.46,0,0,1-3.46,3.46H20.9a3.46,3.46,0,0,1-3.46-3.46V11.93A3.47,3.47,0,0,1,20.9,8.46h5.61A3.47,3.47,0,0,1,30,11.93ZM55.3,18.08a5,5,0,1,1,5-5A5,5,0,0,1,55.3,18.08Zm12.22,0a5,5,0,1,1,5-5A5,5,0,0,1,67.52,18.08Z"/><path class="cls-2" d="M20.9,16.61h5.6A2.47,2.47,0,0,0,29,14.15V11.93A2.48,2.48,0,0,0,26.5,9.46H20.9a2.47,2.47,0,0,0-2.46,2.47v2.22A2.46,2.46,0,0,0,20.9,16.61Z"/><path class="cls-2" d="M55.3,17.08a4,4,0,1,0-4-4A4,4,0,0,0,55.3,17.08Z"/><path class="cls-2" d="M67.52,17.08a4,4,0,1,0-4-4A4.05,4.05,0,0,0,67.52,17.08Z"/><path class="cls-2" d="M7.57,16.61V79.52a8,8,0,0,0,8,8h58.9a8,8,0,0,0,8-8v-69a8,8,0,0,0-8-8H15.55a7.12,7.12,0,0,0-5,1.79M8.08,7.67a6.13,6.13,0,0,0-.51,2.81v2.1"/><path class="cls-2" d="M66.16,47.85a21.62,21.62,0,0,0-42.78,4.44,21.31,21.31,0,0,0,.89,6.12v0A21.62,21.62,0,0,0,66.19,48Z"/><line class="cls-2" x1="7.98" y1="22.21" x2="81.34" y2="22.21"/><path class="cls-1" d="M64.06,48.28a18.47,18.47,0,0,0-.85-2.86c0-.12-.09-.22-.14-.34C56.24,45.58,51.73,49.16,47,53c-5.2,4.16-10.59,8.45-19.16,8.56a19.48,19.48,0,0,0,36.65-9.23,19.32,19.32,0,0,0-.39-3.87"/></svg>