<svg id="Layer_1" data-name="Layer 1" xmlns="http://www.w3.org/2000/svg" viewBox="0 0 90 90"><defs><style>.cls-1{fill:#e9d9f9;}.cls-2{fill:none;stroke:#7a329f;stroke-linecap:round;stroke-linejoin:round;stroke-width:2px;}</style></defs><title>HAH - Food Preparation</title><path class="cls-1" d="M8.83,61.67V83.94H22.19V61.67Zm8.15,19a4,4,0,1,1,4-4A4,4,0,0,1,17,80.63Z"/><path class="cls-1" d="M6.36,48.32H87.5a0,0,0,0,1,0,0v1a5.57,5.57,0,0,1-5.57,5.57h-70a5.57,5.57,0,0,1-5.57-5.57v-1a0,0,0,0,1,0,0Z"/><polyline class="cls-2" points="8.84 59 25.46 59 25.46 83.94 8.84 83.94"/><path class="cls-2" d="M25.46,68.3v9.4H59.6a5.89,5.89,0,0,0,4.43-2L78.66,60.32c1-1.18,1.39-1.66,1.23-3.25a2.12,2.12,0,0,0-3.58-1.25L62.67,65.55a1.42,1.42,0,0,1-1,.38H41.93"/><path class="cls-2" d="M32.46,55.24a3.07,3.07,0,0,1,1.42-.34H47.81A3.13,3.13,0,0,1,50.94,58h0a3.13,3.13,0,0,1-3.13,3.13H40.19"/><path class="cls-2" d="M56,65.93H40.58a2.41,2.41,0,0,1-2.41-2.41h0a2.41,2.41,0,0,1,2.41-2.4h7.23"/><line class="cls-2" x1="25.46" y1="61.08" x2="31.82" y2="55.55"/><circle class="cls-2" cx="16.98" cy="76.63" r="2.82"/><path class="cls-2" d="M2.5,45.94h85a0,0,0,0,1,0,0v1.42a7.57,7.57,0,0,1-7.57,7.57H10.07A7.57,7.57,0,0,1,2.5,47.36V45.94A0,0,0,0,1,2.5,45.94Z"/><path class="cls-2" d="M28.49,13.62A34.87,34.87,0,0,1,45,9.73c20,0,36.27,15.93,36.27,35.59"/><path class="cls-2" d="M19.87,19.65A36.91,36.91,0,0,1,24.51,16"/><path class="cls-2" d="M8.73,45.32A35,35,0,0,1,16.59,23.2"/><ellipse class="cls-2" cx="45" cy="6.49" rx="3.1" ry="3.06"/></svg>