<svg id="Layer_1" data-name="Layer 1" xmlns="http://www.w3.org/2000/svg" viewBox="0 0 90 90"><defs><style>.cls-1{fill:#e9d9f9;}.cls-2,.cls-3{fill:none;stroke:#7a329f;stroke-linecap:round;stroke-width:2px;}.cls-2{stroke-linejoin:round;}.cls-3{stroke-miterlimit:10;}</style></defs><title>HAH - Companionship &amp;amp; Errands</title><circle class="cls-1" cx="33.26" cy="10.86" r="5.94"/><path class="cls-1" d="M39.65,87.81c-1.55,0-3.7-.34-4.32-1a1.93,1.93,0,0,1-.55-1.31V52.34l-3.13-1V85.45c0,.2-.25,2.36-3.95,2.36a3.78,3.78,0,0,1-2.89-.92,2.27,2.27,0,0,1-.54-1.59V27l-1.66,1c-1.94,1.19-4.68,5-4.68,9.87,0,4.67,2.7,11.78,2.81,12.08l.17.44.35.14c.08.09.39.49.3,1.69-.11,1.38-.92,1.48-.93,1.48h-.15l-.14.06a3.43,3.43,0,0,1-1.09.19,1.65,1.65,0,0,1-1.11-.36c-.74-.64-1.59-3-2-4.4,0-.09-1.91-7-1.91-11.24,0-3,1.19-6.17,2.05-8.5.36-1,.67-1.82.84-2.48a14.06,14.06,0,0,1,2.77-4.4,14.24,14.24,0,0,1,3.32-1.81c1.1-.35,2.88-1.15,4-1.38,2.9,1,2.59.85,4.94.85,3.24,0,5.85-1.92,8.21-4.25.85.27,3.54,2.49,4.23,2.81A14.39,14.39,0,0,0,43,23.31v.1L43,85.3l0,.11a2,2,0,0,1-.38,1.47A3.81,3.81,0,0,1,39.65,87.81Z"/><path class="cls-2" d="M32.06,52.34v32s.54,3.45,5.76,3.45,4.43-3.72,4.43-3.72l0-61.67s.85-4.43,2.35-5.05"/><path class="cls-2" d="M25.1,16.45a8.63,8.63,0,0,1-4,2.16,15.93,15.93,0,0,0-3.72,2s-2.56,2.83-3.1,5-2.92,6.81-2.92,11.24,2,11.51,2,11.51,1,3.81,2.3,5,3.32.35,3.32.35,1.73-.18,1.91-2.48-.89-2.74-.89-2.74S17.2,41.28,17.2,36.76s2.56-8,4.16-8.94V84.09s-.07,3.72,4.89,3.72,5.4-3.45,5.4-3.45"/><circle class="cls-3" cx="56.13" cy="11.92" r="6.76"/><path class="cls-2" d="M56.25,52.84V84.36s1.25,3.45,6.21,3.45S67,84.09,67,84.09V29.86c1.59,1,4.16,4.43,4.16,8.94S69,48.39,68.39,50.49A6.28,6.28,0,0,0,68,52.87c.35,2.28,1.9,2.48,1.9,2.48s2,.8,3.32-.35,2.3-5,2.3-5A65.44,65.44,0,0,0,77,38.89c0-4.43-2.39-9.12-2.92-11.24s-3.1-5-3.1-5"/><path class="cls-2" d="M46,29.46l0,54.63s-.34,3.72,4.88,3.72,5.29-3.45,5.29-3.45"/><path class="cls-3" d="M69.75,19.22a.34.34,0,0,0-.08-.47L65.93,16a.33.33,0,0,0-.47.08l-.85,1.13,0,.06-.17.22a2.65,2.65,0,0,0,4.29,3.12l.15-.22.05-.05Z"/><circle class="cls-3" cx="32.2" cy="9.8" r="6.99"/></svg>