<?xml version="1.0" encoding="utf-8"?>
<!-- Generator: Adobe Illustrator 21.1.0, SVG Export Plug-In . SVG Version: 6.00 Build 0)  -->
<svg version="1.1" id="Layer_1" xmlns="http://www.w3.org/2000/svg" xmlns:xlink="http://www.w3.org/1999/xlink" x="0px" y="0px"
	 viewBox="0 0 90 90" style="enable-background:new 0 0 90 90;" xml:space="preserve">
<style type="text/css">
	.st0{fill:#E1F1FB;}
	.st1{fill:none;stroke:#1E3D5C;stroke-width:2;stroke-linecap:round;stroke-miterlimit:10;}
</style>
<title>HAH - Laundry</title>
<path class="st0" d="M82.4,21.2v-9.8c0-3.8-4.1-7-8-7H16.5c-3.9,0-6.7,2.1-6.7,6v10.7h71.5L82.4,21.2z M30,14.1
	c0,1.9-1.5,3.5-3.5,3.5h-5.6c-1.9,0-3.5-1.5-3.5-3.5l0,0v-2.2c0-1.9,1.5-3.5,3.5-3.5h5.6c1.9,0,3.5,1.5,3.5,3.4l0,0V14.1z
	 M55.3,18.1c-2.8,0-5-2.2-5-5s2.2-5,5-5s5,2.2,5,5S58.1,18.1,55.3,18.1z M67.5,18.1c-2.8,0-5-2.2-5-5s2.2-5,5-5s5,2.2,5,5
	S70.3,18.1,67.5,18.1z"/>
<path class="st1" d="M20.9,16.6h5.6c1.4,0,2.5-1.1,2.5-2.4l0,0V12c0-1.4-1.1-2.5-2.5-2.5l0,0h-5.6c-1.4,0-2.5,1.1-2.5,2.5v2.2
	C18.4,15.5,19.5,16.6,20.9,16.6L20.9,16.6z"/>
<path class="st1" d="M55.3,17.1c2.2,0,4-1.8,4-4s-1.8-4-4-4s-4,1.8-4,4S53.1,17.1,55.3,17.1z"/>
<path class="st1" d="M67.5,17.1c2.2,0,4-1.8,4-4s-1.8-4-4-4s-4,1.8-4,4S65.3,17.1,67.5,17.1z"/>
<path class="st1" d="M7.6,16.6v62.9c0,4.4,3.6,8,8,8h58.9c4.4,0,8-3.6,8-8v-69c0-4.4-3.6-8-8-8H15.6c-1.8-0.1-3.6,0.6-5,1.8
	 M8.1,7.7c-0.4,0.9-0.6,1.8-0.5,2.8v2.1"/>
<path class="st1" d="M66.2,47.8c-2.4-11.7-13.9-19.2-25.6-16.7c-10,2.1-17.2,10.9-17.2,21.2c0,2.1,0.3,4.1,0.9,6.1l0,0
	c3.4,11.4,15.5,18,26.9,14.5c10.7-3.2,17.2-14,15-24.9V47.8z"/>
<line class="st1" x1="8" y1="22.2" x2="81.3" y2="22.2"/>
<path class="st0" d="M64.1,48.3c-0.2-1-0.5-1.9-0.8-2.9c0-0.1-0.1-0.2-0.1-0.3c-7,0.5-11.5,4.1-16.2,7.9c-5.2,4.2-10.6,8.5-19.2,8.6
	c5.1,9.5,16.9,13.1,26.4,8c6.3-3.4,10.3-10,10.3-17.2c0-1.3-0.1-2.6-0.4-3.9"/>
</svg>
