<svg id="Layer_1" data-name="Layer 1" xmlns="http://www.w3.org/2000/svg" viewBox="0 0 90 90"><defs><style>.cls-1{fill:#e9d9f9;}.cls-2,.cls-3{fill:none;stroke:#7a329f;stroke-linecap:round;stroke-width:2px;}.cls-2{stroke-miterlimit:10;}.cls-3{stroke-linejoin:round;}</style></defs><title>HAH - Housekeeping</title><path class="cls-1" d="M50.81,81.35V77.29a1,1,0,0,1,.13-.49A12.11,12.11,0,0,1,61.63,66.4L62,35.27H39.15v7.14a1.08,1.08,0,0,1-.09.44,5.52,5.52,0,0,1-1.75,3.24,10.15,10.15,0,0,1,.61,3A10.79,10.79,0,0,1,27.15,59.92a11.17,11.17,0,0,1-5.75-1.48l4.05,26.93a.13.13,0,0,0,.13.11H48.67a1.42,1.42,0,0,1,1.46,1.1h.68Z"/><path class="cls-2" d="M38.06,42.1a4.54,4.54,0,0,1-4.54,4.54,4.94,4.94,0,0,1-.87-.08"/><path class="cls-2" d="M13.61,39.56a4.14,4.14,0,0,1,4.14-4.15"/><path class="cls-2" d="M23.74,52.51a6.11,6.11,0,0,1-3.95,1.43,6.18,6.18,0,0,1-6.18-6.17V40"/><line class="cls-2" x1="38.06" y1="42.56" x2="38.06" y2="35.41"/><path class="cls-2" d="M22.74,41.25a4,4,0,0,0,2.12,5.23"/><circle class="cls-2" cx="17.75" cy="27.71" r="4.39"/><circle class="cls-2" cx="6.93" cy="34.36" r="3.12"/><path class="cls-3" d="M48.67,87H25.58a1.22,1.22,0,0,1-1.21-1L19.9,55.92"/><line class="cls-3" x1="17.63" y1="35.41" x2="61.09" y2="35.41"/><path class="cls-2" d="M36,45.9a11.41,11.41,0,0,1,.79,3.39h0A9.69,9.69,0,0,1,27.15,59h0c-3.94,0-7-1.76-8.55-5.14"/><path class="cls-2" d="M64.69,9V4.24A2.2,2.2,0,0,1,66.89,2h0a2.2,2.2,0,0,1,2.19,2.2V67.83"/><line class="cls-2" x1="64.69" y1="18.59" x2="64.69" y2="13.98"/><line class="cls-2" x1="64.69" y1="67.83" x2="64.69" y2="23.68"/><path class="cls-2" d="M52.3,81.5V78.6A10.77,10.77,0,0,1,63.07,67.83H70.7A10.77,10.77,0,0,1,81.47,78.6v3"/><line class="cls-2" x1="57.16" y1="77.43" x2="57.16" y2="87.04"/><line class="cls-2" x1="52.3" y1="77.43" x2="52.3" y2="87.04"/><line class="cls-2" x1="62.02" y1="77.43" x2="62.02" y2="87.04"/><line class="cls-2" x1="66.89" y1="77.43" x2="66.89" y2="87.04"/><line class="cls-2" x1="71.75" y1="77.43" x2="71.75" y2="87.04"/><line class="cls-2" x1="76.61" y1="77.43" x2="76.61" y2="87.04"/><line class="cls-2" x1="81.47" y1="77.43" x2="81.47" y2="87.04"/></svg>