<svg id="Layer_1" data-name="Layer 1" xmlns="http://www.w3.org/2000/svg" viewBox="0 0 90 90"><defs><style>.cls-1{fill:#e9d9f9;}.cls-2,.cls-3{fill:none;stroke:#7a329f;stroke-linecap:round;stroke-width:2px;}.cls-2{stroke-miterlimit:10;}.cls-3{stroke-linejoin:round;}</style></defs><title>HAH - Shopping</title><path class="cls-1" d="M77.84,56.08l-54.51-.27L16.86,25.55H83.21a1,1,0,0,1,1,1.12Z"/><line class="cls-2" x1="66.45" y1="22.6" x2="71.68" y2="22.6"/><path class="cls-2" d="M77.52,22.58H84.8a2.46,2.46,0,0,1,2.67,2.65l-6,28.59a2.61,2.61,0,0,1-2.68,2H23.62L17.11,22.58H60.59"/><polyline class="cls-3" points="78.81 68.5 25.76 68.47 14.45 8.46 2.5 4.57"/><circle class="cls-3" cx="39.65" cy="80.66" r="6.05"/><circle class="cls-3" cx="65.45" cy="80.66" r="6.05"/><line class="cls-2" x1="31.66" y1="35.42" x2="73.75" y2="35.42"/><line class="cls-2" x1="36.89" y1="44.11" x2="68.52" y2="44.11"/></svg>