<?xml version="1.0" encoding="utf-8"?>
<!-- Generator: Adobe Illustrator 21.1.0, SVG Export Plug-In . SVG Version: 6.00 Build 0)  -->
<svg version="1.1" id="Layer_1" xmlns="http://www.w3.org/2000/svg" xmlns:xlink="http://www.w3.org/1999/xlink" x="0px" y="0px"
	 viewBox="0 0 90 90" style="enable-background:new 0 0 90 90;" xml:space="preserve">
<style type="text/css">
	.st0{fill:#E1F1FB;}
	.st1{fill:none;stroke:#1E3D5C;stroke-width:2;stroke-linecap:round;stroke-miterlimit:10;}
</style>
<title>Icons_Navvis</title>
<polyline class="st0" points="61.6,71.5 28.7,71.5 28.7,47.4 72.8,47.4 72.8,59.8 "/>
<path class="st1" d="M18.8,48.4v18c0,0.8-0.6,1.4-1.4,1.4H3.9c-0.8,0-1.4-0.6-1.4-1.4V29c0-0.8,0.6-1.4,1.4-1.4h13.5
	c0.8,0,1.4,0.6,1.4,1.4v3.3"/>
<line class="st1" x1="10.6" y1="81.8" x2="10.6" y2="67.7"/>
<line class="st1" x1="2.5" y1="81.8" x2="18.8" y2="81.8"/>
<path class="st1" d="M6.8,21.5h7.8c0.6,0,1,0.4,1,1v4.7l0,0H5.8l0,0v-4.7C5.8,22,6.2,21.5,6.8,21.5z"/>
<line class="st1" x1="10.6" y1="21.5" x2="10.6" y2="6"/>
<line class="st1" x1="2.5" y1="39.6" x2="10.1" y2="39.6"/>
<line class="st1" x1="2.5" y1="48.1" x2="10.1" y2="48.1"/>
<line class="st1" x1="2.5" y1="56.5" x2="10.1" y2="56.5"/>
<path class="st1" d="M38.3,20.1H35c-0.8,0-1.4-0.6-1.4-1.4v-7.1c0-1.5,1.2-2.8,2.8-2.8l0,0h26.2c1.5,0,2.8,1.2,2.8,2.8l0,0v7.1
	c0,0.8-0.6,1.4-1.4,1.4H38.3"/>
<path class="st1" d="M72.8,54.2V41.7c0-1.2-0.4-2.4-1.2-3.4L61.3,27.7c-0.4-0.5-0.6-1.1-0.6-1.7v-5.6"/>
<path class="st1" d="M38.4,20.4V26c0,0.6-0.2,1.2-0.6,1.7L27.5,38.3c-0.8,1-1.2,2.2-1.2,3.4v34.5c0,3.1,2.5,5.6,5.6,5.6h24.8"/>
<line class="st1" x1="26.3" y1="46.9" x2="72.8" y2="46.9"/>
<line class="st1" x1="26.3" y1="72" x2="45.5" y2="72"/>
<path class="st1" d="M63.1,81.7L63.1,81.7c-3-3-3-8,0-11l5.6-5.6l5.6-5.6c3-3,8-3,11,0l0,0c3,3,3,8,0,11L74.1,81.7
	C71.1,84.7,66.1,84.7,63.1,81.7z"/>
<line class="st1" x1="79.7" y1="76.1" x2="72.3" y2="68.8"/>
<line class="st1" x1="18.8" y1="37" x2="18.8" y2="42.8"/>
</svg>
