<svg id="Layer_1" data-name="Layer 1" xmlns="http://www.w3.org/2000/svg" viewBox="0 0 90 90"><defs><style>.cls-1{fill:#e9d9f9;}.cls-2,.cls-3{fill:none;stroke:#7a329f;stroke-width:2px;}.cls-2{stroke-linecap:round;stroke-linejoin:round;}.cls-3{stroke-miterlimit:10;}</style></defs><title>Transportation - General Transportation</title><path class="cls-1" d="M79.12,37.53H12c-3.86,0-6.51,1.87-6.51,5.73V62.79a3,3,0,0,0,3,3H84.61a3,3,0,0,0,3-3l-.49-18.26C87.12,40.67,83,37.53,79.12,37.53ZM28.17,55.22a3,3,0,0,1-3,3H11.69a3,3,0,0,1-3-3V47.53a3,3,0,0,1,3-3H25.17a3,3,0,0,1,3,3Zm25,3H37.1a1,1,0,1,1,0-2H53.19a1,1,0,0,1,0,2Zm0-5.6H37.1a1,1,0,0,1,0-2H53.19a1,1,0,0,1,0,2Zm0-5.59H37.1a1,1,0,1,1,0-2H53.19a1,1,0,0,1,0,2Zm28.34,8.19a3,3,0,0,1-3,3H65.05a3,3,0,0,1-3-3V47.53a3,3,0,0,1,3-3H78.53a3,3,0,0,1,3,3Z"/><path class="cls-2" d="M22.51,11.73,70,12.11a5.29,5.29,0,0,1,5.18,4.49l4.61,18.66"/><path class="cls-2" d="M15.29,15.3a5.29,5.29,0,0,1,3.08-3.21"/><line class="cls-2" x1="10.61" y1="35.26" x2="14.41" y2="19.01"/><path class="cls-3" d="M10.61,35.26h69a8,8,0,0,1,8,8V62.79a4,4,0,0,1-4,4h-77a4,4,0,0,1-4-4V43.26A8,8,0,0,1,10.61,35.26Z"/><rect class="cls-3" x="9.69" y="45.53" width="17.48" height="11.69" rx="2" ry="2"/><rect class="cls-3" x="63.05" y="45.53" width="17.48" height="11.69" rx="2" ry="2"/><line class="cls-2" x1="37.1" y1="46.03" x2="53.19" y2="46.03"/><line class="cls-2" x1="37.1" y1="51.62" x2="53.19" y2="51.62"/><line class="cls-2" x1="37.1" y1="57.22" x2="53.19" y2="57.22"/><path class="cls-2" d="M53.78,35.26a9.17,9.17,0,0,1,18.33,0"/><path class="cls-2" d="M7,66.79H18.9a0,0,0,0,1,0,0v7.89a4,4,0,0,1-4,4H11a4,4,0,0,1-4-4V66.79a0,0,0,0,1,0,0Z"/><path class="cls-2" d="M71.4,66.79H83.29a0,0,0,0,1,0,0v7.89a4,4,0,0,1-4,4H75.4a4,4,0,0,1-4-4V66.79A0,0,0,0,1,71.4,66.79Z"/></svg>