<?xml version="1.0" encoding="utf-8"?>
<!-- Generator: Adobe Illustrator 21.1.0, SVG Export Plug-In . SVG Version: 6.00 Build 0)  -->
<svg version="1.1" id="Layer_1" xmlns="http://www.w3.org/2000/svg" xmlns:xlink="http://www.w3.org/1999/xlink" x="0px" y="0px"
	 viewBox="0 0 90 90" style="enable-background:new 0 0 90 90;" xml:space="preserve">
<style type="text/css">
	.st0{fill:#E1F1FB;}
	.st1{fill:none;stroke:#1E3D5C;stroke-width:2;stroke-linecap:round;stroke-linejoin:round;}
	.st2{fill:none;stroke:#1E3D5C;stroke-width:2;stroke-miterlimit:10;}
</style>
<title>Transportation - General Transportation</title>
<path class="st0" d="M79.1,37.5H12c-3.9,0-6.5,1.9-6.5,5.7v19.5c0,1.7,1.3,3,3,3l0,0h76.1c1.7,0,3-1.3,3-3l0,0l-0.5-18.3
	C87.1,40.7,83,37.5,79.1,37.5z M28.2,55.2c0,1.7-1.3,3-3,3l0,0H11.7c-1.7,0-3-1.3-3-3l0,0v-7.7c0-1.7,1.3-3,3-3h13.5
	c1.7,0,3,1.3,3,3V55.2z M53.2,58.2H37.1c-0.6,0-1-0.4-1-1s0.4-1,1-1h16.1c0.6,0,1,0.4,1,1S53.7,58.2,53.2,58.2L53.2,58.2z
	 M53.2,52.6H37.1c-0.6,0-1-0.4-1-1s0.4-1,1-1h16.1c0.6,0,1,0.4,1,1S53.7,52.6,53.2,52.6L53.2,52.6z M53.2,47H37.1c-0.6,0-1-0.4-1-1
	s0.4-1,1-1h16.1c0.6,0,1,0.4,1,1S53.7,47,53.2,47L53.2,47z M81.5,55.2c0,1.7-1.3,3-3,3l0,0H65.1c-1.7,0-3-1.3-3-3l0,0v-7.7
	c0-1.7,1.3-3,3-3h13.5c1.7,0,3,1.3,3,3L81.5,55.2z"/>
<path class="st1" d="M22.5,11.7L70,12.1c2.6,0,4.8,1.9,5.2,4.5l4.6,18.7"/>
<path class="st1" d="M15.3,15.3c0.5-1.5,1.6-2.6,3.1-3.2"/>
<line class="st1" x1="10.6" y1="35.3" x2="14.4" y2="19"/>
<path class="st2" d="M10.6,35.3h69c4.4,0,8,3.6,8,8v19.5c0,2.2-1.8,4-4,4h-77c-2.2,0-4-1.8-4-4V43.3C2.6,38.8,6.2,35.3,10.6,35.3z"
	/>
<path class="st2" d="M11.7,45.5h13.5c1.1,0,2,0.9,2,2v7.7c0,1.1-0.9,2-2,2H11.7c-1.1,0-2-0.9-2-2v-7.7C9.7,46.4,10.6,45.5,11.7,45.5
	z"/>
<path class="st2" d="M65.1,45.5h13.5c1.1,0,2,0.9,2,2v7.7c0,1.1-0.9,2-2,2H65.1c-1.1,0-2-0.9-2-2v-7.7C63,46.4,63.9,45.5,65.1,45.5z
	"/>
<line class="st1" x1="37.1" y1="46" x2="53.2" y2="46"/>
<line class="st1" x1="37.1" y1="51.6" x2="53.2" y2="51.6"/>
<line class="st1" x1="37.1" y1="57.2" x2="53.2" y2="57.2"/>
<path class="st1" d="M53.8,35.3c0.2-5.1,4.4-9,9.5-8.9c4.8,0.2,8.7,4,8.9,8.9"/>
<path class="st1" d="M7,66.8h11.9l0,0v7.9c0,2.2-1.8,4-4,4H11c-2.2,0-4-1.8-4-4V66.8L7,66.8z"/>
<path class="st1" d="M71.4,66.8h11.9l0,0v7.9c0,2.2-1.8,4-4,4h-3.9c-2.2,0-4-1.8-4-4V66.8L71.4,66.8z"/>
</svg>
