<?xml version="1.0" encoding="utf-8"?>
<!-- Generator: Adobe Illustrator 22.1.0, SVG Export Plug-In . SVG Version: 6.00 Build 0)  -->
<svg version="1.1" id="Layer_1" xmlns="http://www.w3.org/2000/svg" xmlns:xlink="http://www.w3.org/1999/xlink" x="0px" y="0px"
	 viewBox="0 0 90 90" style="enable-background:new 0 0 90 90;" xml:space="preserve">
<style type="text/css">
	.st0{fill:#8C8C8C;}
	.st1{enable-background:new    ;}
</style>
<title>Icons_Navvis</title>
<g>
	<path class="st0" d="M45.6,14.8c-1.1,0-2-0.9-2-2v-9c0-1.1,0.9-2,2-2s2,0.9,2,2v9C47.6,13.9,46.7,14.8,45.6,14.8z"/>
</g>
<g>
	<path class="st0" d="M27.8,22.1c-0.5,0-1-0.2-1.4-0.6L20,15.2c-0.8-0.8-0.8-2,0-2.8c0.8-0.8,2-0.8,2.8,0l6.4,6.4
		c0.8,0.8,0.8,2,0,2.8C28.8,21.9,28.3,22.1,27.8,22.1z"/>
</g>
<g>
	<path class="st0" d="M20.4,39.9h-9c-1.1,0-2-0.9-2-2s0.9-2,2-2h9c1.1,0,2,0.9,2,2S21.5,39.9,20.4,39.9z"/>
</g>
<g>
	<path class="st0" d="M21.4,64.1c-0.5,0-1-0.2-1.4-0.6c-0.8-0.8-0.8-2,0-2.8l6.4-6.4c0.8-0.8,2-0.8,2.8,0c0.8,0.8,0.8,2,0,2.8
		l-6.4,6.4C22.5,63.9,22,64.1,21.4,64.1z"/>
</g>
<g>
	<path class="st0" d="M69.8,64.1c-0.5,0-1-0.2-1.4-0.6L62,57.1c-0.8-0.8-0.8-2,0-2.8s2-0.8,2.8,0l6.4,6.4c0.8,0.8,0.8,2,0,2.8
		C70.8,63.9,70.3,64.1,69.8,64.1z"/>
</g>
<g>
	<path class="st0" d="M79.8,39.9h-9c-1.1,0-2-0.9-2-2s0.9-2,2-2h9c1.1,0,2,0.9,2,2S80.9,39.9,79.8,39.9z"/>
</g>
<g>
	<path class="st0" d="M63.4,22.1c-0.5,0-1-0.2-1.4-0.6c-0.8-0.8-0.8-2,0-2.8l6.4-6.4c0.8-0.8,2-0.8,2.8,0s0.8,2,0,2.8l-6.4,6.4
		C64.4,21.9,63.9,22.1,63.4,22.1z"/>
</g>
<g>
	<path class="st0" d="M45.6,58.2c-11.2,0-20.2-9.1-20.2-20.2c0-11.2,9.1-20.3,20.2-20.3c11.2,0,20.3,9.1,20.3,20.3
		C65.8,49.1,56.8,58.2,45.6,58.2z M45.6,21.7c-9,0-16.2,7.3-16.2,16.3s7.3,16.2,16.2,16.2s16.3-7.3,16.3-16.2S54.6,21.7,45.6,21.7z"
		/>
</g>
<g class="st1">
	<path class="st0" d="M35.5,87.3l-1.4-4.6h-7l-1.4,4.6h-4.4l6.8-19.4h5l6.8,19.4H35.5z M33.1,79.2c-1.3-4.2-2-6.5-2.2-7.1
		s-0.3-1-0.3-1.3c-0.3,1.1-1.1,3.9-2.5,8.3H33.1z"/>
	<path class="st0" d="M46.3,87.3h-4V68h11v3.3h-7v5h6.5v3.3h-6.5V87.3z"/>
	<path class="st0" d="M64.6,87.3h-4.1V71.4h-5.2V68h14.6v3.4h-5.2V87.3z"/>
</g>
</svg>
