<svg id="Layer_1" data-name="Layer 1" xmlns="http://www.w3.org/2000/svg" viewBox="0 0 90 90"><defs><style>.cls-1{fill:#e9d9f9;}.cls-2{fill:none;stroke:#7a329f;stroke-linecap:round;stroke-miterlimit:10;stroke-width:2px;}</style></defs><title>Icons_Navvis</title><path class="cls-1" d="M82.58,51H53.15V61.47c-2.1,11.13-10.28,7.59-10.28,7.59C34.49,65,39,62.43,39,62.43c-9.77,3.36-9.56-5.76-9.56-5.76C22.1,58.1,20.11,53.11,19.6,51H7.34A2.43,2.43,0,0,0,5,54.17l6.44,21a4.83,4.83,0,0,0,4.62,3.43H73.83a4.84,4.84,0,0,0,4.62-3.43l6.44-21A2.43,2.43,0,0,0,82.58,51Z"/><line class="cls-2" x1="53.15" y1="51.21" x2="70.42" y2="51.21"/><path class="cls-2" d="M53.15,61.76A7.95,7.95,0,0,1,37.43,63.4"/><path class="cls-2" d="M40.24,60.36a5.61,5.61,0,0,1-10.85-2,5.25,5.25,0,0,1,.09-1"/><path class="cls-2" d="M19.56,51.21H7.41A2.49,2.49,0,0,0,5,54.44L11.67,76a5,5,0,0,0,4.77,3.51H76A5,5,0,0,0,80.74,76l6.65-21.52A2.5,2.5,0,0,0,85,51.21H75.35"/><path class="cls-2" d="M75.35,51.21V4.57A1.25,1.25,0,0,0,74.1,3.32H69.64a1.27,1.27,0,0,0-1,.45L64.4,8.5"/><path class="cls-2" d="M11.15,40a8.42,8.42,0,0,1,8.41-8.42,7.78,7.78,0,0,1,1.61.16"/><path class="cls-2" d="M16.05,31.84c0-5.3,6.06-9.21,11.58-9.21,6.39,0,11.58,4.3,11.58,9.61"/><path class="cls-2" d="M32.58,36.26A12.55,12.55,0,0,1,53.15,45.9V61.76"/><line class="cls-2" x1="11.15" y1="39.24" x2="11.15" y2="51.05"/><path class="cls-2" d="M35.59,47.7a5.3,5.3,0,0,0,6.9,2.93"/><path class="cls-2" d="M17.85,37.78a3.09,3.09,0,0,0,4,1.7"/><circle class="cls-2" cx="18.62" cy="66.52" r="2.57"/><circle class="cls-2" cx="8.03" cy="20.25" r="5.53"/><circle class="cls-2" cx="33.43" cy="12.52" r="3.93"/><line class="cls-2" x1="29.37" y1="79.47" x2="25.65" y2="86.68"/><line class="cls-2" x1="63.04" y1="79.47" x2="66.77" y2="86.68"/></svg>