<svg id="Layer_1" data-name="Layer 1" xmlns="http://www.w3.org/2000/svg" viewBox="0 0 90 90"><defs><style>.cls-1{fill:#e2daea;}.cls-2{fill:none;stroke:#d8c7ea;stroke-linecap:round;stroke-miterlimit:10;stroke-width:2px;}</style></defs><title>Icons_Navvis</title><path class="cls-1" d="M69.74,76.88a2.07,2.07,0,0,0,1.26-2c-.7-16.15-12.87-29-27.78-29s-27.07,12.86-27.77,29a2.06,2.06,0,0,0,1.26,2L42.5,87.36a1.92,1.92,0,0,0,1.45,0Z"/><ellipse class="cls-1" cx="43.71" cy="20.81" rx="16.23" ry="17.47"/><path class="cls-2" d="M73.21,76.57a2.09,2.09,0,0,0,1.34-2C73.81,57.91,60.86,44.69,45,44.69S16.19,57.91,15.45,74.52a2.09,2.09,0,0,0,1.34,2L44.23,87.35a2.05,2.05,0,0,0,1.54,0Z"/><path class="cls-2" d="M37.34,4.22A17.89,17.89,0,1,1,27.11,20.39a18.12,18.12,0,0,1,.42-3.86"/><path class="cls-2" d="M29.56,11.35a17.84,17.84,0,0,1,2.91-3.73"/></svg>