<?xml version="1.0" encoding="utf-8"?>
<!-- Generator: Adobe Illustrator 22.1.0, SVG Export Plug-In . SVG Version: 6.00 Build 0)  -->
<svg version="1.1" id="Layer_1" xmlns="http://www.w3.org/2000/svg" xmlns:xlink="http://www.w3.org/1999/xlink" x="0px" y="0px"
	 viewBox="0 0 90 90" style="enable-background:new 0 0 90 90;" xml:space="preserve">
<style type="text/css">
	.st0{fill:#E9D9F9;}
	.st1{fill:none;stroke:#7A329F;stroke-width:4;stroke-miterlimit:10;}
	.st2{fill:none;stroke:#7A329F;stroke-width:4;stroke-linecap:round;stroke-miterlimit:10;}
</style>
<g>
	<g>
		<path class="st0" d="M69,79.7c0.8-0.3,1.4-1.1,1.3-2c-0.7-16.4-13.5-29.5-29.2-29.5S12.7,61.3,12,77.7c0,0.9,0.5,1.7,1.3,2
			l27.1,10.6c0.5,0.2,1,0.2,1.5,0L69,79.7z"/>
		<circle class="st0" cx="41.2" cy="24.2" r="18.7"/>
		<path class="st1" d="M74,76.7c0.8-0.3,1.4-1.1,1.3-2c-0.7-16.4-13.5-29.5-29.2-29.5S17.7,58.3,17,74.7c0,0.9,0.5,1.7,1.3,2
			l27.1,10.6c0.5,0.2,1,0.2,1.5,0L74,76.7z"/>
		<line class="st2" x1="45.8" y1="56.3" x2="45.8" y2="76.5"/>
		<line class="st2" x1="35.7" y1="66.4" x2="55.9" y2="66.4"/>
		<circle class="st1" cx="46.2" cy="21.2" r="18.7"/>
	</g>
</g>
</svg>
