<?xml version="1.0" encoding="utf-8"?>
<!-- Generator: Adobe Illustrator 21.1.0, SVG Export Plug-In . SVG Version: 6.00 Build 0)  -->
<svg version="1.1" id="Layer_1" xmlns="http://www.w3.org/2000/svg" xmlns:xlink="http://www.w3.org/1999/xlink" x="0px" y="0px"
	 viewBox="0 0 90 90" style="enable-background:new 0 0 90 90;" xml:space="preserve">
<style type="text/css">
	.st0{fill:#E1F1FB;}
	.st1{fill:none;stroke:#1E3D5C;stroke-width:2;stroke-linecap:round;stroke-miterlimit:10;}
	.st2{fill:none;stroke:#1E3D5C;stroke-width:2;stroke-miterlimit:10;}
</style>
<title>Icons_Navvis</title>
<path class="st0" d="M71.7,10.5h7.2c2.4,0,4.3,1.9,4.3,4.3c0,0,0,0,0,0v9.8c0,1.2-1,2.2-2.2,2.2l0,0H6.6c-1.2,0-2.2-1-2.2-2.2v-9.8
	c0-2.4,1.9-4.3,4.3-4.3h12.6"/>
<path class="st1" d="M73.7,10.1h7.4c2.5,0,4.4,2,4.4,4.4v10c0,1.2-1,2.2-2.2,2.2c0,0,0,0,0,0H6.7c-1.2,0-2.2-1-2.2-2.2c0,0,0,0,0,0
	v-10c0-2.5,2-4.4,4.4-4.4h13"/>
<line class="st1" x1="33.9" y1="10.1" x2="61.7" y2="10.1"/>
<path class="st1" d="M23.9,2.5h2.5c1.1,0,2,0.9,2,2v11.4c0,1.1-0.9,2-2,2h-2.5c-1.1,0-2-0.9-2-2V4.5C21.9,3.4,22.8,2.5,23.9,2.5z"/>
<path class="st1" d="M63.7,2.5h2.5c1.1,0,2,0.9,2,2v11.4c0,1.1-0.9,2-2,2h-2.5c-1.1,0-2-0.9-2-2V4.5C61.7,3.4,62.6,2.5,63.7,2.5z"/>
<path class="st1" d="M9.7,55.8v25.9h58.4c0.6,0,1.2-0.2,1.6-0.7l9.9-9.9c0.4-0.4,0.7-1,0.7-1.6V27.1"/>
<line class="st1" x1="9.7" y1="27.1" x2="9.7" y2="43.8"/>
<line class="st1" x1="9.7" y1="48.2" x2="9.7" y2="51.4"/>
<path class="st1" d="M68.1,81.8v-9.7c0-1.2,1-2.2,2.2-2.2h0h9.9"/>
<polyline class="st1" points="9.7,87.5 80.3,87.5 80.3,76.8 "/>
<path class="st1" d="M27.7,44.6l6.9-4.2c0.2-0.1,0.4-0.1,0.5,0.1c0,0.1,0.1,0.1,0.1,0.2v21.2h5.9"/>
<line class="st1" x1="35.2" y1="61.9" x2="27.4" y2="61.9"/>
<ellipse class="st2" cx="53" cy="51.2" rx="8" ry="10.8"/>
</svg>
