<svg id="Layer_1" data-name="Layer 1" xmlns="http://www.w3.org/2000/svg" viewBox="0 0 90 90"><defs><style>.cls-1{fill:#e9d9f9;}.cls-2,.cls-3{fill:none;stroke:#7a329f;stroke-miterlimit:10;stroke-width:2px;}.cls-2{stroke-linecap:round;}</style></defs><title>Icons_Navvis</title><path class="cls-1" d="M71.71,10.5h7.22a4.32,4.32,0,0,1,4.32,4.33v9.75a2.16,2.16,0,0,1-2.16,2.16H6.59a2.16,2.16,0,0,1-2.16-2.16V14.83A4.33,4.33,0,0,1,8.75,10.5H21.37"/><path class="cls-2" d="M73.69,10.07h7.43a4.45,4.45,0,0,1,4.45,4.45v10a2.22,2.22,0,0,1-2.23,2.22H6.66a2.22,2.22,0,0,1-2.23-2.22v-10a4.45,4.45,0,0,1,4.45-4.45h13"/><line class="cls-2" x1="33.89" y1="10.07" x2="61.67" y2="10.07"/><rect class="cls-2" x="21.87" y="2.5" width="6.46" height="15.35" rx="2" ry="2"/><rect class="cls-2" x="61.67" y="2.5" width="6.46" height="15.35" rx="2" ry="2"/><path class="cls-2" d="M9.72,55.85V81.76H68.14a2.28,2.28,0,0,0,1.58-.65l9.91-9.91a2.23,2.23,0,0,0,.65-1.58V27.13"/><line class="cls-2" x1="9.72" y1="27.12" x2="9.72" y2="43.83"/><line class="cls-2" x1="9.72" y1="48.23" x2="9.72" y2="51.38"/><path class="cls-2" d="M68.14,81.76v-9.7a2.23,2.23,0,0,1,2.23-2.23h9.91"/><polyline class="cls-2" points="9.72 87.5 80.28 87.5 80.28 76.76"/><path class="cls-2" d="M27.73,44.58l6.93-4.17a.38.38,0,0,1,.58.33v21.2h5.93"/><line class="cls-2" x1="35.24" y1="61.94" x2="27.44" y2="61.94"/><ellipse class="cls-3" cx="53.03" cy="51.15" rx="7.98" ry="10.79"/></svg>