<svg id="Layer_1" data-name="Layer 1" xmlns="http://www.w3.org/2000/svg" viewBox="0 0 90 90"><defs><style>.cls-1{fill:#e9d9f9;}.cls-2{fill:none;stroke:#7a329f;stroke-linecap:round;stroke-miterlimit:10;stroke-width:4px;}</style></defs><title>Icons_Navvis</title><path class="cls-1" d="M1.72,22.71a59.67,59.67,0,0,0,9.35,24.08,124.55,124.55,0,0,0,13,16S48.3,88.91,68.12,88.69a11.31,11.31,0,0,0,7.94-3.31l6.77-6.77a4.45,4.45,0,0,0-.4-6.26L68.16,58.08a4.46,4.46,0,0,0-6.26-.41l-4.37,4.38c-1.17,1.17-3-2.56-4.7-3.33C46.72,55.94,33.43,48,27.29,32.05c-.62-1.6-1.28.7-.19-.39l4.39-4.39a4.45,4.45,0,0,0-.4-6.26L17.34,7.26a4.46,4.46,0,0,0-6.26-.41l-1,1L4.8,13.14a11.26,11.26,0,0,0-2.91,5.05,11,11,0,0,0-.17,4.52Z"/><path class="cls-2" d="M7,11a13.9,13.9,0,0,0-4.09,8.8"/><path class="cls-2" d="M3.68,29.19c1.89,8.2,7.24,19.52,20.42,33.63,0,0,24.12,26.22,45.33,24.61a13.83,13.83,0,0,0,8.71-4.09l7.71-7.71a4.71,4.71,0,0,0,0-6.66L71.59,54.7a4.72,4.72,0,0,0-6.67,0l-5,5a4.68,4.68,0,0,1-5.07,1c-6.34-2.54-21-10.07-26.52-26.63a4.74,4.74,0,0,1,1.16-4.8l5-5a4.71,4.71,0,0,0,0-6.66L20.76,3.88a4.71,4.71,0,0,0-6.66,0L12.92,5.06"/></svg>