<svg id="Layer_1" data-name="Layer 1" xmlns="http://www.w3.org/2000/svg" viewBox="0 0 90 90"><defs><style>.cls-1{fill:none;stroke:#000;stroke-linecap:round;stroke-miterlimit:10;stroke-width:4px;}</style></defs><title>Icons_Navvis</title><path class="cls-1" d="M6.9,11a14,14,0,0,0-4.09,8.8"/><path class="cls-1" d="M3.64,29.19c1.88,8.2,7.23,19.52,20.41,33.63,0,0,24.13,26.22,45.33,24.61a13.88,13.88,0,0,0,8.72-4.09l7.71-7.71a4.71,4.71,0,0,0,0-6.66L71.54,54.7a4.71,4.71,0,0,0-6.66,0l-5,5a4.69,4.69,0,0,1-5.08,1c-6.33-2.54-21-10.07-26.51-26.63a4.7,4.7,0,0,1,1.16-4.8l5-5a4.71,4.71,0,0,0,0-6.66L20.72,3.88a4.71,4.71,0,0,0-6.66,0L12.88,5.06"/></svg>