<?xml version="1.0" encoding="utf-8"?>
<!-- Generator: Adobe Illustrator 22.1.0, SVG Export Plug-In . SVG Version: 6.00 Build 0)  -->
<svg version="1.1" id="Layer_1" xmlns="http://www.w3.org/2000/svg" xmlns:xlink="http://www.w3.org/1999/xlink" x="0px" y="0px"
	 viewBox="0 0 90 90" style="enable-background:new 0 0 90 90;" xml:space="preserve">
<style type="text/css">
	.st0{fill:#3C1053;}
</style>
<g>
	<g>
		<path class="st0" d="M71.7,21.2L53.9,3.4C53.6,3.2,53.2,3,52.8,3H26.2c-5.7,0-10.4,4.7-10.4,10.4v62.2c0,5.7,4.7,10.4,10.4,10.4
			h17.8c0.8,0,1.5-0.7,1.5-1.5c0-0.8-0.7-1.5-1.5-1.5H26.2c-4.1,0-7.4-3.3-7.4-7.4V13.4c0-4.1,3.3-7.4,7.4-7.4h26.1l16.9,16.9v34.9
			c0,0.8,0.7,1.5,1.5,1.5c0.8,0,1.5-0.7,1.5-1.5V22.3C72.1,21.9,72,21.5,71.7,21.2z"/>
	</g>
</g>
<g>
	<g>
		<path class="st0" d="M70.6,20.8h-8.9c-4.1,0-7.4-3.3-7.4-7.4V4.5c0-0.8-0.7-1.5-1.5-1.5c-0.8,0-1.5,0.7-1.5,1.5v8.9
			c0,5.7,4.7,10.4,10.4,10.4h8.9c0.8,0,1.5-0.7,1.5-1.5C72.1,21.4,71.4,20.8,70.6,20.8z"/>
	</g>
</g>
<g>
	<g>
		<path class="st0" d="M62.2,47.3h-36c-0.8,0-1.5,0.7-1.5,1.5c0,0.8,0.7,1.5,1.5,1.5h36c0.8,0,1.5-0.7,1.5-1.5
			C63.7,47.9,63,47.3,62.2,47.3z"/>
	</g>
</g>
<g>
	<g>
		<path class="st0" d="M62.2,38.6h-36c-0.8,0-1.5,0.7-1.5,1.5c0,0.8,0.7,1.5,1.5,1.5h36c0.8,0,1.5-0.7,1.5-1.5
			C63.7,39.2,63,38.6,62.2,38.6z"/>
	</g>
</g>
<g>
	<g>
		<path class="st0" d="M62.2,29.7h-36c-0.8,0-1.5,0.7-1.5,1.5s0.7,1.5,1.5,1.5h36c0.8,0,1.5-0.7,1.5-1.5S63,29.7,62.2,29.7z"/>
	</g>
</g>
<g>
	<g>
		<path class="st0" d="M43.9,11.9H26.2c-0.8,0-1.5,0.7-1.5,1.5s0.7,1.5,1.5,1.5h17.8c0.8,0,1.5-0.7,1.5-1.5
			C45.4,12.6,44.8,11.9,43.9,11.9z"/>
	</g>
</g>
<g>
	<path class="st0" d="M28,72.8c-1-0.6-1.8-1.4-2.4-2.5c-0.6-1.1-0.8-2.4-0.8-3.8c0-1.5,0.3-2.7,0.8-3.8c0.6-1.1,1.3-1.9,2.4-2.5
		c1-0.6,2.2-0.9,3.6-0.9c1.7,0,3.2,0.5,4.5,1.4c0.2,0.2,0.3,0.3,0.4,0.5c0.1,0.2,0.1,0.4,0.1,0.6c0,0.3-0.1,0.6-0.3,0.9
		c-0.2,0.2-0.4,0.4-0.7,0.4c-0.2,0-0.3,0-0.5-0.1c-0.1,0-0.3-0.1-0.5-0.2c-0.5-0.3-1-0.6-1.5-0.7c-0.4-0.2-0.9-0.2-1.4-0.2
		c-1.3,0-2.2,0.4-2.9,1.2c-0.6,0.8-1,2-1,3.5c0,3.1,1.3,4.7,3.8,4.7c0.5,0,1-0.1,1.4-0.2c0.4-0.2,0.9-0.4,1.5-0.7
		c0.2-0.1,0.4-0.2,0.5-0.2c0.1,0,0.3-0.1,0.5-0.1c0.3,0,0.5,0.1,0.7,0.4c0.2,0.2,0.3,0.5,0.3,0.9c0,0.2,0,0.4-0.1,0.6
		c-0.1,0.2-0.2,0.3-0.4,0.5c-1.3,1-2.8,1.4-4.5,1.4C30.2,73.6,29,73.3,28,72.8z"/>
	<path class="st0" d="M40.5,73.3c-0.9-0.2-1.6-0.6-2.2-1c-0.2-0.1-0.3-0.3-0.4-0.5c-0.1-0.2-0.1-0.4-0.1-0.6c0-0.3,0.1-0.6,0.3-0.9
		s0.4-0.4,0.7-0.4c0.1,0,0.3,0,0.4,0.1c0.1,0,0.3,0.1,0.5,0.2c0.6,0.4,1.1,0.6,1.7,0.8c0.6,0.2,1.2,0.2,1.9,0.2c0.9,0,1.5-0.1,2-0.4
		s0.7-0.7,0.7-1.3c0-0.4-0.2-0.7-0.6-1c-0.4-0.3-1.2-0.5-2.3-0.7c-1.2-0.3-2.2-0.6-2.9-0.9s-1.3-0.8-1.6-1.3
		c-0.3-0.5-0.5-1.2-0.5-1.9c0-0.8,0.2-1.6,0.7-2.3c0.5-0.7,1.2-1.2,2-1.6s1.8-0.6,2.9-0.6c1.9,0,3.4,0.5,4.6,1.4
		c0.2,0.2,0.3,0.3,0.4,0.5c0.1,0.2,0.1,0.4,0.1,0.6c0,0.3-0.1,0.6-0.3,0.9S48.1,63,47.8,63c-0.1,0-0.3,0-0.4-0.1
		c-0.1,0-0.3-0.1-0.5-0.3c-0.5-0.3-1-0.6-1.5-0.8c-0.5-0.2-1-0.3-1.7-0.3c-0.8,0-1.4,0.2-1.9,0.5c-0.5,0.3-0.7,0.7-0.7,1.3
		c0,0.3,0.1,0.6,0.3,0.8c0.2,0.2,0.5,0.4,0.9,0.5c0.4,0.2,1,0.3,1.8,0.5c1.8,0.4,3.1,0.9,3.9,1.5c0.8,0.6,1.2,1.5,1.2,2.6
		c0,0.8-0.2,1.6-0.7,2.2c-0.5,0.6-1.1,1.2-2,1.5c-0.9,0.4-1.8,0.5-3,0.5C42.3,73.6,41.4,73.5,40.5,73.3z"/>
	<path class="st0" d="M61.6,59.6c0.2-0.1,0.5-0.2,0.8-0.2c0.4,0,0.8,0.1,1.1,0.4s0.5,0.6,0.5,1c0,0.2,0,0.4-0.1,0.6l-5.4,11.3
		c-0.1,0.3-0.4,0.5-0.7,0.7s-0.6,0.2-1,0.2s-0.7-0.1-1-0.2s-0.5-0.4-0.7-0.7l-5.4-11.3c-0.1-0.2-0.1-0.4-0.1-0.6
		c0-0.4,0.2-0.7,0.5-1c0.3-0.3,0.7-0.4,1.1-0.4c0.3,0,0.5,0.1,0.8,0.2s0.4,0.3,0.5,0.6l4.2,9.3l4.2-9.3
		C61.2,59.9,61.4,59.7,61.6,59.6z"/>
</g>
</svg>
