<svg id="Layer_1" data-name="Layer 1" xmlns="http://www.w3.org/2000/svg" viewBox="0 0 90 90"><defs><style>.cls-1,.cls-2{fill:none;stroke:#7A329F;stroke-miterlimit:10;stroke-width:4px;}.cls-2{stroke-linecap:round;}</style></defs><title>Delete</title><path class="cls-1" d="M64.59,87.5H25.41a4.57,4.57,0,0,1-4.56-4.22l-5.2-67.07a2.29,2.29,0,0,1,2.28-2.47H72.07a2.29,2.29,0,0,1,2.28,2.47l-5.2,67.07A4.57,4.57,0,0,1,64.59,87.5Z"/><line class="cls-2" x1="6.79" y1="13.74" x2="83.21" y2="13.74"/><path class="cls-1" d="M24.14,12.51V4.79A2.28,2.28,0,0,1,26.42,2.5H63a2.28,2.28,0,0,1,2.29,2.29v7.72"/><line class="cls-2" x1="44.98" y1="33.61" x2="44.98" y2="73.21"/><line class="cls-2" x1="31.71" y1="33.69" x2="35.16" y2="73.13"/><line class="cls-2" x1="58.29" y1="33.69" x2="54.84" y2="73.13"/></svg>