<?xml version="1.0" encoding="utf-8"?>
<!-- Generator: Adobe Illustrator 22.1.0, SVG Export Plug-In . SVG Version: 6.00 Build 0)  -->
<svg version="1.1" id="Layer_1" xmlns="http://www.w3.org/2000/svg" xmlns:xlink="http://www.w3.org/1999/xlink" x="0px" y="0px"
	 width="90px" height="90px" viewBox="0 0 90 90" style="enable-background:new 0 0 90 90;" xml:space="preserve">
<style type="text/css">
	.st0{fill:#7A329F;}
</style>
<g>
	<path class="st0" d="M61.3,8.6L31.2,38.8c-0.2,0.2-0.4,0.5-0.5,0.9l-2.6,10c-0.2,0.7,0,1.3,0.5,1.8C29,51.8,29.5,52,30,52
		c0.2,0,0.3,0,0.5-0.1l10-2.6c0.3-0.1,0.6-0.3,0.9-0.5l30.1-30.1c0,0,0,0,0,0c0,0,0,0,0,0l6.1-6.1c0.7-0.7,0.7-1.9,0-2.7l-7.4-7.4
		C69.7,2.2,69.2,2,68.7,2c-0.5,0-1,0.2-1.3,0.6L61.3,8.6C61.3,8.6,61.3,8.6,61.3,8.6C61.3,8.6,61.3,8.6,61.3,8.6z M38.9,45.8
		l-6.3,1.6l1.6-6.3l28.4-28.4l4.7,4.7L38.9,45.8z M68.7,6.6l4.7,4.7L70,14.7L65.4,10L68.7,6.6z"/>
	<path class="st0" d="M76.1,22.6c-1,0-1.9,0.9-1.9,1.9v61H14.6V12.9h35.1c1,0,1.9-0.9,1.9-1.9s-0.9-1.9-1.9-1.9h-37
		c-1,0-1.9,0.9-1.9,1.9v76.4c0,1,0.9,1.9,1.9,1.9h63.4c1,0,1.9-0.9,1.9-1.9V24.5C78,23.5,77.1,22.6,76.1,22.6z"/>
</g>
</svg>
