<?xml version="1.0" encoding="utf-8"?>
<!-- Generator: Adobe Illustrator 22.1.0, SVG Export Plug-In . SVG Version: 6.00 Build 0)  -->
<svg version="1.1" id="Layer_1" xmlns="http://www.w3.org/2000/svg" xmlns:xlink="http://www.w3.org/1999/xlink" x="0px" y="0px"
	 viewBox="0 0 90 90" style="enable-background:new 0 0 90 90;" xml:space="preserve">
<style type="text/css">
	.st0{fill:#ffffff;}
</style>
<g>
	<path class="st0" d="M87.3,17.8L72.2,2.7c-3-3-7.8-3-10.7,0L44.7,19.5c0,0,0,0,0,0L7.4,56.8c-0.3,0.3-0.5,0.7-0.6,1
		c-0.1,0.1-0.1,0.3-0.2,0.4L0.6,85.4l0,0.1c-0.2,1.1,0.2,2.2,1,2.9c0.6,0.6,1.5,1,2.4,1c0.2,0,0.4,0,0.5,0l27.3-6.1
		c0.2,0,0.3-0.1,0.4-0.2c0.4-0.1,0.7-0.3,1-0.6l54.1-54.1C90.2,25.6,90.2,20.8,87.3,17.8z M10.1,61.1l18.7,18.7L4.7,85.3L10.1,61.1z
		 M84.5,25.7l-52,52L12.2,57.6l33.9-33.9l0,0L64.3,5.5c1.4-1.4,3.7-1.4,5.1,0l15.1,15.1C85.8,22.1,85.8,24.3,84.5,25.7z"/>
</g>
</svg>
