<?xml version="1.0" encoding="utf-8"?>
<!-- Generator: Adobe Illustrator 22.1.0, SVG Export Plug-In . SVG Version: 6.00 Build 0)  -->
<svg version="1.1" id="Layer_1" xmlns="http://www.w3.org/2000/svg" xmlns:xlink="http://www.w3.org/1999/xlink" x="0px" y="0px"
	 viewBox="0 0 299.7 299.7" style="enable-background:new 0 0 299.7 299.7;" xml:space="preserve">
<style type="text/css">
	.st0{fill:#FFFFFF;}
</style>
<g>
	<g>
		<g>
			<path class="st0" d="M293.1,248.8h-14.7v-21.1v-96.2h14.7c6.3,0,9-8.1,4-11.9L153.8,11.3c-2.4-1.8-5.6-1.8-8,0L2.6,119.6
				c-5,3.8-2.3,11.9,4,11.9h14.7v96.2v21.1H6.6c-3.6,0-6.6,3-6.6,6.6v27.7c0,3.6,3,6.6,6.6,6.6h286.5c3.6,0,6.6-3,6.6-6.6v-27.7
				C299.7,251.8,296.7,248.8,293.1,248.8z M149.8,24.8l123.6,93.5c-7.5,0-225.6,0-247.1,0L149.8,24.8z M265.2,234.3v14.5H34.5v-14.5
				C45.1,234.3,255.9,234.3,265.2,234.3z M34.5,221.1v-89.6h29.3v89.6H34.5z M77,221.1v-89.6h45v89.6H77z M135.2,221.1v-89.6h29.3
				v89.6H135.2z M177.7,221.1v-89.6h45v89.6H177.7z M235.9,221.1v-89.6h29.3v89.6H235.9z M13.2,276.5V262c10.5,0,264.3,0,273.3,0
				v14.5H13.2z"/>
			<path class="st0" d="M149.8,61c-11.2,0-20.2,9.1-20.2,20.2c0,11.2,9.1,20.2,20.2,20.2c11.2,0,20.2-9.1,20.2-20.2
				C170.1,70,161,61,149.8,61z M149.8,88.2c-3.9,0-7-3.2-7-7c0-3.9,3.2-7,7-7c3.9,0,7,3.2,7,7C156.9,85.1,153.7,88.2,149.8,88.2z"/>
		</g>
	</g>
</g>
</svg>
