<?xml version="1.0" encoding="utf-8"?>
<!-- Generator: Adobe Illustrator 22.1.0, SVG Export Plug-In . SVG Version: 6.00 Build 0)  -->
<svg version="1.1" id="Layer_1" xmlns="http://www.w3.org/2000/svg" xmlns:xlink="http://www.w3.org/1999/xlink" x="0px" y="0px"
	 viewBox="0 0 90 90" style="enable-background:new 0 0 90 90;" xml:space="preserve">
<style type="text/css">
	.st0{fill:#E9D9F9;}
	.st1{fill:none;stroke:#7A329F;stroke-width:2;stroke-linecap:round;stroke-miterlimit:10;}
	.st2{fill:#7A329F;}
	.st3{font-family:'MyriadPro-Regular';}
	.st4{font-size:48px;}
</style>
<g>
	<path class="st0" d="M25.7,9.1C30.6,7.5,36,6.6,41.6,6.6c23.5,0,42.5,15.6,42.5,34.8S65,77,41.6,76.1c-3.8-0.1-7.5-0.7-12.2-1.8
		c-0.7-0.2-1.4,0-2,0.4L12.6,85.2c-0.8,0.6-2-0.1-1.9-1.1L12.3,68c0.1-0.8-0.3-1.6-0.9-2.1C3.8,59.6-0.9,50.9-0.9,41.4
		c0-7.3,3-14.2,7.1-19.3"/>
</g>
<g>
	<path class="st1" d="M29.1,8.1C34,6.5,39.4,5.6,45,5.6c23.5,0,42.5,15.6,42.5,34.8S68.5,76,45,75.1c-3.8-0.1-7.5-0.7-12.2-1.8
		c-0.7-0.2-1.4,0-2,0.4L16,84.2c-0.8,0.6-2-0.1-1.9-1.1L15.7,67c0.1-0.8-0.3-1.6-0.9-2.1C7.2,58.6,2.5,49.9,2.5,40.4
		c0-7.3,3-14.2,7.1-19.3"/>
	<path class="st1" d="M14.8,15.9c1.8-1.5,3.7-2.8,5.8-4"/>
	<text transform="matrix(1 0 0 1 39.1667 55.9167)" class="st2 st3 st4">!</text>
</g>
</svg>
