<?xml version="1.0" encoding="utf-8"?>
<!-- Generator: Adobe Illustrator 22.1.0, SVG Export Plug-In . SVG Version: 6.00 Build 0)  -->
<svg version="1.1" id="Capa_1" xmlns="http://www.w3.org/2000/svg" xmlns:xlink="http://www.w3.org/1999/xlink" x="0px" y="0px"
	 viewBox="0 0 139 139" style="enable-background:new 0 0 139 139;" xml:space="preserve">
<style type="text/css">
	.st0{fill:#FFFFFF;}
</style>
<g>
	<path class="st0" d="M89.2,52.5c-0.7,0-1.3-0.3-1.9-0.8c-1-1-1-2.7,0-3.7l47.2-47.2c1-1,2.7-1,3.7,0c1,1,1,2.7,0,3.7L91,51.7
		C90.5,52.2,89.8,52.5,89.2,52.5z"/>
	<path class="st0" d="M2.6,139c-0.7,0-1.3-0.3-1.9-0.8c-1-1-1-2.7,0-3.7L48,87.3c1-1,2.7-1,3.7,0c1,1,1,2.7,0,3.7L4.5,138.2
		C4,138.7,3.3,139,2.6,139z"/>
	<path class="st0" d="M136.4,139c-0.7,0-1.3-0.3-1.9-0.8L87.3,91c-1-1-1-2.7,0-3.7c1-1,2.7-1,3.7,0l47.2,47.2c1,1,1,2.7,0,3.7
		C137.7,138.7,137,139,136.4,139z"/>
	<path class="st0" d="M49.8,52.5c-0.7,0-1.3-0.3-1.9-0.8L0.8,4.5c-1-1-1-2.7,0-3.7s2.7-1,3.7,0L51.7,48c1,1,1,2.7,0,3.7
		C51.2,52.2,50.5,52.5,49.8,52.5z"/>
	<path class="st0" d="M34.1,5.2H2.6C1.2,5.2,0,4.1,0,2.6S1.2,0,2.6,0h31.5c1.4,0,2.6,1.2,2.6,2.6S35.5,5.2,34.1,5.2z"/>
	<path class="st0" d="M2.6,36.7c-1.4,0-2.6-1.2-2.6-2.6V2.6C0,1.2,1.2,0,2.6,0s2.6,1.2,2.6,2.6v31.5C5.2,35.5,4.1,36.7,2.6,36.7z"/>
	<path class="st0" d="M136.4,139h-31.5c-1.4,0-2.6-1.2-2.6-2.6s1.2-2.6,2.6-2.6h31.5c1.4,0,2.6,1.2,2.6,2.6S137.8,139,136.4,139z"/>
	<path class="st0" d="M136.4,139c-1.4,0-2.6-1.2-2.6-2.6v-31.5c0-1.4,1.2-2.6,2.6-2.6c1.4,0,2.6,1.2,2.6,2.6v31.5
		C139,137.8,137.8,139,136.4,139z"/>
	<path class="st0" d="M2.6,139c-1.4,0-2.6-1.2-2.6-2.6v-31.5c0-1.4,1.2-2.6,2.6-2.6s2.6,1.2,2.6,2.6v31.5C5.2,137.8,4.1,139,2.6,139
		z"/>
	<path class="st0" d="M34.1,139H2.6c-1.4,0-2.6-1.2-2.6-2.6s1.2-2.6,2.6-2.6h31.5c1.4,0,2.6,1.2,2.6,2.6S35.5,139,34.1,139z"/>
	<path class="st0" d="M136.4,36.7c-1.4,0-2.6-1.2-2.6-2.6V2.6c0-1.4,1.2-2.6,2.6-2.6c1.4,0,2.6,1.2,2.6,2.6v31.5
		C139,35.5,137.8,36.7,136.4,36.7z"/>
	<path class="st0" d="M136.4,5.2h-31.5c-1.4,0-2.6-1.2-2.6-2.6s1.2-2.6,2.6-2.6h31.5c1.4,0,2.6,1.2,2.6,2.6S137.8,5.2,136.4,5.2z"/>
	<path class="st0" d="M136.4,5.2h-31.5c-1.4,0-2.6-1.2-2.6-2.6s1.2-2.6,2.6-2.6h31.5c1.4,0,2.6,1.2,2.6,2.6S137.8,5.2,136.4,5.2z"/>
</g>
</svg>
