<svg id="Layer_1" data-name="Layer 1" xmlns="http://www.w3.org/2000/svg" viewBox="0 0 90 90"><defs><style>.cls-1{fill:none;stroke:#000;stroke-miterlimit:10;stroke-width:2px;}</style></defs><title>Icons_Navvis</title><path d="M45,4.15A17.06,17.06,0,1,1,27.94,21.21h0A17.08,17.08,0,0,1,45,4.15M45,2.5A18.71,18.71,0,1,0,63.71,21.21h0A18.71,18.71,0,0,0,45,2.5Z"/><path class="cls-1" d="M72.86,76.71a2.09,2.09,0,0,0,1.33-2C73.45,58.27,60.67,45.21,45,45.21S16.55,58.28,15.81,74.68a2.09,2.09,0,0,0,1.33,2l27.1,10.65a2.1,2.1,0,0,0,1.52,0Z"/><path class="cls-1" d="M36.92,58.76c1.69-.09,5.28-.61,7.53-3.37a.65.65,0,0,1,.93-.08l.08.08a10.21,10.21,0,0,0,7.63,3.36,1,1,0,0,1,.94,1V69.86a3.48,3.48,0,0,1-.53,1.83c-.84,1.32-2.94,3.62-8.07,5.78a1.21,1.21,0,0,1-1,0c-1.82-.82-8.19-3.91-8.5-6.9,0-.08,0-.15,0-.22V59.76A1,1,0,0,1,36.92,58.76Z"/></svg>