<svg id="Layer_1" data-name="Layer 1" xmlns="http://www.w3.org/2000/svg" viewBox="0 0 90 90"><defs><style>.cls-1,.cls-2{fill:none;stroke:#000;stroke-miterlimit:10;stroke-width:4px;}.cls-1{stroke-linecap:round;}</style></defs><title>Icons_Navvis</title><path class="cls-1" d="M32.12,5A34.22,34.22,0,0,1,79.25,36.75"/><path class="cls-1" d="M20.48,12.84a33.92,33.92,0,0,1,5.1-4.31"/><path class="cls-1" d="M10.75,36.75C10.75,29.1,12.22,24,16,18.47"/><line class="cls-2" x1="10.71" y1="36.75" x2="10.71" y2="52.03"/><line class="cls-2" x1="79.29" y1="36.75" x2="79.29" y2="55.81"/><path class="cls-2" d="M14.71,41.75h8.68a2,2,0,0,1,2,2V65.06a2,2,0,0,1-2,2H14.71a4,4,0,0,1-4-4V45.75a4,4,0,0,1,4-4Z"/><path class="cls-2" d="M68.61,41.75h8.68a2,2,0,0,1,2,2V65.06a2,2,0,0,1-2,2H68.61a4,4,0,0,1-4-4V45.75a4,4,0,0,1,4-4Z" transform="translate(143.9 108.81) rotate(-180)"/><path class="cls-2" d="M79.25,56.94v14.9A11.37,11.37,0,0,1,67.89,83.2H53.51"/><path class="cls-2" d="M42.61,78.7h8.9a2,2,0,0,1,2,2v4.8a2,2,0,0,1-2,2H42.36a3.75,3.75,0,0,1-3.75-3.75v-1a4,4,0,0,1,4-4Z"/></svg>