<svg id="Layer_1" data-name="Layer 1" xmlns="http://www.w3.org/2000/svg" viewBox="0 0 88.67 75.26">
  <defs>
    <style>
      .cls-1 {
        fill: #7a329f;
      }
    </style>
  </defs>
  <title>favourite_selected</title>
  <path class="cls-1" d="M70.33,8.6c-.16,0-15.17-5.14-25.33,6C39.63,8.71,32,6.46,22.38,7.91a26.46,26.46,0,0,0-6.93,2.51,26.31,26.31,0,0,0-8.92,7.49,27.89,27.89,0,0,0-4.33,8.4A29.87,29.87,0,0,0,.67,35.72C1.45,61.29,42.38,81.6,44.12,82.45a1.55,1.55,0,0,0,.23.08l.15,0a1.73,1.73,0,0,0,.5.07h0a1.73,1.73,0,0,0,.5-.07l.15,0a1.55,1.55,0,0,0,.23-.08c1.74-.85,42.67-21.16,43.45-46.72C89.34,35.52,89.82,15.34,70.33,8.6Z" transform="translate(-0.67 -7.39)"/>
</svg>
