<svg id="Layer_1" data-name="Layer 1" xmlns="http://www.w3.org/2000/svg" viewBox="0 0 90 90"><defs><style>.cls-1{fill:#e9d9f9;}.cls-2{fill:none;stroke:#7a329f;stroke-linecap:round;stroke-miterlimit:10;stroke-width:4px;}</style></defs><title>Icons_Navvis</title><path class="cls-1" d="M45.17,80.65s34.66-20.33,35.29-45c0,0,.55-18.84-14.73-25.17,0,0-12.78-5.39-20.56,7.22"/><path class="cls-1" d="M45.17,80.65S3.58,60.32,2.83,35.66c0,0-.66-18.84,17.67-25.17,0,0,15.33-5.39,24.67,7.22"/><path class="cls-2" d="M22.68,9.88C27.33,8.94,37.9,8.12,45,17.71"/><path class="cls-2" d="M8.11,19.13a24.46,24.46,0,0,1,8.27-6.94"/><path class="cls-2" d="M45,80.65S3.42,60.32,2.67,35.66a28.1,28.1,0,0,1,1.45-8.79"/><path class="cls-2" d="M45.33,80.65s41.58-20.33,42.33-45c0,0,.67-18.84-17.66-25.17,0,0-15.34-5.39-24.67,7.22"/></svg>