<svg width="90" height="90" xmlns="http://www.w3.org/2000/svg">

 <title>Icons_Navvis</title>
 <g>
  <title>background</title>
  <rect fill="none" id="canvas_background" height="402" width="582" y="-1" x="-1"/>
 </g>
 <g>
  <title>Layer 1</title>
  <path fill="#7a329e" id="svg_1" d="m45.17,80.65s34.66,-20.33 35.29,-45c0,0 0.55,-18.84 -14.73,-25.17c0,0 -12.78,-5.39 -20.56,7.22" class="cls-1"/>
  <path fill="#7a329e" id="svg_2" d="m45.17,80.65s-41.59,-20.33 -42.34,-44.99c0,0 -0.66,-18.84 17.67,-25.17c0,0 15.33,-5.39 24.67,7.22" class="cls-1"/>
  <path stroke-width="4px" stroke-miterlimit="10" stroke-linecap="round" stroke="#7a329f" fill="none" id="svg_3" d="m22.68,9.88c4.65,-0.94 15.22,-1.76 22.32,7.83" class="cls-2"/>
  <path stroke-width="4px" stroke-miterlimit="10" stroke-linecap="round" stroke="#7a329f" fill="none" id="svg_4" d="m8.11,19.13a24.46,24.46 0 0 1 8.27,-6.94" class="cls-2"/>
  <path stroke-width="4px" stroke-miterlimit="10" stroke-linecap="round" stroke="#7a329f" fill="none" id="svg_5" d="m45,80.65s-41.58,-20.33 -42.33,-44.99a28.1,28.1 0 0 1 1.45,-8.79" class="cls-2"/>
  <path stroke-width="4px" stroke-miterlimit="10" stroke-linecap="round" stroke="#7a329f" fill="none" id="svg_6" d="m45.33,80.65s41.58,-20.33 42.33,-45c0,0 0.67,-18.84 -17.66,-25.17c0,0 -15.34,-5.39 -24.67,7.22" class="cls-2"/>
 </g>
</svg>