<svg id="Layer_1" data-name="Layer 1" xmlns="http://www.w3.org/2000/svg" viewBox="0 0 90 90"><defs><style>.cls-1{fill:none;stroke:#000;stroke-linecap:round;stroke-miterlimit:10;stroke-width:4px;}</style></defs><title>Icons_Navvis</title><path class="cls-1" d="M29.65,6A36.89,36.89,0,0,1,45,2.5,35.1,35.1,0,0,1,60.35,6c16.48,8,21.44,30.5,10.83,45.46L46,87a1.24,1.24,0,0,1-2,0L18.82,51.48a31.83,31.83,0,0,1-3.15-30.32,65.81,65.81,0,0,1,3.58-6.4,32.64,32.64,0,0,1,5.16-5.42A33.66,33.66,0,0,1,29.65,6Z"/><circle class="cls-1" cx="45" cy="32.83" r="11.67"/><path d="M60.35,6A35.1,35.1,0,0,0,45,2.5,36.89,36.89,0,0,0,29.65,6a33.66,33.66,0,0,0-5.24,3.32,32.64,32.64,0,0,0-5.16,5.42,65.81,65.81,0,0,0-3.58,6.4,31.83,31.83,0,0,0,3.15,30.32L44,87a1.24,1.24,0,0,0,2,0L71.18,51.48C81.79,36.52,76.83,14.05,60.35,6ZM45,44.5A11.67,11.67,0,1,1,56.67,32.83,11.67,11.67,0,0,1,45,44.5Z"/><path class="cls-1" d="M13.82,27.38h0"/><line class="cls-1" x1="34.58" y1="4.08" x2="34.58" y2="4.08"/></svg>