<svg id="Layer_1" data-name="Layer 1" xmlns="http://www.w3.org/2000/svg" viewBox="0 0 90 90"><defs><style>.cls-1{fill:#e9d9f9;}.cls-2{fill:none;stroke:#7a329f;stroke-linecap:round;stroke-miterlimit:10;stroke-width:2px;}</style></defs><title>Icons_Navvis</title><circle class="cls-1" cx="45.49" cy="42.97" r="28.53"/><circle class="cls-2" cx="45" cy="45" r="42.5"/><path class="cls-2" d="M37.75,70,36.16,40.92a2.18,2.18,0,0,1,.65-1.66l4.09-4a2.15,2.15,0,0,0,.65-1.55V19.81"/><path class="cls-2" d="M25.72,19.81V33.67a2.2,2.2,0,0,0,.63,1.53l4,4A2.15,2.15,0,0,1,31,40.86L29.51,70"/><path class="cls-2" d="M37.77,70.25a4.13,4.13,0,0,1-8.26,0"/><line class="cls-2" x1="60.75" y1="70.03" x2="59.17" y2="40.92"/><line class="cls-2" x1="54.01" y1="40.86" x2="52.51" y2="70.03"/><path class="cls-2" d="M60.76,70.25a4.13,4.13,0,1,1-8.26,0"/><line class="cls-2" x1="36.11" y1="19.81" x2="36.11" y2="31.17"/><line class="cls-2" x1="31" y1="19.81" x2="31" y2="31.17"/><path class="cls-2" d="M54,40.3c-3.57-1.47-6.16-5.86-6.16-11"/><path class="cls-2" d="M65.4,29.25c0,5.19-2.59,9.58-6.16,11"/><path class="cls-2" d="M47.86,29.25c0-6.4,5.78-11.58,8.77-11.58s8.77,5.18,8.77,11.58"/><path class="cls-2" d="M23.88,64.9A28.38,28.38,0,0,1,19.57,30"/><path class="cls-2" d="M47.5,73.93a9.76,9.76,0,0,1-5.31-.1"/><path class="cls-2" d="M71.38,30.58a31,31,0,0,1,3.16,12.67,29.3,29.3,0,0,1-7.38,21"/><path class="cls-2" d="M42.3,15.83a19.79,19.79,0,0,1,5.75,0"/></svg>