<svg id="Layer_1" data-name="Layer 1" xmlns="http://www.w3.org/2000/svg" viewBox="0 0 90 90"><defs><style>.cls-1{fill:#e9d9f9;}.cls-2{fill:none;stroke:#7a329f;stroke-linecap:round;stroke-miterlimit:10;stroke-width:2px;}</style></defs><title>Icons_Navvis</title><polyline class="cls-1" points="61.61 71.5 28.71 71.5 28.71 47.43 72.78 47.43 72.78 59.78"/><path class="cls-2" d="M18.8,48.37v18a1.4,1.4,0,0,1-1.4,1.39H3.9a1.4,1.4,0,0,1-1.4-1.39V29a1.4,1.4,0,0,1,1.4-1.4H17.4A1.4,1.4,0,0,1,18.8,29v3.32"/><line class="cls-2" x1="10.65" y1="81.84" x2="10.65" y2="67.73"/><line class="cls-2" x1="2.5" y1="81.84" x2="18.8" y2="81.84"/><path class="cls-2" d="M6.76,21.53h7.78a1,1,0,0,1,1,1v4.72a0,0,0,0,1,0,0H5.76a0,0,0,0,1,0,0V22.53a1,1,0,0,1,1-1Z"/><line class="cls-2" x1="10.65" y1="21.53" x2="10.65" y2="6.03"/><line class="cls-2" x1="2.5" y1="39.59" x2="10.15" y2="39.59"/><line class="cls-2" x1="2.5" y1="48.06" x2="10.15" y2="48.06"/><line class="cls-2" x1="2.5" y1="56.52" x2="10.15" y2="56.52"/><path class="cls-2" d="M38.32,20.09H35.06a1.4,1.4,0,0,1-1.39-1.4V11.6a2.79,2.79,0,0,1,2.79-2.79H62.65a2.79,2.79,0,0,1,2.79,2.79v7.09a1.4,1.4,0,0,1-1.39,1.4H38.32"/><path class="cls-2" d="M72.78,54.19V41.72a5.62,5.62,0,0,0-1.16-3.41L61.31,27.71A2.78,2.78,0,0,1,60.73,26V20.44"/><path class="cls-2" d="M38.38,20.44V26a2.78,2.78,0,0,1-.58,1.71L27.49,38.31a5.62,5.62,0,0,0-1.16,3.41V76.25a5.59,5.59,0,0,0,5.59,5.59H56.68"/><line class="cls-2" x1="26.33" y1="46.89" x2="72.78" y2="46.89"/><line class="cls-2" x1="26.33" y1="72.03" x2="45.45" y2="72.03"/><path class="cls-2" d="M63.11,81.7h0a7.79,7.79,0,0,1,0-11l5.57-5.57,5.57-5.57a7.8,7.8,0,0,1,11,0h0a7.8,7.8,0,0,1,0,11L74.09,81.7A7.79,7.79,0,0,1,63.11,81.7Z"/><line class="cls-2" x1="79.66" y1="76.13" x2="72.31" y2="68.78"/><line class="cls-2" x1="18.8" y1="37.02" x2="18.8" y2="42.79"/></svg>