<svg id="Layer_1" data-name="Layer 1" xmlns="http://www.w3.org/2000/svg" viewBox="0 0 90 90"><defs><style>.cls-1{fill:none;stroke:#000;stroke-linecap:round;stroke-miterlimit:10;stroke-width:4px;}</style></defs><title>Icons_Navvis</title><path class="cls-1" d="M29.14,8.09A50.82,50.82,0,0,1,45,5.59c23.47,0,42.5,15.57,42.5,34.77S68.46,76,45,75.14a58.31,58.31,0,0,1-12.18-1.82,2.46,2.46,0,0,0-2,.36L16,84.18a1.21,1.21,0,0,1-1.9-1.1L15.74,67a2.46,2.46,0,0,0-.9-2.13C7.21,58.58,2.5,49.92,2.5,40.36A31,31,0,0,1,9.59,21.1"/><path class="cls-1" d="M14.83,15.87a43.65,43.65,0,0,1,5.79-4"/><line class="cls-1" x1="21.78" y1="34.6" x2="68.22" y2="34.6"/><line class="cls-1" x1="30.78" y1="47.76" x2="59.22" y2="47.76"/></svg>