<?xml version="1.0" encoding="utf-8"?>
<!-- Generator: Adobe Illustrator 22.1.0, SVG Export Plug-In . SVG Version: 6.00 Build 0)  -->
<svg version="1.1" id="Layer_1" xmlns="http://www.w3.org/2000/svg" xmlns:xlink="http://www.w3.org/1999/xlink" x="0px" y="0px"
	 viewBox="0 0 90 90" style="enable-background:new 0 0 90 90;" xml:space="preserve">
<style type="text/css">
	.st0{fill:#8C8C8C;}
	.st1{enable-background:new    ;}
</style>
<title>Icons_Navvis</title>
<g>
	<path class="st0" d="M81.2,56.8H6.6c-1.1,0-2-0.9-2-2s0.9-2,2-2h74.6c1.1,0,2,0.9,2,2S82.3,56.8,81.2,56.8z"/>
</g>
<g>
	<path class="st0" d="M69.8,56c-1.1,0-2-0.9-2-2c0-12.5-10.2-22.8-22.8-22.8S22.2,41.5,22.2,54c0,1.1-0.9,2-2,2s-2-0.9-2-2
		c0-14.8,12-26.8,26.8-26.8c14.8,0,26.8,12,26.8,26.8C71.8,55.1,70.9,56,69.8,56z"/>
</g>
<g>
	<path class="st0" d="M45,21.2c-1.1,0-2-0.9-2-2V9.5c0-1.1,0.9-2,2-2s2,0.9,2,2v9.8C47,20.3,46.1,21.2,45,21.2z"/>
</g>
<g>
	<path class="st0" d="M27.7,25.9c-0.7,0-1.4-0.4-1.7-1l-4.9-8.5c-0.6-1-0.2-2.2,0.7-2.7c1-0.6,2.2-0.2,2.7,0.7l4.9,8.5
		c0.6,1,0.2,2.2-0.7,2.7C28.4,25.8,28,25.9,27.7,25.9z"/>
</g>
<g>
	<path class="st0" d="M16,39.5c-0.3,0-0.7-0.1-1-0.3l-8.4-4.9c-1-0.6-1.3-1.8-0.7-2.7c0.6-1,1.8-1.3,2.7-0.7l8.4,4.9
		c1,0.6,1.3,1.8,0.7,2.7C17.4,39.2,16.7,39.5,16,39.5z"/>
</g>
<g>
	<path class="st0" d="M75,39.5c-0.7,0-1.4-0.4-1.7-1c-0.6-1-0.2-2.2,0.7-2.7l8.4-4.9c1-0.6,2.2-0.2,2.7,0.7c0.6,1,0.2,2.2-0.7,2.7
		L76,39.3C75.7,39.4,75.3,39.5,75,39.5z"/>
</g>
<g>
	<path class="st0" d="M62.3,25.9c-0.3,0-0.7-0.1-1-0.3c-1-0.6-1.3-1.8-0.7-2.7l4.9-8.5c0.6-1,1.8-1.3,2.7-0.7c1,0.6,1.3,1.8,0.7,2.7
		L64,24.9C63.7,25.5,63,25.9,62.3,25.9z"/>
</g>
<g>
	<path class="st0" d="M83.4,56.8h-12c-1.1,0-2-0.9-2-2s0.9-2,2-2h12c1.1,0,2,0.9,2,2S84.5,56.8,83.4,56.8z"/>
</g>
<g class="st1">
	<path class="st0" d="M23.9,85.3l-4.6-15.1h-0.1c0.2,3.1,0.3,5.1,0.3,6.2v9h-3.7V66h5.6l4.6,14.7h0.1L30.8,66h5.6v19.3h-3.8v-9.1
		c0-0.4,0-0.9,0-1.5c0-0.6,0.1-2.1,0.2-4.5h-0.1l-5,15.1H23.9z"/>
	<path class="st0" d="M58.7,75.6c0,3.2-0.8,5.6-2.4,7.4c-1.6,1.7-3.8,2.6-6.8,2.6s-5.2-0.9-6.8-2.6c-1.6-1.7-2.4-4.2-2.4-7.4
		s0.8-5.7,2.4-7.4c1.6-1.7,3.9-2.5,6.8-2.5c3,0,5.2,0.9,6.8,2.6C57.9,69.9,58.7,72.4,58.7,75.6z M44.6,75.6c0,2.2,0.4,3.8,1.2,4.9
		c0.8,1.1,2,1.6,3.7,1.6c3.3,0,4.9-2.2,4.9-6.5c0-4.3-1.6-6.5-4.9-6.5c-1.6,0-2.9,0.5-3.7,1.6C45,71.8,44.6,73.4,44.6,75.6z"/>
	<path class="st0" d="M66.8,77.9v7.4h-4.1V66h5.6c2.6,0,4.6,0.5,5.8,1.4c1.3,1,1.9,2.4,1.9,4.3c0,1.1-0.3,2.1-0.9,3
		c-0.6,0.9-1.5,1.6-2.6,2.1c2.9,4.3,4.8,7.1,5.7,8.4h-4.5l-4.6-7.4H66.8z M66.8,74.5h1.3c1.3,0,2.2-0.2,2.9-0.6s0.9-1.1,0.9-2
		c0-0.9-0.3-1.6-0.9-2c-0.6-0.4-1.6-0.6-2.9-0.6h-1.2V74.5z"/>
</g>
</svg>
