<svg id="Layer_1" data-name="Layer 1" xmlns="http://www.w3.org/2000/svg" viewBox="0 0 90 90"><defs><style>.cls-1{fill:none;stroke:#fff;stroke-miterlimit:10;stroke-width:4px;}</style></defs><title>Icons_Navvis</title><circle class="cls-1" cx="45.36" cy="45.85" r="11.86"/><path class="cls-1" d="M87,37.14c-.28-1.36-.64-2.72-1.06-4.07S85,30.4,84.42,29.12l-9.64.19a33.59,33.59,0,0,0-4.2-5.89l3.31-9.06a42.26,42.26,0,0,0-6.77-5l-7.69,5.81a34.25,34.25,0,0,0-6.85-2.29L49.93,3.6a42.17,42.17,0,0,0-8.41-.07l-2.81,9.23a34.78,34.78,0,0,0-3.51.9c-1.16.37-2.29.8-3.38,1.27L24.22,9a42.45,42.45,0,0,0-6.85,4.88L20.53,23a33.33,33.33,0,0,0-4.3,5.81l-9.64-.35a42.41,42.41,0,0,0-2.67,8l7.91,5.52a33.66,33.66,0,0,0-.07,7.24l-8,5.38c.28,1.36.64,2.72,1.06,4.07s.92,2.67,1.47,3.95l9.64-.19a33.74,33.74,0,0,0,4.2,5.89l-3.31,9.06a42.26,42.26,0,0,0,6.77,5l7.69-5.81a34.25,34.25,0,0,0,6.85,2.29l2.65,9.28a42.93,42.93,0,0,0,8.41.08L52,78.94a31.55,31.55,0,0,0,3.5-.9,33.35,33.35,0,0,0,3.39-1.27l7.6,6a42.45,42.45,0,0,0,6.85-4.88l-3.16-9.13a33.63,33.63,0,0,0,4.3-5.8l9.64.35a42.75,42.75,0,0,0,2.67-8l-7.91-5.52A33.58,33.58,0,0,0,79,42.53Z"/></svg>