<?xml version="1.0" encoding="utf-8"?>
<!-- Generator: Adobe Illustrator 21.1.0, SVG Export Plug-In . SVG Version: 6.00 Build 0)  -->
<svg version="1.1" id="Help_-_Dark_Grey" xmlns="http://www.w3.org/2000/svg" xmlns:xlink="http://www.w3.org/1999/xlink" x="0px"
	 y="0px" width="1380px" height="1691px" viewBox="0 0 1380 1691" style="enable-background:new 0 0 1380 1691;"
	 xml:space="preserve">
<style type="text/css">
	.st0{fill:#1E3D5C;}
	.st1{fill:none;stroke:#FFFFFF;stroke-width:2;}
	.st2{fill:#A8A8A8;}
	.st3{fill:#FFFFFF;stroke:#E1F1FB;stroke-width:1.5;}
	.st4{fill:#E1F1FB;}
	.st5{fill:#FFFFFF;stroke:#A8A8A8;stroke-width:1.5;}
	.st6{fill:#FFFFFF;stroke:#A8A8A8;}
	.st7{fill:#787777;}
	.st8{fill:#AFBBC4;}
	.st9{fill:#6B829B;}
	.st10{fill:none;stroke:#1E3D5C;}
	.st11{fill:#FFFFFF;}
	.st12{fill:none;stroke:#FFFFFF;}
	.st13{fill:none;stroke:#787777;}
	.st14{fill:none;stroke:#A8A8A8;}
	.st15{fill:none;stroke:#AFBBC4;}
	.st16{fill:none;stroke:#6B829B;}
	.st17{fill:none;stroke:#7489A0;}
	.st18{fill:#7489A0;}
	.st19{fill:none;stroke:#47AEDC;}
	.st20{fill:#47AEDC;}
	.st21{fill:none;stroke:#BCC5CC;}
	.st22{fill:none;stroke:#8597AA;}
	.st23{fill:none;stroke:#BDC6CD;}
	.st24{fill:none;stroke:#8698AB;}
	.st25{fill:none;stroke:#63B9DF;}
	.st26{fill:#49D08B;}
	.st27{fill:#FD6870;}
	.st28{fill:#BDC6CD;}
	.st29{fill:#8698AB;}
	.st30{fill:#889AAD;}
	.st31{fill:#F4F6F9;}
	.st32{fill:#1E3D5C;stroke:#1E3D5C;stroke-miterlimit:10;}
	.st33{fill:#1E3D5C;stroke:#1E3D5C;}
	.st34{opacity:0.7;fill:none;stroke:#FFFFFF;enable-background:new    ;}
	.st35{opacity:0.7;fill:none;stroke:#47AEDC;enable-background:new    ;}
	.st36{opacity:0.7;fill:none;stroke:#7489A0;enable-background:new    ;}
	.st37{opacity:0.7;fill:none;stroke:#AFBBC4;enable-background:new    ;}
	.st38{fill:#39A9DB;}
	.st39{fill:#E3E3E3;stroke:#AFBBC4;}
	.st40{fill:#E3E3E3;stroke:#8597AA;}
	.st41{fill:none;stroke:#39A9DB;}
</style>
<image style="overflow:visible;" width="16" height="16" xlink:href="3038D4CF.png"  transform="matrix(1 0 0 1 0 32)">
</image>
<image style="overflow:visible;" width="16" height="16" xlink:href="3038D4CD.png"  transform="matrix(1 0 0 1 16 32)">
</image>
<image style="overflow:visible;" width="28" height="30" xlink:href="3038D4D3.png"  transform="matrix(1 0 0 1 2 343)">
</image>
<image style="overflow:visible;" width="28" height="30" xlink:href="3038D4D5.png"  transform="matrix(1 0 0 1 34 343)">
</image>
<image style="overflow:visible;" width="28" height="30" xlink:href="3038D4D7.png"  transform="matrix(1 0 0 1 66 343)">
</image>
<image style="overflow:visible;" width="28" height="30" xlink:href="3038D4D4.png"  transform="matrix(1 0 0 1 98 343)">
</image>
<path id="_-e-Ellipse_4" class="st0" d="M12,237c6.1,0,11,4.9,11,11s-4.9,11-11,11s-11-4.9-11-11S5.9,237,12,237L12,237z M5.6,248.9
	l3.7,3.7"/>
<path id="_-e-Shape_2" class="st1" d="M6,247l4,4l7-8"/>
<path id="_-e-Ellipse_4-2" class="st2" d="M36,237c6.1,0,11,4.9,11,11s-4.9,11-11,11s-11-4.9-11-11S29.9,237,36,237L36,237z
	 M29.6,248.9l3.7,3.7"/>
<g id="Wizard_-_Current_Step">
	<circle id="_-e-Ellipse_2_copy_2" class="st3" cx="18" cy="562" r="17"/>
	<circle id="_-e-Ellipse_2_copy" class="st4" cx="18" cy="562" r="9.8"/>
</g>
<g id="Wizard_-_Current_Step_-grey">
	<circle id="_-e-Ellipse_2_copy_3" class="st5" cx="54" cy="562" r="17"/>
	<circle id="_-e-Ellipse_2_copy_3-2" class="st2" cx="54" cy="562" r="9.8"/>
</g>
<g id="Wizard_-_Current_Step_-grey_copy">
	<circle id="_-e-Ellipse_2_copy_3-3" class="st6" cx="90" cy="562" r="9.8"/>
</g>
<g id="Wizard_-_Completed_Step">
	<circle id="_-e-Ellipse_2_copy_3-4" class="st0" cx="126" cy="562" r="17"/>
	<path id="_-e-Shape_2_copy" class="st1" d="M118.4,562l5,5l11-12"/>
</g>
<g id="Wizard_-_Completed_Step_copy">
	<circle id="_-e-Ellipse_2_copy_3-5" class="st7" cx="162" cy="562" r="17"/>
	<circle class="st8" cx="328" cy="3" r="1"/>
	<circle id="Ellipse_1_copy" class="st8" cx="328" cy="8" r="1"/>
	<circle id="Ellipse_1_copy_2" class="st8" cx="328" cy="13" r="1"/>
	<circle class="st9" cx="344" cy="3" r="1"/>
	<circle id="Ellipse_1_copy-2" class="st9" cx="344" cy="8" r="1"/>
	<circle id="Ellipse_1_copy_2-2" class="st9" cx="344" cy="13" r="1"/>
	<circle class="st10" cx="360" cy="3" r="1"/>
	<circle id="Ellipse_1_copy-3" class="st10" cx="360" cy="8" r="1"/>
	<circle id="Ellipse_1_copy_2-3" class="st10" cx="360" cy="13" r="1"/>
	<circle class="st11" cx="376" cy="3" r="1"/>
	<circle id="Ellipse_1_copy-4" class="st11" cx="376" cy="8" r="1"/>
	<circle id="Ellipse_1_copy_2-4" class="st11" cx="376" cy="13" r="1"/>
	<image style="overflow:visible;" width="12" height="2" xlink:href="3038D4DC.png"  transform="matrix(1 0 0 1 274 23)">
	</image>
	<image style="overflow:visible;" width="12" height="2" xlink:href="3038D4DD.png"  transform="matrix(1 0 0 1 290 23)">
	</image>
	<image style="overflow:visible;" width="12" height="2" xlink:href="3038D4DF.png"  transform="matrix(1 0 0 1 306 23)">
	</image>
	<image style="overflow:visible;" width="12" height="2" xlink:href="F836C1FC.png"  transform="matrix(1 0 0 1 322 23)">
	</image>
	<path class="st12" d="M62,5.5L56,12l-6-6.5"/>
	<path id="Shape_10_copy_7" class="st1" d="M382,21.5l-6,6.5l-6-6.5"/>
	<path id="Shape_10_copy" class="st10" d="M46,5.5L40,12l-6-6.5"/>
	<path id="Shape_10_copy_2" class="st13" d="M30,5.5L24,12l-6-6.5"/>
	<path id="Shape_10_copy_3" class="st14" d="M14,5.5L8,12L2,5.5"/>
	<path class="st15" d="M65.4,10l6-6.1l6,6.1"/>
	<path id="Shape_10_copy-2" class="st16" d="M81.5,10l6-6.1l6,6.1"/>
	<path id="Shape_10_copy_2-2" class="st10" d="M97.5,10l6-6.1l6,6.1"/>
	<path id="Shape_10_copy_3-2" class="st12" d="M113.6,10l6-6.1l6,6.1"/>
	<path class="st15" d="M133.3,2l5.7,6l-5.7,6"/>
	<path id="Shape_10_copy-3" class="st16" d="M149.3,2l5.7,6l-5.7,6"/>
	<path id="Shape_10_copy_2-3" class="st10" d="M165.3,2l5.7,6l-5.7,6"/>
	<path id="Shape_10_copy_3-3" class="st12" d="M181.3,2l5.7,6l-5.7,6"/>
	<circle class="st15" cx="1096.5" cy="8.5" r="6.5"/>
	<path class="st8" d="M1096,7h1v5h-1V7z"/>
	<path id="Shape_31_copy" class="st8" d="M1096,4h1v2h-1V4z"/>
	<circle class="st17" cx="1112.5" cy="8.5" r="6.5"/>
	<path class="st18" d="M1112,7h1v5h-1V7z"/>
	<path id="Shape_31_copy-2" class="st18" d="M1112,4h1v2h-1V4z"/>
	<circle class="st19" cx="1128.5" cy="8.5" r="6.5"/>
	<path class="st20" d="M1128,7h1v5h-1V7z"/>
	<path id="Shape_31_copy-3" class="st20" d="M1128,4h1v2h-1V4z"/>
	<circle class="st12" cx="1144.5" cy="8.5" r="6.5"/>
	<path class="st11" d="M1144,7h1v5h-1V7z"/>
	<path id="Shape_31_copy-4" class="st11" d="M1144,4h1v2h-1V4z"/>
	<path class="st15" d="M201.6,14L196,8l5.6-6"/>
	<path id="Shape_10_copy-4" class="st16" d="M217.6,14L212,8l5.6-6"/>
	<path id="Shape_10_copy_2-4" class="st10" d="M233.6,14L228,8l5.6-6"/>
	<path id="Shape_10_copy_3-4" class="st12" d="M249.6,14L244,8l5.6-6"/>
	<path class="st21" d="M268.2,2.3l1.4,1.4l-9.9,9.9l-1.4-1.4L268.2,2.3z"/>
	<path id="Rectangle_3833_copy" class="st21" d="M258.3,3.8l1.4-1.4l9.9,9.9l-1.4,1.4L258.3,3.8z"/>
	<path class="st22" d="M284.2,2.3l1.4,1.4l-9.9,9.9l-1.4-1.4L284.2,2.3z"/>
	<path id="Rectangle_3833_copy-2" class="st22" d="M274.3,3.8l1.4-1.4l9.9,9.9l-1.4,1.4L274.3,3.8z"/>
	<path class="st10" d="M300.2,1.3l1.4,1.4l-9.9,9.9l-1.4-1.4L300.2,1.3z"/>
	<path id="Rectangle_3833_copy-3" class="st10" d="M290.3,2.8l1.4-1.4l9.9,9.9l-1.4,1.4L290.3,2.8z"/>
	<path class="st12" d="M316.2,2.3l1.4,1.4l-9.9,9.9l-1.4-1.4L316.2,2.3z"/>
	<path id="Rectangle_3833_copy-4" class="st12" d="M306.3,3.8l1.4-1.4l9.9,9.9l-1.4,1.4L306.3,3.8z"/>
	<path id="white" class="st23" d="M392,1h1v13h-1V1z M386,8V7h13v1H386z"/>
	<path id="white_copy" class="st24" d="M408,1h1v13h-1V1z M402,8V7h13v1H402z"/>
	<path id="white_copy_2" class="st10" d="M424,1h1v13h-1V1z M418,8V7h13v1H418z"/>
	<path id="white_copy_3" class="st12" d="M440,1h1v13h-1V1z M434,8V7h13v1H434z"/>
	<path id="white-2" class="st23" d="M2,24v-1h12v1H2z"/>
	<path id="white_copy-2" class="st24" d="M18,24v-1h12v1H18z"/>
	<path id="white_copy_2-2" class="st25" d="M34,24v-1h12v1H34z"/>
	<path id="white_copy_3-2" class="st12" d="M50,24v-1h12v1H50z"/>
	<path id="Polygon_1" class="st26" d="M456,2l7,7h-14L456,2z"/>
	<rect x="453" y="9" class="st26" width="6" height="5"/>
	<rect x="469" y="9" class="st27" width="6" height="5"/>
	<path id="Polygon_1_copy" class="st27" d="M472,2l7,7h-14L472,2z"/>
	<rect x="485" y="9" class="st28" width="6" height="5"/>
	<path id="Polygon_1_copy_2" class="st28" d="M488,2l7,7h-14L488,2z"/>
	<rect x="501" y="2" class="st26" width="6" height="5"/>
	<path id="Polygon_1_copy_3" class="st26" d="M504,14l-7-7h14L504,14z"/>
	<path id="Polygon_1_copy_4" class="st27" d="M520,14l-7-7h14L520,14z"/>
	<rect x="517" y="2" class="st27" width="6" height="5"/>
	<path id="Polygon_1_copy_5" class="st28" d="M536,14l-7-7h14L536,14z"/>
	<rect x="533" y="2" class="st28" width="6" height="5"/>
	<rect x="645" y="18" class="st26" width="6" height="6"/>
	<path id="Polygon_1_copy_3-2" class="st26" d="M648,31l-7-7h14L648,31z"/>
	<rect x="661" y="24" class="st26" width="6" height="6"/>
	<path id="Polygon_1_copy_3-3" class="st26" d="M664,17l-7,7h14L664,17z"/>
	<rect x="674" y="21" class="st26" width="6" height="6"/>
	<path id="Polygon_1_copy_3-4" class="st26" d="M687,24l-7-7v14L687,24z"/>
	<rect x="696" y="21" class="st26" width="6" height="6"/>
	<path id="Polygon_1_copy_3-5" class="st26" d="M689,24l7-7v14L689,24z"/>
	<rect x="709" y="18" class="st27" width="6" height="6"/>
	<path id="Polygon_1_copy_3-6" class="st27" d="M712,31l-7-7h14L712,31z"/>
	<rect x="725" y="24" class="st27" width="6" height="6"/>
	<path id="Polygon_1_copy_3-7" class="st27" d="M728,17l-7,7h14L728,17z"/>
	<rect x="738" y="21" class="st27" width="6" height="6"/>
	<path id="Polygon_1_copy_3-8" class="st27" d="M751,24l-7-7v14L751,24z"/>
	<rect x="760" y="21" class="st27" width="6" height="6"/>
	<path id="Polygon_1_copy_3-9" class="st27" d="M753,24l7-7v14L753,24z"/>
	<g id="View_-_Light_Grey">
		<path class="st23" d="M545.1,7.4c0,0,0.4,0.1,1-1.1c2-3.3,6.3-4.3,9.6-2.3c0.9,0.6,1.7,1.4,2.3,2.3c0.1,0.5,0.5,0.9,1,1.1"/>
		<path id="Shape_15_copy" class="st23" d="M558.9,8.6c0,0-0.4-0.1-1,1.1c-2,3.3-6.2,4.3-9.4,2.4c-1-0.6-1.8-1.4-2.4-2.4
			c-0.1-0.5-0.5-0.9-1-1.1"/>
		<circle class="st23" cx="552" cy="8" r="2"/>
	</g>
	<g id="View_-_Dark_Grey">
		<path class="st17" d="M561.1,7.4c0,0,0.4,0.1,1-1.1c2-3.3,6.3-4.3,9.6-2.3c0.9,0.6,1.7,1.4,2.3,2.3c0.1,0.5,0.5,0.9,1,1.1"/>
		<path id="Shape_15_copy-2" class="st17" d="M574.9,8.6c0,0-0.4-0.1-1,1.1c-2,3.3-6.2,4.3-9.4,2.4c-1-0.6-1.8-1.4-2.4-2.4
			c-0.1-0.5-0.5-0.9-1-1.1"/>
		<circle class="st17" cx="568" cy="8" r="2"/>
	</g>
	<g id="View_-_purple">
		<path class="st10" d="M577.1,7.4c0,0,0.4,0.1,1-1.1c2-3.3,6.3-4.3,9.6-2.3c0.9,0.6,1.7,1.4,2.3,2.3c0.1,0.5,0.5,0.9,1,1.1"/>
		<path id="Shape_15_copy-3" class="st10" d="M590.9,8.6c0,0-0.4-0.1-1,1.1c-2,3.3-6.2,4.3-9.4,2.4c-1-0.6-1.8-1.4-2.4-2.4
			c-0.1-0.5-0.5-0.9-1-1.1"/>
		<circle class="st10" cx="584" cy="8" r="2"/>
	</g>
	<g id="View_-_White">
		<path class="st12" d="M593.1,7.4c0,0,0.4,0.1,1-1.1c2-3.3,6.3-4.3,9.6-2.3c0.9,0.6,1.7,1.4,2.3,2.3c0.1,0.5,0.5,0.9,1,1.1"/>
		<path id="Shape_15_copy-4" class="st12" d="M606.9,8.6c0,0-0.4-0.1-1,1.1c-2,3.3-6.2,4.3-9.4,2.4c-1-0.6-1.8-1.4-2.4-2.4
			c-0.1-0.5-0.5-0.9-1-1.1"/>
		<circle class="st12" cx="600" cy="8" r="2"/>
	</g>
	<path id="Shape_15_copy_2" class="st17" d="M609.1,7.4c0,0,0.4,0.1,1-1.1c2-3.3,6.3-4.3,9.6-2.3c0.9,0.6,1.7,1.4,2.3,2.3
		c0.1,0.5,0.5,0.9,1,1.1"/>
	<path id="Shape_15_copy_2-2" class="st17" d="M622.9,8.6c0,0-0.4-0.1-1,1.1c-2,3.3-6.2,4.3-9.4,2.4c-1-0.6-1.8-1.4-2.4-2.4
		c-0.1-0.5-0.5-0.9-1-1.1"/>
	<circle id="Ellipse_3_copy" class="st17" cx="616" cy="8" r="2"/>
	<path class="st29" d="M621.6,1.6l0.7,0.7l-12,12l-0.7-0.7L621.6,1.6z"/>
	<rect x="692" y="4" class="st28" width="1" height="9"/>
	<path id="Rectangle_15_copy" class="st28" d="M691.4,3.1l0.7-0.7l3.5,3.5l-0.7,0.7L691.4,3.1z"/>
	<path id="Rectangle_15_copy_2" class="st28" d="M692.9,2.4l0.7,0.7l-3.5,3.5l-0.7-0.7L692.9,2.4z"/>
	<rect id="Rectangle_15_copy_3" x="697" y="5" class="st28" width="5" height="1"/>
	<rect id="Rectangle_15_copy_4" x="697" y="7" class="st28" width="4" height="1"/>
	<rect id="Rectangle_15_copy_5" x="697" y="9" class="st28" width="3" height="1"/>
	<rect id="Rectangle_15_copy_21" x="697" y="11" class="st28" width="2" height="1"/>
	<rect x="708" y="4" class="st30" width="1" height="9"/>
	<path id="Rectangle_15_copy-2" class="st30" d="M707.4,3.1l0.7-0.7l3.5,3.5l-0.7,0.7L707.4,3.1z"/>
	<path id="Rectangle_15_copy_2-2" class="st30" d="M708.9,2.4l0.7,0.7l-3.5,3.5l-0.7-0.7L708.9,2.4z"/>
	<rect id="Rectangle_15_copy_3-2" x="713" y="5" class="st30" width="5" height="1"/>
	<rect id="Rectangle_15_copy_4-2" x="713" y="7" class="st30" width="4" height="1"/>
	<rect id="Rectangle_15_copy_5-2" x="713" y="9" class="st30" width="3" height="1"/>
	<rect id="Rectangle_15_copy_22" x="713" y="11" class="st30" width="2" height="1"/>
	<g id="Table_Sort_-_up_-_Purple">
		<rect x="724" y="4" class="st10" width="1" height="9"/>
		<path id="Rectangle_15_copy-3" class="st10" d="M723.4,3.1l0.7-0.7l3.5,3.5l-0.7,0.7L723.4,3.1z"/>
		<path id="Rectangle_15_copy_2-3" class="st10" d="M724.9,2.4l0.7,0.7l-3.5,3.5l-0.7-0.7L724.9,2.4z"/>
		<rect id="Rectangle_15_copy_3-3" x="729" y="5" class="st10" width="5" height="1"/>
		<rect id="Rectangle_15_copy_4-3" x="729" y="7" class="st10" width="4" height="1"/>
		<rect id="Rectangle_15_copy_5-3" x="729" y="9" class="st10" width="3" height="1"/>
		<rect id="Rectangle_15_copy_23" x="729" y="11" class="st10" width="2" height="1"/>
	</g>
	<rect x="740" y="4" class="st31" width="1" height="9"/>
	<path id="Rectangle_15_copy-4" class="st31" d="M739.4,3.1l0.7-0.7l3.5,3.5l-0.7,0.7L739.4,3.1z"/>
	<path id="Rectangle_15_copy_2-4" class="st31" d="M740.9,2.4l0.7,0.7l-3.5,3.5l-0.7-0.7L740.9,2.4z"/>
	<rect id="Rectangle_15_copy_3-4" x="745" y="5" class="st31" width="5" height="1"/>
	<rect id="Rectangle_15_copy_4-4" x="745" y="7" class="st31" width="4" height="1"/>
	<rect id="Rectangle_15_copy_5-4" x="745" y="9" class="st31" width="3" height="1"/>
	<rect id="Rectangle_15_copy_24" x="745" y="11" class="st31" width="2" height="1"/>
	<rect x="628" y="4" class="st28" width="1" height="10"/>
	<path id="Rectangle_15_copy-5" class="st28" d="M625.4,11.1l0.7-0.7l3.5,3.5l-0.7,0.7L625.4,11.1z"/>
	<path id="Rectangle_15_copy_2-5" class="st28" d="M630.9,10.4l0.7,0.7l-3.5,3.5l-0.7-0.7L630.9,10.4z"/>
	<rect id="Rectangle_15_copy_3-5" x="633" y="7" class="st28" width="3" height="1"/>
	<rect id="Rectangle_15_copy_17" x="633" y="5" class="st28" width="2" height="1"/>
	<rect id="Rectangle_15_copy_14" x="633" y="9" class="st28" width="4" height="1"/>
	<rect id="Rectangle_15_copy_15" x="633" y="11" class="st28" width="5" height="1"/>
	<rect id="Rectangle_15_copy_16" x="633" y="11" class="st28" width="5" height="1"/>
	<rect x="644" y="4" class="st30" width="1" height="10"/>
	<path id="Rectangle_15_copy-6" class="st30" d="M641.4,11.1l0.7-0.7l3.5,3.5l-0.7,0.7L641.4,11.1z"/>
	<path id="Rectangle_15_copy_2-6" class="st30" d="M646.9,10.4l0.7,0.7l-3.5,3.5l-0.7-0.7L646.9,10.4z"/>
	<rect id="Rectangle_15_copy_3-6" x="649" y="7" class="st30" width="3" height="1"/>
	<rect id="Rectangle_15_copy_18" x="649" y="5" class="st30" width="2" height="1"/>
	<rect id="Rectangle_15_copy_4-5" x="649" y="9" class="st30" width="4" height="1"/>
	<rect id="Rectangle_15_copy_5-5" x="649" y="11" class="st30" width="5" height="1"/>
	<g id="Table_Sort_-_purple">
		<rect x="660" y="4" class="st10" width="1" height="10"/>
		<path id="Rectangle_15_copy-7" class="st10" d="M657.4,11.1l0.7-0.7l3.5,3.5l-0.7,0.7L657.4,11.1z"/>
		<path id="Rectangle_15_copy_2-7" class="st10" d="M662.9,10.4l0.7,0.7l-3.5,3.5l-0.7-0.7L662.9,10.4z"/>
		<rect id="Rectangle_15_copy_3-7" x="665" y="7" class="st10" width="3" height="1"/>
		<rect id="Rectangle_15_copy_19" x="665" y="5" class="st10" width="2" height="1"/>
		<rect id="Rectangle_15_copy_4-6" x="665" y="9" class="st10" width="4" height="1"/>
		<rect id="Rectangle_15_copy_5-6" x="665" y="11" class="st10" width="5" height="1"/>
	</g>
	<rect x="676" y="4" class="st11" width="1" height="10"/>
	<path id="Rectangle_15_copy-8" class="st11" d="M673.4,11.1l0.7-0.7l3.5,3.5l-0.7,0.7L673.4,11.1z"/>
	<path id="Rectangle_15_copy_2-8" class="st11" d="M678.9,10.4l0.7,0.7l-3.5,3.5l-0.7-0.7L678.9,10.4z"/>
	<rect id="Rectangle_15_copy_3-8" x="681" y="7" class="st11" width="3" height="1"/>
	<rect id="Rectangle_15_copy_20" x="681" y="5" class="st11" width="2" height="1"/>
	<rect id="Rectangle_15_copy_4-7" x="681" y="9" class="st11" width="4" height="1"/>
	<rect id="Rectangle_15_copy_5-7" x="681" y="11" class="st11" width="5" height="1"/>
	<rect x="781" y="2" class="st8" width="1" height="4"/>
	<rect x="774" y="6" class="st8" width="4" height="4"/>
	<rect id="Rectangle_17_copy" x="778" y="2" class="st8" width="4" height="1"/>
	<rect id="Rectangle_17_copy_2" x="770" y="2" class="st8" width="4" height="1"/>
	<rect id="Rectangle_17_copy_2-2" x="770" y="2" class="st8" width="1" height="4"/>
	<rect id="Rectangle_17_copy_3" x="770" y="10" class="st8" width="1" height="4"/>
	<rect id="Rectangle_17_copy_3-2" x="770" y="13" class="st8" width="4" height="1"/>
	<rect id="Rectangle_17_copy_4" x="778" y="13" class="st8" width="4" height="1"/>
	<rect id="Rectangle_17_copy_4-2" x="781" y="10" class="st8" width="1" height="4"/>
	<rect x="797" y="2" class="st18" width="1" height="4"/>
	<rect x="790" y="6" class="st18" width="4" height="4"/>
	<rect id="Rectangle_17_copy-2" x="794" y="2" class="st18" width="4" height="1"/>
	<rect id="Rectangle_17_copy_2-3" x="786" y="2" class="st18" width="4" height="1"/>
	<rect id="Rectangle_17_copy_2-4" x="786" y="2" class="st18" width="1" height="4"/>
	<rect id="Rectangle_17_copy_3-3" x="786" y="10" class="st18" width="1" height="4"/>
	<rect id="Rectangle_17_copy_3-4" x="786" y="13" class="st18" width="4" height="1"/>
	<rect id="Rectangle_17_copy_4-3" x="794" y="13" class="st18" width="4" height="1"/>
	<rect id="Rectangle_17_copy_4-4" x="797" y="10" class="st18" width="1" height="4"/>
	<g id="Full_Screen_-_Purple">
		<rect x="813" y="2" class="st10" width="1" height="4"/>
		<rect x="806" y="6" class="st32" width="4" height="4"/>
		<rect id="Rectangle_17_copy-3" x="810" y="2" class="st10" width="4" height="1"/>
		<rect id="Rectangle_17_copy_2-5" x="802" y="2" class="st10" width="4" height="1"/>
		<rect id="Rectangle_17_copy_2-6" x="802" y="2" class="st10" width="1" height="4"/>
		<rect id="Rectangle_17_copy_3-5" x="802" y="10" class="st10" width="1" height="4"/>
		<rect id="Rectangle_17_copy_3-6" x="802" y="13" class="st10" width="4" height="1"/>
		<rect id="Rectangle_17_copy_4-5" x="810" y="13" class="st10" width="4" height="1"/>
		<rect id="Rectangle_17_copy_4-6" x="813" y="10" class="st10" width="1" height="4"/>
	</g>
	<rect x="829" y="2" class="st11" width="1" height="4"/>
	<rect x="822" y="6" class="st11" width="4" height="4"/>
	<rect id="Rectangle_17_copy-4" x="826" y="2" class="st11" width="4" height="1"/>
	<rect id="Rectangle_17_copy_2-7" x="818" y="2" class="st11" width="4" height="1"/>
	<rect id="Rectangle_17_copy_2-8" x="818" y="2" class="st11" width="1" height="4"/>
	<rect id="Rectangle_17_copy_3-7" x="818" y="10" class="st11" width="1" height="4"/>
	<rect id="Rectangle_17_copy_3-8" x="818" y="13" class="st11" width="4" height="1"/>
	<rect id="Rectangle_17_copy_4-7" x="826" y="13" class="st11" width="4" height="1"/>
	<rect id="Rectangle_17_copy_4-8" x="829" y="10" class="st11" width="1" height="4"/>
	<rect x="838" y="6" class="st8" width="4" height="4"/>
	<rect x="843" y="2" class="st8" width="1" height="3"/>
	<rect id="Rectangle_17_copy-5" x="843" y="4" class="st8" width="3" height="1"/>
	<rect id="Rectangle_17_copy_2-9" x="834" y="4" class="st8" width="3" height="1"/>
	<rect id="Rectangle_17_copy_2-10" x="836" y="2" class="st8" width="1" height="3"/>
	<rect id="Rectangle_17_copy_3-9" x="836" y="11" class="st8" width="1" height="3"/>
	<rect id="Rectangle_17_copy_3-10" x="834" y="11" class="st8" width="3" height="1"/>
	<rect id="Rectangle_17_copy_4-9" x="843" y="11" class="st8" width="3" height="1"/>
	<rect id="Rectangle_17_copy_4-10" x="843" y="11" class="st8" width="1" height="3"/>
	<rect x="854" y="6" class="st18" width="4" height="4"/>
	<rect x="859" y="2" class="st18" width="1" height="3"/>
	<rect id="Rectangle_17_copy-6" x="859" y="4" class="st18" width="3" height="1"/>
	<rect id="Rectangle_17_copy_2-11" x="850" y="4" class="st18" width="3" height="1"/>
	<rect id="Rectangle_17_copy_2-12" x="852" y="2" class="st18" width="1" height="3"/>
	<rect id="Rectangle_17_copy_3-11" x="852" y="11" class="st18" width="1" height="3"/>
	<rect id="Rectangle_17_copy_3-12" x="850" y="11" class="st18" width="3" height="1"/>
	<rect id="Rectangle_17_copy_4-11" x="859" y="11" class="st18" width="3" height="1"/>
	<rect id="Rectangle_17_copy_4-12" x="859" y="11" class="st18" width="1" height="3"/>
	<g id="Exit_Full_Screen_-_purple">
		<rect x="870" y="6" class="st33" width="4" height="4"/>
		<rect x="875" y="2" class="st10" width="1" height="3"/>
		<rect id="Rectangle_17_copy-7" x="875" y="4" class="st10" width="3" height="1"/>
		<rect id="Rectangle_17_copy_2-13" x="866" y="4" class="st10" width="3" height="1"/>
		<rect id="Rectangle_17_copy_2-14" x="868" y="2" class="st10" width="1" height="3"/>
		<rect id="Rectangle_17_copy_3-13" x="868" y="11" class="st10" width="1" height="3"/>
		<rect id="Rectangle_17_copy_3-14" x="866" y="11" class="st10" width="3" height="1"/>
		<rect id="Rectangle_17_copy_4-13" x="875" y="11" class="st10" width="3" height="1"/>
		<rect id="Rectangle_17_copy_4-14" x="875" y="11" class="st10" width="1" height="3"/>
	</g>
	<rect x="886" y="6" class="st11" width="4" height="4"/>
	<rect x="891" y="2" class="st11" width="1" height="3"/>
	<rect id="Rectangle_17_copy-8" x="891" y="4" class="st11" width="3" height="1"/>
	<rect id="Rectangle_17_copy_2-15" x="882" y="4" class="st11" width="3" height="1"/>
	<rect id="Rectangle_17_copy_2-16" x="884" y="2" class="st11" width="1" height="3"/>
	<rect id="Rectangle_17_copy_3-15" x="884" y="11" class="st11" width="1" height="3"/>
	<rect id="Rectangle_17_copy_3-16" x="882" y="11" class="st11" width="3" height="1"/>
	<rect id="Rectangle_17_copy_4-15" x="891" y="11" class="st11" width="3" height="1"/>
	<rect id="Rectangle_17_copy_4-16" x="891" y="11" class="st11" width="1" height="3"/>
	<path id="Rectangle_17_copy_6" class="st8" d="M911.6,7.5l-3.1,3.1l-0.7-0.7l3.1-3.1L911.6,7.5z"/>
	<path id="Rectangle_17_copy_6-2" class="st8" d="M911.6,7.5l-0.7,0.7l-3.1-3.1l0.7-0.7L911.6,7.5z"/>
	<path id="Rectangle_17_copy_5" class="st8" d="M899.5,4.4l0.7,0.7l-3.1,3.1l-0.7-0.7L899.5,4.4z"/>
	<path id="Rectangle_17_copy_5-2" class="st8" d="M897.1,6.8l3.1,3.1l-0.7,0.7l-3.1-3.1L897.1,6.8z"/>
	<rect x="897" y="7" class="st8" width="6" height="1"/>
	<rect x="905" y="7" class="st8" width="5" height="1"/>
	<path id="Rectangle_17_copy_6-3" class="st18" d="M927.6,7.5l-3.1,3.1l-0.7-0.7l3.1-3.1L927.6,7.5z"/>
	<path id="Rectangle_17_copy_6-4" class="st18" d="M927.6,7.5l-0.7,0.7l-3.1-3.1l0.7-0.7L927.6,7.5z"/>
	<path id="Rectangle_17_copy_5-3" class="st18" d="M915.5,4.4l0.7,0.7l-3.1,3.1l-0.7-0.7L915.5,4.4z"/>
	<path id="Rectangle_17_copy_5-4" class="st18" d="M913.1,6.8l3.1,3.1l-0.7,0.7l-3.1-3.1L913.1,6.8z"/>
	<rect x="913" y="7" class="st18" width="6" height="1"/>
	<rect x="921" y="7" class="st18" width="5" height="1"/>
	<path id="Rectangle_17_copy_6-5" class="st20" d="M943.6,7.5l-3.1,3.1l-0.7-0.7l3.1-3.1L943.6,7.5z"/>
	<path id="Rectangle_17_copy_6-6" class="st20" d="M943.6,7.5l-0.7,0.7l-3.1-3.1l0.7-0.7L943.6,7.5z"/>
	<path id="Rectangle_17_copy_5-5" class="st20" d="M931.5,4.4l0.7,0.7l-3.1,3.1l-0.7-0.7L931.5,4.4z"/>
	<path id="Rectangle_17_copy_5-6" class="st20" d="M929.1,6.8l3.1,3.1l-0.7,0.7l-3.1-3.1L929.1,6.8z"/>
	<rect x="929" y="7" class="st20" width="6" height="1"/>
	<rect x="937" y="7" class="st20" width="5" height="1"/>
	<path id="Rectangle_17_copy_6-7" class="st11" d="M959.6,7.5l-3.1,3.1l-0.7-0.7l3.1-3.1L959.6,7.5z"/>
	<path id="Rectangle_17_copy_6-8" class="st11" d="M959.6,7.5l-0.7,0.7l-3.1-3.1l0.7-0.7L959.6,7.5z"/>
	<path id="Rectangle_17_copy_5-7" class="st11" d="M947.5,4.4l0.7,0.7l-3.1,3.1l-0.7-0.7L947.5,4.4z"/>
	<path id="Rectangle_17_copy_5-8" class="st11" d="M945.1,6.8l3.1,3.1l-0.7,0.7l-3.1-3.1L945.1,6.8z"/>
	<rect x="945" y="7" class="st11" width="6" height="1"/>
	<rect x="953" y="7" class="st11" width="5" height="1"/>
	<path id="Rectangle_17_copy_6-9" class="st8" d="M966.6,7.5l-3.1,3.1l-0.7-0.7l3.1-3.1L966.6,7.5z"/>
	<path id="Rectangle_17_copy_6-10" class="st8" d="M966.6,7.5l-0.7,0.7l-3.1-3.1l0.7-0.7L966.6,7.5z"/>
	<path id="Rectangle_17_copy_5-9" class="st8" d="M972.5,4.4l0.7,0.7l-3.1,3.1l-0.7-0.7L972.5,4.4z"/>
	<path id="Rectangle_17_copy_5-10" class="st8" d="M970.1,6.8l3.1,3.1l-0.7,0.7l-3.1-3.1L970.1,6.8z"/>
	<rect x="970" y="7" class="st8" width="6" height="1"/>
	<rect x="960" y="7" class="st8" width="5" height="1"/>
	<path id="Rectangle_17_copy_6-11" class="st18" d="M982.6,7.5l-3.1,3.1l-0.7-0.7l3.1-3.1L982.6,7.5z"/>
	<path id="Rectangle_17_copy_6-12" class="st18" d="M982.6,7.5l-0.7,0.7l-3.1-3.1l0.7-0.7L982.6,7.5z"/>
	<path id="Rectangle_17_copy_5-11" class="st18" d="M988.5,4.4l0.7,0.7l-3.1,3.1l-0.7-0.7L988.5,4.4z"/>
	<path id="Rectangle_17_copy_5-12" class="st18" d="M986.1,6.8l3.1,3.1l-0.7,0.7l-3.1-3.1L986.1,6.8z"/>
	<rect x="986" y="7" class="st18" width="6" height="1"/>
	<rect x="976" y="7" class="st18" width="5" height="1"/>
	<path id="Rectangle_17_copy_6-13" class="st20" d="M998.6,7.5l-3.1,3.1l-0.7-0.7l3.1-3.1L998.6,7.5z"/>
	<path id="Rectangle_17_copy_6-14" class="st20" d="M998.6,7.5l-0.7,0.7l-3.1-3.1l0.7-0.7L998.6,7.5z"/>
	<path id="Rectangle_17_copy_5-13" class="st20" d="M1004.5,4.4l0.7,0.7l-3.1,3.1l-0.7-0.7L1004.5,4.4z"/>
	<path id="Rectangle_17_copy_5-14" class="st20" d="M1002.1,6.8l3.1,3.1l-0.7,0.7l-3.1-3.1L1002.1,6.8z"/>
	<rect x="1002" y="7" class="st20" width="6" height="1"/>
	<rect x="992" y="7" class="st20" width="5" height="1"/>
	<path id="Rectangle_17_copy_6-15" class="st11" d="M1014.6,7.5l-3.1,3.1l-0.7-0.7l3.1-3.1L1014.6,7.5z"/>
	<path id="Rectangle_17_copy_6-16" class="st11" d="M1014.6,7.5l-0.7,0.7l-3.1-3.1l0.7-0.7L1014.6,7.5z"/>
	<path id="Rectangle_17_copy_5-15" class="st11" d="M1020.5,4.4l0.7,0.7l-3.1,3.1l-0.7-0.7L1020.5,4.4z"/>
	<path id="Rectangle_17_copy_5-16" class="st11" d="M1018.1,6.8l3.1,3.1l-0.7,0.7l-3.1-3.1L1018.1,6.8z"/>
	<rect x="1018" y="7" class="st11" width="6" height="1"/>
	<rect x="1008" y="7" class="st11" width="5" height="1"/>
	<path class="st15" d="M1030,13h-3v-3l8-8l3,3L1030,13z"/>
	<path class="st15" d="M1031.7,5.4l0.7-0.7l3,3l-0.7,0.7L1031.7,5.4z"/>
	<path class="st17" d="M1046,13h-3v-3l8-8l3,3L1046,13z"/>
	<path class="st17" d="M1047.7,5.4l0.7-0.7l3,3l-0.7,0.7L1047.7,5.4z"/>
	<path class="st19" d="M1062,13h-3v-3l8-8l3,3L1062,13z"/>
	<path class="st19" d="M1063.7,5.4l0.7-0.7l3,3l-0.7,0.7L1063.7,5.4z"/>
	<path class="st12" d="M1078,13h-3v-3l8-8l3,3L1078,13z"/>
	<path class="st12" d="M1079.7,5.4l0.7-0.7l3,3l-0.7,0.7L1079.7,5.4z"/>
	<path id="Polygon_2" class="st8" d="M1159.5,10l-4.5-4h9L1159.5,10z"/>
	<path id="Polygon_2_copy" class="st18" d="M1171,6h9l-4.5,4"/>
	<path id="Polygon_2_copy_2" class="st20" d="M1191.5,10l-4.5-4h9L1191.5,10z"/>
	<path id="Polygon_2_copy_2-2" class="st11" d="M1203,6h9l-4.5,4"/>
	<path id="Polygon_2_copy_4" class="st8" d="M1287.5,6l-4.5,4h9L1287.5,6z"/>
	<path id="Polygon_2_copy_4-2" class="st18" d="M1299,10h9l-4.5-4"/>
	<path id="Polygon_2_copy_4-3" class="st20" d="M1319.5,6l-4.5,4h9L1319.5,6z"/>
	<path id="Polygon_2_copy_4-4" class="st11" d="M1331,10h9l-4.5-4"/>
	<path id="Polygon_2_copy_3" class="st8" d="M1226,7.5l-4,4.5V3L1226,7.5z"/>
	<path id="Polygon_2_copy_3-2" class="st18" d="M1238,12V3l4,4.5"/>
	<path id="Polygon_2_copy_3-3" class="st20" d="M1258,7.5l-4,4.5V3L1258,7.5z"/>
	<path id="Polygon_2_copy_3-4" class="st11" d="M1270,12V3l4,4.5"/>
	<path class="st34" d="M115.7,20h1v9h-1V20z"/>
	<path id="Shape_1_copy_5" class="st34" d="M123.9,24h1v5h-1V24z"/>
	<path id="Shape_1_copy" class="st34" d="M115.7,25v-1h9.2v1H115.7z"/>
	<circle class="st12" cx="116" cy="19" r="2"/>
	<circle id="Ellipse_1_copy-5" class="st12" cx="116" cy="29" r="2"/>
	<circle id="Ellipse_1_copy_2-5" class="st12" cx="124" cy="29" r="2"/>
	<path class="st35" d="M99.7,20h1v9h-1V20z"/>
	<path id="Shape_1_copy_5-2" class="st35" d="M107.9,24h1v5h-1V24z"/>
	<path id="Shape_1_copy-2" class="st35" d="M99.7,25v-1h9.2v1H99.7z"/>
	<circle class="st19" cx="100" cy="19" r="2"/>
	<circle id="Ellipse_1_copy-6" class="st19" cx="100" cy="29" r="2"/>
	<circle id="Ellipse_1_copy_2-6" class="st19" cx="108" cy="29" r="2"/>
	<path class="st36" d="M83.7,20h1v9h-1V20z"/>
	<path id="Shape_1_copy_5-3" class="st36" d="M91.9,24h1v5h-1V24z"/>
	<path id="Shape_1_copy-3" class="st36" d="M83.7,25v-1H93v1H83.7z"/>
	<circle class="st17" cx="84" cy="19" r="2"/>
	<circle id="Ellipse_1_copy-7" class="st17" cx="84" cy="29" r="2"/>
	<circle id="Ellipse_1_copy_2-7" class="st17" cx="92" cy="29" r="2"/>
	<path class="st37" d="M67.7,20h1v9h-1V20z"/>
	<path id="Shape_1_copy_5-4" class="st37" d="M75.9,24h1v5h-1V24z"/>
	<path id="Shape_1_copy-4" class="st37" d="M67.7,25v-1H77v1H67.7z"/>
	<circle class="st15" cx="68" cy="19" r="2"/>
	<circle id="Ellipse_1_copy-8" class="st15" cx="68" cy="29" r="2"/>
	<circle id="Ellipse_1_copy_2-8" class="st15" cx="76" cy="29" r="2"/>
	<path id="cross" class="st27" d="M141,20l-1-1l-4,4l-4-4l-1,1l4,4l-4,4l1,1l4-4l4,4l1-1l-4-4L141,20z"/>
	<path id="check" class="st26" d="M146.1,24.4c-0.2-0.1-0.2-0.3-0.1-0.5c0,0,0,0,0.1-0.1l0.7-0.6c0.2-0.2,0.5-0.2,0.7,0l0,0l2.6,2.4
		c0.1,0.1,0.2,0.1,0.3,0l6.2-5.6h0c0.2-0.2,0.5-0.2,0.7,0l0.7,0.6c0.2,0.1,0.2,0.3,0.1,0.5c0,0,0,0-0.1,0.1l0,0l-7.5,6.7
		c-0.2,0.2-0.5,0.2-0.7,0l-3.6-3.4L146.1,24.4z"/>
	<path id="warning_info_icon" class="st8" d="M168,31c-3.9,0-7-3.1-7-7s3.1-7,7-7s7,3.1,7,7C175,27.9,171.9,31,168,31z M168.9,19.5
		h-1.8v5.4h1.8V19.5z M168.9,26.7h-1.8v1.8h1.8V26.7z"/>
	<circle class="st38" cx="184" cy="24" r="7"/>
	<path class="st11" d="M183,20h2v8h-2V20z M180,23h8v2h-8V23z"/>
	<path class="st11" d="M349.1,18.9c2.5,2.5,2.5,6.7,0,9.2s-6.7,2.5-9.2,0s-2.5-6.7,0-9.2l0,0C342.4,16.4,346.6,16.4,349.1,18.9z
		 M346.6,20.7l0.7,0.7l-4.9,5l-0.7-0.7L346.6,20.7z M342.4,20.7l4.9,5l-0.7,0.7l-5-5L342.4,20.7z"/>
	<image style="overflow:visible;" width="11" height="14" xlink:href="F836C1FC.jpg"  transform="matrix(1 0 0 1 211 17)">
	</image>
	<image style="overflow:visible;" width="13" height="16" xlink:href="F836C1F4.jpg"  transform="matrix(1 0 0 1 226 16)">
	</image>
	<rect x="449" y="19" class="st15" width="14" height="10"/>
	<path class="st39" d="M452,23v-1h6v1H452z"/>
	<path id="Shape_3961_copy" class="st39" d="M452,25v-1l4,0v1L452,25z"/>
	<rect x="465" y="19" class="st22" width="14" height="10"/>
	<path class="st40" d="M468,23v-1h6v1H468z"/>
	<path id="Shape_3961_copy-2" class="st40" d="M468,25v-1l4,0v1L468,25z"/>
	<rect x="481" y="19" class="st41" width="14" height="10"/>
	<path class="st41" d="M484,23v-1h6v1H484z"/>
	<path id="Shape_3961_copy-3" class="st41" d="M484,25v-1l4,0v1L484,25z"/>
	<rect x="497" y="19" class="st12" width="14" height="10"/>
	<path class="st12" d="M500,23v-1h6v1H500z"/>
	<path id="Shape_3961_copy-4" class="st12" d="M500,25v-1l4,0v1L500,25z"/>
	<rect x="513" y="20" class="st15" width="12" height="9"/>
	<path id="Rectangle_3959_copy" class="st15" d="M514,18h13v9"/>
	<path class="st39" d="M516,24v-1h6v1H516z"/>
	<path id="Shape_3961_copy-5" class="st39" d="M516,26v-1l4,0v1L516,26z"/>
	<rect x="529" y="20" class="st16" width="12" height="9"/>
	<path id="Rectangle_3959_copy-2" class="st16" d="M530,18h13v9"/>
	<path class="st16" d="M532,24V23h6V24H532z"/>
	<path id="Shape_3961_copy-6" class="st16" d="M532,26V25l4,0v0.9L532,26z"/>
	<rect x="545" y="20" class="st41" width="12" height="9"/>
	<path id="Rectangle_3959_copy-3" class="st41" d="M546,18h13v9"/>
	<path class="st41" d="M548,24V23h6V24H548z"/>
	<path id="Shape_3961_copy-7" class="st41" d="M548,26l0-0.9l4,0l0,0.9L548,26z"/>
	<rect x="561" y="20" class="st12" width="12" height="9"/>
	<path id="Rectangle_3959_copy-4" class="st12" d="M562,18h13v9"/>
	<path class="st12" d="M564,24v-1h6v1H564z"/>
	<path id="Shape_3961_copy-8" class="st12" d="M564,26v-1l4,0v1L564,26z"/>
	<rect x="577" y="19" class="st15" width="14" height="11"/>
	<path id="Shape_4027_copy" class="st15" d="M584,21h1v7h-1V21z"/>
	<path class="st15" d="M582,23v-1h5v1H582z"/>
	<path id="Shape_4028_copy_2" class="st15" d="M582,25v-1h5v1H582z"/>
	<path id="Shape_4028_copy" class="st15" d="M582,27v-1h5v1H582z"/>
	<path class="st15" d="M582,22h1v3h-1V22z"/>
	<path id="Shape_4030_copy" class="st15" d="M586,24h1v3h-1V24z"/>
	<rect x="593" y="19" class="st16" width="14" height="11"/>
	<path id="Shape_4027_copy-2" class="st16" d="M600,21h1v7h-1V21z"/>
	<path class="st16" d="M598,23v-1h5v1H598z"/>
	<path id="Shape_4028_copy_2-2" class="st16" d="M598,25v-1h5v1H598z"/>
	<path id="Shape_4028_copy-2" class="st16" d="M598,27v-1h5v1H598z"/>
	<path class="st16" d="M598,22h1v3h-1V22z"/>
	<path id="Shape_4030_copy-2" class="st16" d="M602,24h1v3h-1V24z"/>
	<rect x="609" y="19" class="st41" width="14" height="11"/>
	<path id="Shape_4027_copy-3" class="st41" d="M616,21h1v7h-1V21z"/>
	<path class="st41" d="M614,23v-1h5v1H614z"/>
	<path id="Shape_4028_copy_2-3" class="st41" d="M614,25v-1h5v1H614z"/>
	<path id="Shape_4028_copy-3" class="st41" d="M614,27v-1h5v1H614z"/>
	<path class="st41" d="M614,22h1v3h-1V22z"/>
	<path id="Shape_4030_copy-3" class="st41" d="M618,24h1v3h-1V24z"/>
	<rect x="625" y="19" class="st12" width="14" height="11"/>
	<path id="Shape_4027_copy-4" class="st12" d="M632,21h1v7h-1V21z"/>
	<path class="st12" d="M630,23v-1h5v1H630z"/>
	<path id="Shape_4028_copy_2-4" class="st12" d="M630,25v-1h5v1H630z"/>
	<path id="Shape_4028_copy-4" class="st12" d="M630,27v-1h5v1H630z"/>
	<path class="st12" d="M630,22h1v3h-1V22z"/>
	<path id="Shape_4030_copy-4" class="st12" d="M634,24h1v3h-1V24z"/>
	<image style="overflow:visible;" width="13" height="14" xlink:href="F836C1F4.png"  transform="matrix(1 0 0 1 194 17)">
	</image>
	<path id="Rounded_Rectangle_1757" class="st38" d="M241.5,20h9.1c0.2,0,0.4,0.2,0.4,0.4v0v0.1c0,0.2-0.2,0.4-0.4,0.4l0,0h-9.1
		c-0.2,0-0.4-0.2-0.4-0.4v0v-0.1C241,20.2,241.2,20,241.5,20L241.5,20z M245.4,24h3.2c0.2,0,0.4,0.2,0.4,0.4v0v0.1
		c0,0.2-0.2,0.4-0.4,0.4l0,0h-3.2c-0.2,0-0.4-0.2-0.4-0.4v-0.1C245,24.2,245.2,24,245.4,24L245.4,24z M246.4,28h8.1
		c0.2,0,0.4,0.2,0.4,0.4v0v0.1c0,0.2-0.2,0.4-0.4,0.4l0,0h-8.1c-0.2,0-0.4-0.2-0.4-0.4v-0.1C246,28.2,246.2,28,246.4,28L246.4,28
		L246.4,28z"/>
	<path id="Forma_1_copy_28" class="st38" d="M267.1,23.5c-0.2-0.2-0.4-0.2-0.6,0c-0.2,0.2-0.2,0.4,0,0.6l0,0l2.9,2.9h-9.1
		c-0.2,0-0.4,0.2-0.4,0.4v0c0,0.2,0.2,0.4,0.4,0.4h9.1l-2.9,2.9c-0.2,0.2-0.2,0.4,0,0.6c0.2,0.2,0.4,0.2,0.6,0c0,0,0,0,0,0l3.6-3.6
		c0.2-0.2,0.2-0.4,0-0.6L267.1,23.5z M260.7,17.5c0.2-0.2,0.4-0.1,0.6,0c0.1,0.2,0.1,0.4,0,0.6l-2.9,2.9h9.3c0.2,0,0.4,0.2,0.4,0.4
		c0,0,0,0,0,0c0,0.2-0.2,0.4-0.4,0.4h-9.3l2.9,2.9c0.2,0.2,0.2,0.4,0,0.6c-0.2,0.2-0.4,0.2-0.6,0c0,0,0,0,0,0l-3.6-3.6
		c-0.2-0.2-0.2-0.4,0-0.6L260.7,17.5z"/>
	<path id="_-e-Shape_2_copy-2" class="st1" d="M154.4,562l5,5l11-12"/>
</g>
<path id="_-e-Shape_2-2" class="st1" d="M30,247l4,4l7-8"/>
<image style="overflow:visible;" width="28" height="30" xlink:href="F836C1F5.jpg"  transform="matrix(0.9999 0 0 0.9999 66.0017 343.0019)">
</image>
</svg>
