<?xml version="1.0" encoding="utf-8"?>
<!-- Generator: Adobe Illustrator 22.1.0, SVG Export Plug-In . SVG Version: 6.00 Build 0)  -->
<svg version="1.1" id="Capa_1" xmlns="http://www.w3.org/2000/svg" xmlns:xlink="http://www.w3.org/1999/xlink" x="0px" y="0px"
	 viewBox="0 0 90 90" style="enable-background:new 0 0 90 90;" xml:space="preserve">
<style type="text/css">
	.st0{fill:#E9D9F9;}
	.st1{fill:#7A329F;}
	.st2{fill:none;stroke:#7A329F;stroke-width:4;stroke-linecap:round;stroke-miterlimit:10;}
</style>
<g>
	<path class="st0" d="M45.1,15.8H8.7c-3,0-5.5,2.5-5.5,5.5v62.3c0,3,2.5,5.5,5.5,5.5h49.8c3,0,5.5-2.5,5.5-5.5V32.5l-19,20
		l-22.8,5.4l3.1-24.3L45.1,15.8z"/>
	<path class="st1" d="M60.3,8.6l-29,29c-0.2,0.2-0.4,0.5-0.5,0.8l-2.5,9.6c-0.2,0.6,0,1.3,0.5,1.8c0.3,0.3,0.8,0.5,1.3,0.5
		c0.2,0,0.3,0,0.5-0.1l9.6-2.5c0.3-0.1,0.6-0.2,0.8-0.5l29-29c0,0,0,0,0,0c0,0,0,0,0,0l5.8-5.8c0.7-0.7,0.7-1.9,0-2.6l-7.1-7.1
		c-0.3-0.3-0.8-0.5-1.3-0.5c-0.5,0-1,0.2-1.3,0.5L60.3,8.6C60.3,8.6,60.3,8.6,60.3,8.6C60.3,8.6,60.3,8.6,60.3,8.6z M38.7,44.4
		L32.6,46l1.6-6.1l27.4-27.4l4.5,4.5L38.7,44.4z M67.4,6.7l4.5,4.5l-3.3,3.3l-4.5-4.5L67.4,6.7z"/>
	<path class="st2" d="M68.3,32v47.2c0,3-2.5,5.5-5.5,5.5H12.9c-3,0-5.5-2.5-5.5-5.5V16.8c0-3,2.5-5.5,5.5-5.5h34.4"/>
</g>
</svg>
