<?xml version="1.0" encoding="utf-8"?>
<!-- Generator: Adobe Illustrator 22.1.0, SVG Export Plug-In . SVG Version: 6.00 Build 0)  -->
<svg version="1.1" id="Layer_1" xmlns="http://www.w3.org/2000/svg" xmlns:xlink="http://www.w3.org/1999/xlink" x="0px" y="0px"
	 viewBox="0 0 84.3 69.5" style="enable-background:new 0 0 84.3 69.5;" xml:space="preserve">
<style type="text/css">
	.st0{fill:none;stroke:#676565;stroke-width:4;stroke-miterlimit:10;}
	.st1{fill:#676565;}
</style>
<title>Asset 5</title>
<g id="Layer_1-2">
	<path class="st0" d="M25.2,37.4C13.5,40.2,4.4,49.6,2.1,61.5c-0.6,2.7,1.2,5.3,3.9,5.9c0.3,0.1,0.7,0.1,1,0.1h51c2.8,0,5-2.2,5-5
		c0-0.3,0-0.7-0.1-1c-2.3-11.7-11.1-21-22.6-24"/>
	<path class="st0" d="M62,61.5h15.3c2.8,0,5-2.2,5-5c0-0.3,0-0.7-0.1-1c-2.3-11.7-11.1-21-22.6-24"/>
	<path class="st1" d="M32.6,7c7.3,0,13.2,6.8,13.2,15.1s-5.9,15.1-13.2,15.1s-13.2-6.8-13.2-15.1S25.3,7,32.6,7 M32.6,3
		c-9.5,0-17.2,8.5-17.2,19.1s7.7,19.1,17.2,19.1s17.2-8.5,17.2-19.1S42.1,3,32.6,3z"/>
	<path class="st0" d="M40.5,6.4c2.6-2.8,6.2-4.4,10-4.4c8.1,0,14.7,7.3,14.7,16.3s-6.6,16.3-14.7,16.3c-2.4,0-4.7-0.6-6.8-1.8"/>
</g>
</svg>
