<svg id="Layer_1" data-name="Layer 1" xmlns="http://www.w3.org/2000/svg" viewBox="0 0 90 90"><defs><style>.cls-1,.cls-2{fill:none;stroke:#000;stroke-miterlimit:10;stroke-width:2px;}.cls-2{stroke-linecap:round;}</style></defs><title>Icons_Navvis</title><path d="M45,4.15A17.06,17.06,0,1,1,27.94,21.21h0A17.08,17.08,0,0,1,45,4.15M45,2.5A18.71,18.71,0,1,0,63.71,21.21h0A18.71,18.71,0,0,0,45,2.5Z"/><path class="cls-1" d="M72.86,76.71a2.09,2.09,0,0,0,1.33-2C73.45,58.27,60.67,45.21,45,45.21S16.55,58.28,15.81,74.68a2.09,2.09,0,0,0,1.33,2l27.1,10.65a2.1,2.1,0,0,0,1.52,0Z"/><line class="cls-2" x1="44.65" y1="56.35" x2="44.65" y2="76.52"/><line class="cls-2" x1="34.56" y1="66.43" x2="54.74" y2="66.43"/></svg>