<?xml version="1.0" encoding="utf-8"?>
<!-- Generator: Adobe Illustrator 21.1.0, SVG Export Plug-In . SVG Version: 6.00 Build 0)  -->
<svg version="1.1" id="Layer_1" xmlns="http://www.w3.org/2000/svg" xmlns:xlink="http://www.w3.org/1999/xlink" x="0px" y="0px"
	 viewBox="0 0 1024 1024" style="enable-background:new 0 0 1024 1024;" xml:space="preserve">
<style type="text/css">
	.st0{fill:#E8D8EA;}
	.st1{fill:#793A96;}
</style>
<g>
	<g>
		<circle class="st0" cx="476.7" cy="465" r="434"/>
	</g>
	<g>
		<g>
			<path class="st1" d="M599,630.7c0-19.4-6.8-36-20.6-49.7c-13.7-13.7-36.4-26-68.2-36.8c-43.6-13.2-76.6-30.8-98.8-52.8
				s-33.4-51.4-33.4-88.1c0-35.6,10.3-64.7,30.8-87.1c20.5-22.5,48.7-36,84.5-40.5v-71.6h51.2V276c36.1,4.7,64.1,19.6,84.1,44.4
				s30,58.1,30,99.8h-63.5c0-27.4-6.8-49.7-20.4-66.7c-13.6-17.1-32.4-25.6-56.4-25.6c-25.5,0-44.6,6.6-57.3,19.9
				c-12.7,13.3-19.1,31.5-19.1,54.6c0,20.9,6.6,37.9,19.8,50.9c13.2,13,36.8,25.3,70.9,36.9c44.1,14.3,76.8,32,98.2,53.3
				c21.4,21.3,32.1,50.2,32.1,86.7c0,37.1-11.1,66.7-33.4,88.6c-22.2,21.9-52.8,34.9-91.7,39v62.2h-50.9V758
				c-37.1-3.9-67.6-17.4-91.4-40.7c-23.8-23.2-35.2-57.3-34.3-102.2l0.6-1.6h61.5c0,33.3,8.4,57,25.3,71.1
				c16.8,14.1,37.4,21.2,61.5,21.2c27.9,0,49.6-6.6,65.3-19.9C591.2,672.7,599,654.3,599,630.7z"/>
		</g>
	</g>
	<g>
		<path class="st1" d="M512,1012c-275.7,0-500-224.3-500-500c0-47.7,6.7-95,20-140.4c3.6-12.4,16.6-19.6,29.1-15.9
			c12.4,3.6,19.6,16.7,15.9,29.1c-12,41.2-18.1,84-18.1,127.3c0,249.8,203.2,453.1,453.1,453.1S965.1,761.8,965.1,512
			S761.8,58.9,512,58.9c-77.6,0-154.1,19.9-221.3,57.6c-11.3,6.4-25.6,2.3-31.9-9c-6.3-11.3-2.3-25.6,9-31.9
			C341.9,34,426.4,12,512,12c275.7,0,500,224.3,500,500S787.7,1012,512,1012z"/>
	</g>
	<g>
		<path class="st1" d="M98.6,297.2c-3.7,0-7.5-0.9-11-2.7c-11.4-6.1-15.8-20.3-9.7-31.7c21.7-41,47.6-74,86.6-110.4
			c9.4-8.9,24.3-8.4,33.2,1.1c8.8,9.5,8.4,24.3-1.1,33.2c-35.4,33.1-57.7,61.5-77.2,98.2C115.1,292.7,107,297.2,98.6,297.2z"/>
	</g>
</g>
</svg>
