<svg id="Layer_1" data-name="Layer 1" xmlns="http://www.w3.org/2000/svg" viewBox="0 0 90 90"><defs><style>.cls-1{fill:none;stroke:#000;stroke-linecap:round;stroke-miterlimit:10;stroke-width:4px;}</style></defs><title>Icons_Navvis</title><path class="cls-1" d="M68.48,66.68V79.39a8,8,0,0,1-8,8H10.61a8,8,0,0,1-8-8V6.62a4,4,0,0,1,4-4H64.49a4,4,0,0,1,4,4V9.68"/><line class="cls-1" x1="12.48" y1="17.09" x2="44.18" y2="17.09"/><line class="cls-1" x1="12.48" y1="30.71" x2="33.47" y2="30.71"/><line class="cls-1" x1="12.48" y1="43.71" x2="22.5" y2="43.71"/><path class="cls-1" d="M64,28.41l9.15-10.85a3.07,3.07,0,0,1,4.33-.37l9,7.61a3.09,3.09,0,0,1,.37,4.34L59.7,61.41"/><line class="cls-1" x1="45.97" y1="49.83" x2="64.75" y2="27.56"/><path class="cls-1" d="M59.44,61.52,44.78,66.15a.77.77,0,0,1-1-.81L45.9,50.11"/><line class="cls-1" x1="46.28" y1="49.47" x2="60.01" y2="61.04"/></svg>