<?xml version="1.0" encoding="utf-8"?>
<!-- Generator: Adobe Illustrator 21.1.0, SVG Export Plug-In . SVG Version: 6.00 Build 0)  -->
<svg version="1.1" id="Layer_1" xmlns="http://www.w3.org/2000/svg" xmlns:xlink="http://www.w3.org/1999/xlink" x="0px" y="0px"
	 viewBox="0 0 13.7 13.7" style="enable-background:new 0 0 13.7 13.7;" xml:space="preserve">
<style type="text/css">
	.st0{fill:#F5F6F6;}
	.st1{fill:#FFFFFF;}
	.st2{fill:url(#SVGID_1_);}
	.st3{fill:none;}
	.st4{fill:none;stroke:#361347;stroke-width:3;stroke-miterlimit:10;}
	.st5{fill:none;stroke:#00A89C;stroke-width:3;stroke-linecap:round;stroke-miterlimit:10;}
	.st6{fill:#361347;}
	.st7{fill:#E22727;}
	.st8{fill:#434343;}
	.st9{fill:#E42525;}
	.st10{fill:#FFFFFF;stroke:#793A95;stroke-width:0.5;stroke-miterlimit:10;}
	.st11{fill:#FFFFFF;stroke:#58595B;stroke-width:0.5;stroke-miterlimit:10;}
	.st12{fill:#793A95;}
	.st13{fill:none;stroke:#666667;stroke-width:0.25;stroke-miterlimit:10;}
	.st14{fill:url(#SVGID_2_);}
	.st15{fill:#444445;}
	.st16{fill:#FFFFFF;stroke:#7F7F7F;stroke-width:0.5;stroke-miterlimit:10;}
	.st17{fill:#FFFFFF;stroke:#793A95;stroke-miterlimit:10;}
	.st18{fill:#222222;stroke:#7F7F7F;stroke-width:0.5;stroke-miterlimit:10;}
	.st19{fill:#7F7F7F;}
	.st20{fill:#757575;}
	.st21{fill:url(#SVGID_3_);}
	.st22{fill:url(#SVGID_4_);}
	.st23{fill:#602C77;}
	.st24{fill:none;stroke:#DBDBDB;stroke-miterlimit:10;}
	.st25{fill:#FFFFFF;stroke:#622D7A;stroke-width:0.5;stroke-miterlimit:10;}
	.st26{fill:#622D7A;}
	.st27{fill:url(#SVGID_5_);}
	.st28{fill:none;stroke:#E4E4E4;stroke-miterlimit:10;}
	.st29{fill:#B086BB;}
	.st30{fill:none;stroke:#793A95;stroke-width:0.5;stroke-miterlimit:10;}
	.st31{fill:#B8B7B8;}
	.st32{fill:none;stroke:#58595B;stroke-width:0.5;stroke-miterlimit:10;}
	.st33{fill:#E3D02F;}
	.st34{fill:#DCDCDC;}
	.st35{fill:#BEBEBE;}
	.st36{fill:url(#SVGID_60_);}
	.st37{fill:url(#SVGID_79_);}
	.st38{fill:#F6F7F7;}
	.st39{fill:#F3EBF4;}
	.st40{fill:#FFFFFF;stroke:#444445;stroke-width:0.5;stroke-miterlimit:10;}
	.st41{fill:none;stroke:#A6A7AA;stroke-width:0.25;stroke-miterlimit:8;}
	.st42{fill:none;stroke:#793A95;stroke-width:0.5;stroke-miterlimit:8;}
	.st43{clip-path:url(#SVGID_107_);}
	.st44{clip-path:url(#SVGID_111_);}
	.st45{fill:#222222;}
	.st46{fill:#E9D9F9;}
	.st47{fill:#C6B3DD;}
	.st48{fill:#582970;}
	.st49{fill:none;stroke:#CDCDCD;stroke-miterlimit:10;}
	.st50{fill:none;stroke:#686868;stroke-miterlimit:10;}
	.st51{fill:#444444;}
	.st52{fill:#7A329F;}
	.st53{fill:none;stroke:#7A329F;stroke-width:2;stroke-linecap:round;stroke-miterlimit:10;}
	.st54{fill:none;stroke:#E2B0E2;stroke-miterlimit:10;}
	.st55{fill:url(#SVGID_114_);}
	.st56{clip-path:url(#SVGID_124_);}
	.st57{clip-path:url(#SVGID_128_);}
	.st58{fill:url(#SVGID_131_);}
	.st59{fill:url(#SVGID_150_);}
	.st60{clip-path:url(#SVGID_160_);}
	.st61{clip-path:url(#SVGID_164_);}
	.st62{fill:none;stroke:#BBBDBF;stroke-miterlimit:10;}
	.st63{fill:none;stroke:#7A329F;stroke-linecap:round;stroke-linejoin:round;stroke-miterlimit:10;}
	.st64{fill:none;stroke:#7A329F;stroke-width:2;stroke-linecap:round;stroke-linejoin:round;}
	.st65{fill:url(#SVGID_167_);}
	.st66{clip-path:url(#SVGID_177_);}
	.st67{clip-path:url(#SVGID_181_);}
	.st68{opacity:0.5;}
	.st69{fill:url(#SVGID_184_);}
	.st70{fill:#58595B;}
	.st71{fill:#F1F1F2;}
	.st72{fill:none;stroke:#793A95;stroke-miterlimit:10;}
	.st73{fill:#8BC53F;}
	.st74{opacity:0.45;}
	.st75{fill:url(#SVGID_189_);}
	.st76{fill:url(#SVGID_194_);}
	.st77{clip-path:url(#SVGID_204_);}
	.st78{clip-path:url(#SVGID_208_);}
	.st79{opacity:0.25;fill:#E9D9F9;}
	.st80{opacity:0.25;}
	.st81{fill:none;stroke:#7A329F;stroke-width:2;stroke-linecap:round;stroke-linejoin:round;stroke-miterlimit:10;}
	.st82{opacity:0.25;fill:none;stroke:#7A329F;stroke-width:2;stroke-linecap:round;stroke-miterlimit:10;}
	.st83{opacity:0.25;fill:none;stroke:#7A329F;stroke-width:2;stroke-linecap:round;stroke-linejoin:round;stroke-miterlimit:10;}
	.st84{fill:none;stroke:#7A329F;stroke-width:1.5;stroke-linecap:round;stroke-miterlimit:10;}
	.st85{opacity:0.25;fill:none;stroke:#7A329F;stroke-width:1.5;stroke-linecap:round;stroke-miterlimit:10;}
	.st86{fill:#231F20;}
</style>
<g>
	<path class="st86" d="M13.7,6.3c0,0.4,0,0.8,0,1.2c0,0.1,0,0.1,0,0.2c-0.4,2.8-2,4.8-4.7,5.7c-0.5,0.2-1,0.2-1.5,0.3
		c-0.4,0-0.8,0-1.2,0c-0.1,0-0.1,0-0.2,0c-2.8-0.3-5.1-2.3-5.8-5C0.1,8.3,0.1,7.9,0,7.4C0,7,0,6.7,0,6.3c0-0.1,0-0.1,0-0.2
		c0.3-2.9,2.4-5.2,5.2-5.9c0.3-0.1,0.7-0.1,1-0.2C6.7,0,7,0,7.4,0c0.1,0,0.1,0,0.2,0c2.8,0.4,4.8,2,5.7,4.7
		C13.5,5.2,13.6,5.7,13.7,6.3z M6.8,13.2c3.5,0,6.3-2.8,6.3-6.3c0-3.5-2.8-6.3-6.3-6.3c-3.5,0-6.3,2.8-6.3,6.3
		C0.5,10.3,3.4,13.2,6.8,13.2z"/>
	<path class="st86" d="M6.6,8.2c0-1.6,0-3.3,0-4.9c0.2,0,0.3,0,0.5,0c0,1.5,0,2.9,0,4.4c1.5,0,2.9,0,4.4,0c0,0.2,0,0.4,0,0.5
		C9.9,8.2,8.2,8.2,6.6,8.2z"/>
</g>
</svg>
