<svg id="Layer_1" data-name="Layer 1" xmlns="http://www.w3.org/2000/svg" viewBox="0 0 90 90"><defs><style>.cls-1{fill:#5661d0;}</style></defs><title>Verified</title><path class="cls-1" d="M45,87.5c-4.38,0-7.51-3.29-10-5.93a15.4,15.4,0,0,0-3.77-3.29,16.28,16.28,0,0,0-5.34-.41c-3.78,0-8,.14-11-2.83S12,67.82,12.11,64a15.76,15.76,0,0,0-.41-5.34,15.37,15.37,0,0,0-3.29-3.77C5.85,52.51,2.5,49.38,2.5,45s3.35-7.51,5.91-10a15.19,15.19,0,0,0,3.29-3.77,15.76,15.76,0,0,0,.41-5.34c0-3.76-.14-8,2.83-11S22.18,12,26,12a15.76,15.76,0,0,0,5.34-.41,15.19,15.19,0,0,0,3.77-3.29C37.49,5.85,40.62,2.5,45,2.5s7.51,3.35,10,5.93a15.4,15.4,0,0,0,3.77,3.29,15.76,15.76,0,0,0,5.34.41c3.78,0,8-.14,11,2.83S78.05,22.2,78,26a15.76,15.76,0,0,0,.41,5.34,15.37,15.37,0,0,0,3.29,3.77c2.47,2.42,5.82,5.55,5.82,9.93s-3.35,7.51-5.91,10a15.19,15.19,0,0,0-3.29,3.77,15.76,15.76,0,0,0-.41,5.34c0,3.76.14,8-2.83,11S67.82,78,64,78a15.76,15.76,0,0,0-5.34.41,15.37,15.37,0,0,0-3.77,3.29C52.51,84.15,49.38,87.5,45,87.5Zm-17.41-17a16.75,16.75,0,0,1,6.43,1,19.61,19.61,0,0,1,6.26,5c1.55,1.62,3.56,3.65,4.7,3.65s3.15-2,4.7-3.65a19.54,19.54,0,0,1,6.27-5,20.34,20.34,0,0,1,8.2-1c2.06,0,4.91,0,5.68-.68s.71-3.55.67-5.67a20.59,20.59,0,0,1,1-8.21,19.64,19.64,0,0,1,5-6.26c1.62-1.55,3.64-3.56,3.64-4.7s-2-3.15-3.64-4.7a19.64,19.64,0,0,1-5-6.26,20.59,20.59,0,0,1-1-8.21c0-2.06,0-4.91-.67-5.68s-3.56-.72-5.68-.67a20.54,20.54,0,0,1-8.2-1,19.54,19.54,0,0,1-6.27-5C48.13,11.9,46.12,9.87,45,9.87s-3.15,2-4.7,3.65a19.61,19.61,0,0,1-6.26,5,20.57,20.57,0,0,1-8.21,1c-2.06,0-4.91,0-5.67.67s-.71,3.56-.68,5.68a20.41,20.41,0,0,1-1,8.21,19.61,19.61,0,0,1-5,6.26c-1.62,1.55-3.65,3.56-3.65,4.7s2,3.15,3.65,4.7a19.61,19.61,0,0,1,5,6.26,20.24,20.24,0,0,1,1,8.21c0,2.06,0,4.91.68,5.67s3.56.72,5.67.68Z"/><path class="cls-1" d="M41.44,57.56a3.66,3.66,0,0,1-2.3-.8l-8.89-7.11a3.67,3.67,0,0,1,4.59-5.74L41.17,49,54.86,35.3a3.68,3.68,0,0,1,5.2,5.2l-16,16A3.66,3.66,0,0,1,41.44,57.56Z"/></svg>