<?xml version="1.0" encoding="utf-8"?>
<!-- Generator: Adobe Illustrator 21.1.0, SVG Export Plug-In . SVG Version: 6.00 Build 0)  -->
<svg version="1.1" id="Layer_1" xmlns="http://www.w3.org/2000/svg" xmlns:xlink="http://www.w3.org/1999/xlink" x="0px" y="0px"
	 viewBox="0 0 1024 1024" style="enable-background:new 0 0 1024 1024;" xml:space="preserve">
<style type="text/css">
	.st0{fill:#E8D8EA;}
	.st1{fill:#793A96;}
</style>
<g>
	<g>
		<circle class="st0" cx="476.7" cy="465" r="434"/>
	</g>
	<g>
		<polygon class="st1" points="766.9,553.5 488.5,553.5 488.5,146 535.5,146 535.5,506.5 766.9,506.5 		"/>
	</g>
	<g>
		<g>
			<path class="st1" d="M512,1012c-275.7,0-500-224.3-500-500c0-47.7,6.7-95,20-140.4c3.6-12.4,16.6-19.6,29.1-15.9
				c12.4,3.6,19.6,16.7,15.9,29.1c-12,41.2-18.1,84-18.1,127.3c0,249.8,203.2,453.1,453.1,453.1S965.1,761.8,965.1,512
				S761.8,58.9,512,58.9c-77.6,0-154.1,19.9-221.3,57.6c-11.3,6.4-25.6,2.3-31.9-9c-6.3-11.3-2.3-25.6,9-31.9
				C341.9,34,426.4,12,512,12c275.7,0,500,224.3,500,500S787.7,1012,512,1012z"/>
		</g>
		<g>
			<path class="st1" d="M98.6,297.2c-3.7,0-7.5-0.9-11-2.7c-11.4-6.1-15.8-20.3-9.7-31.7c21.7-41,47.6-74,86.6-110.4
				c9.4-8.8,24.3-8.4,33.2,1.1c8.8,9.5,8.4,24.3-1.1,33.2c-35.4,33.1-57.7,61.5-77.2,98.2C115.1,292.7,107,297.2,98.6,297.2z"/>
		</g>
	</g>
</g>
</svg>
