<svg id="Layer_1" data-name="Layer 1" xmlns="http://www.w3.org/2000/svg" viewBox="0 0 90 90"><defs><style>.cls-1,.cls-2{fill:none;stroke:#783295;stroke-linecap:round;stroke-width:4px;}.cls-1{stroke-miterlimit:10;}.cls-2{stroke-linejoin:round;}</style></defs><title>Icons_Navvis</title><line class="cls-1" x1="20.84" y1="18.92" x2="48.93" y2="18.92"/><line class="cls-1" x1="20.33" y1="33" x2="58.93" y2="33"/><line class="cls-1" x1="20.18" y1="47.08" x2="58.78" y2="47.08"/><line class="cls-1" x1="78.64" y1="18.92" x2="78.64" y2="59.86"/><path class="cls-1" d="M63.84,87.37H20.77a8,8,0,0,1-8-8V6.62a4,4,0,0,1,4-4H58.31"/><path class="cls-2" d="M58.31,2.63V15a3.93,3.93,0,0,0,3.92,3.92H78.64"/><line class="cls-1" x1="58.31" y1="2.63" x2="78.64" y2="18.92"/><path d="M36.74,77.57a1.53,1.53,0,0,1-.5,1.13,1.57,1.57,0,0,1-1.15.49,1.51,1.51,0,0,1-1.18-.6l-5.49-6.8-5.5,6.8a1.49,1.49,0,0,1-1.16.57,1.63,1.63,0,0,1-1.15-.47,1.51,1.51,0,0,1-.5-1.12,1.6,1.6,0,0,1,.4-1l5.89-7.18-5.64-6.89a1.44,1.44,0,0,1-.41-1,1.49,1.49,0,0,1,.49-1.12A1.54,1.54,0,0,1,22,59.86a1.52,1.52,0,0,1,1.19.59L28.42,67l5.27-6.51a1.44,1.44,0,0,1,1.16-.59,1.62,1.62,0,0,1,1.15.47,1.5,1.5,0,0,1,.5,1.12,1.44,1.44,0,0,1-.41,1l-5.64,6.89,5.86,7.18A1.59,1.59,0,0,1,36.74,77.57Z"/><path d="M41.49,78.59a1.57,1.57,0,0,1-.43-1.18V61.58a1.8,1.8,0,0,1,3-1.25,1.66,1.66,0,0,1,.47,1.25V76.16h7.59c1.08,0,1.62.48,1.62,1.43S53.21,79,52.13,79H42.71A1.66,1.66,0,0,1,41.49,78.59Z"/><path d="M60,78.72a8.74,8.74,0,0,1-3-1.5,1.54,1.54,0,0,1-.62-1.3,1.52,1.52,0,0,1,.34-1,1,1,0,0,1,.8-.42,2.17,2.17,0,0,1,1.1.37A8.16,8.16,0,0,0,61,76.11a10,10,0,0,0,2.81.38,5.55,5.55,0,0,0,3-.69,2.26,2.26,0,0,0,1.05-2,1.72,1.72,0,0,0-1-1.58,12.8,12.8,0,0,0-3.28-1.07A19.36,19.36,0,0,1,59.77,70a5.43,5.43,0,0,1-2.24-1.72,4.54,4.54,0,0,1-.75-2.68,5,5,0,0,1,.94-3,6.23,6.23,0,0,1,2.63-2.07A10.47,10.47,0,0,1,70.44,61.8a2.13,2.13,0,0,1,.5.58,1.73,1.73,0,0,1-.19,1.7,1,1,0,0,1-.8.42,1.59,1.59,0,0,1-.5-.08,4.68,4.68,0,0,1-.61-.3,9,9,0,0,0-2.14-1.2,7.35,7.35,0,0,0-2.55-.39,5.05,5.05,0,0,0-2.91.74,2.39,2.39,0,0,0-1.06,2.07,1.89,1.89,0,0,0,.94,1.7,11.23,11.23,0,0,0,3.21,1.1,22.4,22.4,0,0,1,3.91,1.21A5.77,5.77,0,0,1,70.53,71a4.08,4.08,0,0,1,.8,2.57,4.92,4.92,0,0,1-.93,3,6.07,6.07,0,0,1-2.62,2,9.84,9.84,0,0,1-3.88.72A14,14,0,0,1,60,78.72Z"/></svg>