<?xml version="1.0" encoding="utf-8"?>
<!-- Generator: Adobe Illustrator 22.1.0, SVG Export Plug-In . SVG Version: 6.00 Build 0)  -->
<svg version="1.1" id="Layer_1" xmlns="http://www.w3.org/2000/svg" xmlns:xlink="http://www.w3.org/1999/xlink" x="0px" y="0px"
	 viewBox="0 0 90 90" style="enable-background:new 0 0 90 90;" xml:space="preserve">
<style type="text/css">
	.st0{fill:#8C8C8C;}
	.st1{enable-background:new    ;}
</style>
<title>Icons_Navvis</title>
<g>
	<path class="st0" d="M46.2,61.3c-3.8,0-7.6-0.7-11.2-2.2c-7.6-3-13.5-8.8-16.8-16.2c-3.2-7.5-3.4-15.8-0.4-23.3
		c3-7.6,8.8-13.5,16.2-16.8c0.8-0.3,1.6-0.2,2.2,0.4c0.6,0.6,0.7,1.5,0.4,2.2c-4.4,10-2.2,21.5,5.6,29.3l0,0
		c7.7,7.7,19.2,9.9,29.3,5.6c0.8-0.3,1.6-0.2,2.2,0.4c0.6,0.6,0.7,1.5,0.4,2.2c-3.1,7.1-8.7,12.8-15.9,15.9
		C54.4,60.5,50.3,61.3,46.2,61.3z M31.3,8.9c-10.4,7-14.6,20.6-9.5,32.5c2.8,6.5,8,11.5,14.6,14.1c6.6,2.6,13.8,2.5,20.3-0.3
		c4.7-2,8.6-5.3,11.4-9.5c-10.2,2.5-21.1-0.4-28.7-8.1l0,0l0,0C31.8,29.9,28.8,19.1,31.3,8.9z"/>
</g>
<g class="st1">
	<path class="st0" d="M35.1,87.3H24V68h11.1v3.3h-7v4.2h6.5v3.3H28v5h7V87.3z"/>
	<path class="st0" d="M50.1,68h4.1l-6.6,19.3h-4.5L36.7,68h4.1l3.6,11.5c0.2,0.7,0.4,1.5,0.6,2.4c0.2,0.9,0.3,1.5,0.4,1.9
		c0.1-0.8,0.4-2.2,1-4.2L50.1,68z"/>
	<path class="st0" d="M67.7,87.3H56.6V68h11.1v3.3h-7v4.2h6.5v3.3h-6.5v5h7V87.3z"/>
</g>
</svg>
