<svg id="Capa_1" data-name="Capa 1" xmlns="http://www.w3.org/2000/svg" width="512" height="512" viewBox="0 0 512 512">
  <defs>
    <style>
      .cls-1 {
        fill: #e1e1e1;
      }
    </style>
  </defs>
  <title>Credit Card</title>
  <g>
    <path class="cls-1" d="M474.57,434.94H37.43a36.08,36.08,0,0,1-36-36V113.1a36.08,36.08,0,0,1,36-36H474.57a36.08,36.08,0,0,1,36,36V398.9A36.08,36.08,0,0,1,474.57,434.94ZM37.43,101.09a12,12,0,0,0-12,12V398.9a12,12,0,0,0,12,12H474.57a12,12,0,0,0,12-12V113.1a12,12,0,0,0-12-12Z"/>
    <rect class="cls-1" x="335.83" y="333.16" width="105.86" height="39.79"/>
    <rect class="cls-1" x="13.4" y="176.5" width="485.19" height="24.03"/>
  </g>
</svg>
