<?xml version="1.0" encoding="utf-8"?>
<!-- Generator: Adobe Illustrator 22.1.0, SVG Export Plug-In . SVG Version: 6.00 Build 0)  -->
<svg version="1.1" id="Capa_1" xmlns="http://www.w3.org/2000/svg" xmlns:xlink="http://www.w3.org/1999/xlink" x="0px" y="0px"
	 width="512px" height="512px" viewBox="0 0 512 512" style="enable-background:new 0 0 512 512;" xml:space="preserve">
<style type="text/css">
	.st0{fill:#E1E1E1;}
	.st1{fill:#E1E1E1;stroke:#E1E1E1;stroke-width:26;stroke-linecap:round;stroke-miterlimit:10;}
</style>
<g>
	<g>
		<path class="st0" d="M439.9,103.2L439.9,103.2h-86.8V66.1c0.5-16.9-12.7-31.1-29.7-31.6c-0.9,0-1.7,0-2.6,0H192.3
			c-16.9-0.9-31.3,12.1-32.2,29c0,0.9-0.1,1.7,0,2.6V103H73.3c-33.5,0-72.7,19.1-72.7,72.7v229.1c0,53.6,39.2,72.7,72.7,72.7h366.6
			c33.5,0,72.7-19.1,72.7-72.7V175.9C512.6,122.3,473.5,103.2,439.9,103.2z M181.1,66.1c0-3.1,0-11.3,11.3-11.3h128.4
			c11.3,0,11.3,8.1,11.3,11.3V103h-151V66.1z M491.5,404.8c0,46.6-36,51.6-51.6,51.6H73.3c-15.5,0-51.6-5.1-51.6-51.6V175.9
			c0-46.6,36-51.6,51.6-51.6h366.6c15.5,0,51.6,5.1,51.6,51.6L491.5,404.8L491.5,404.8z"/>
	</g>
</g>
<g>
	<g>
		<line class="st1" x1="183.6" y1="363" x2="329.5" y2="217.1"/>
	</g>
	<g>
		<line class="st1" x1="183.6" y1="217.1" x2="329.5" y2="363"/>
	</g>
</g>
</svg>
