<?xml version="1.0" encoding="utf-8"?>
<!-- Generator: Adobe Illustrator 22.1.0, SVG Export Plug-In . SVG Version: 6.00 Build 0)  -->
<svg version="1.1" id="Capa_1" xmlns="http://www.w3.org/2000/svg" xmlns:xlink="http://www.w3.org/1999/xlink" x="0px" y="0px"
	 width="512px" height="512px" viewBox="0 0 512 512" style="enable-background:new 0 0 512 512;" xml:space="preserve">
<style type="text/css">
	.st0{fill:#E1E1E1;}
</style>
<g>
	<g>
		<path class="st0" d="M439.3,103.2L439.3,103.2h-86.8V66.1c0.5-16.9-12.7-31.1-29.7-31.6c-0.9,0-1.7,0-2.6,0H191.7
			c-16.9-0.9-31.3,12.1-32.2,29c0,0.9-0.1,1.7,0,2.6V103H72.7C39.2,103,0,122.1,0,175.7v229.1c0,53.6,39.2,72.7,72.7,72.7h366.6
			c33.5,0,72.7-19.1,72.7-72.7V175.9C512,122.3,472.9,103.2,439.3,103.2z M180.6,66.1c0-3.1,0-11.3,11.3-11.3h128.4
			c11.3,0,11.3,8.1,11.3,11.3V103h-151V66.1z M490.9,404.8c0,46.6-36,51.6-51.6,51.6H72.7c-15.5,0-51.6-5.1-51.6-51.6V175.9
			c0-46.6,36-51.6,51.6-51.6h366.6c15.5,0,51.6,5.1,51.6,51.6L490.9,404.8L490.9,404.8z"/>
	</g>
</g>
<path class="st0" d="M256.1,402.5c61.8,0,112.1-50.3,112.1-112.1s-50.3-112.1-112.1-112.1S144,228.6,144,290.4
	S194.2,402.5,256.1,402.5z M256.1,198.7c50.6,0,91.7,41.1,91.7,91.7c0,50.6-41.1,91.7-91.7,91.7s-91.7-41.1-91.7-91.7
	C164.3,239.8,205.5,198.7,256.1,198.7z"/>
<path class="st0" d="M279.4,328.1c2,2,4.6,3,7.2,3s5.2-1,7.2-3c4-4,4-10.4,0-14.4l-27.6-27.6v-56.9c0-5.6-4.6-10.2-10.2-10.2
	s-10.2,4.6-10.2,10.2v61.1c0,2.7,1.1,5.3,3,7.2L279.4,328.1z"/>
</svg>
