<?xml version="1.0" encoding="utf-8"?>
<!-- Generator: Adobe Illustrator 22.1.0, SVG Export Plug-In . SVG Version: 6.00 Build 0)  -->
<svg version="1.1" id="Layer_1" xmlns="http://www.w3.org/2000/svg" xmlns:xlink="http://www.w3.org/1999/xlink" x="0px" y="0px"
	 viewBox="0 0 90 90" style="enable-background:new 0 0 90 90;" xml:space="preserve">
<style type="text/css">
	.st0{fill:none;stroke:#676565;stroke-width:4;stroke-miterlimit:10;}
	.st1{fill:none;stroke:#676565;stroke-width:4;stroke-linecap:round;stroke-miterlimit:10;}
	.st2{fill:#676565;}
</style>
<path class="st0" d="M28.5,48.4C16.8,51.2,7.7,60.6,5.3,72.5c-0.6,3.1,1.7,6,4.9,6h51c3.2,0,5.5-2.9,4.9-6
	c-2.3-11.7-11.2-21-22.6-24"/>
<line class="st1" x1="71.5" y1="20" x2="71.5" y2="43"/>
<line class="st1" x1="83" y1="31.5" x2="60" y2="31.5"/>
<g>
	<path class="st2" d="M35.8,18C43.1,18,49,24.8,49,33.1s-5.9,15.1-13.2,15.1s-13.2-6.8-13.2-15.1S28.6,18,35.8,18 M35.8,14
		c-9.5,0-17.2,8.5-17.2,19.1s7.7,19.1,17.2,19.1S53,43.6,53,33.1S45.3,14,35.8,14L35.8,14z"/>
</g>
</svg>
