<svg id="Layer_1" data-name="Layer 1" xmlns="http://www.w3.org/2000/svg" viewBox="0 0 90 90"><defs><style>.cls-1{fill:none;stroke:#fff;stroke-linecap:round;stroke-miterlimit:10;stroke-width:4px;}</style></defs><title>Icons_Navvis</title><path class="cls-1" d="M33.79,44.52a39.15,39.15,0,0,1-5.3-10.43,4.7,4.7,0,0,1,1.16-4.8l5-5a4.71,4.71,0,0,0,0-6.66L20.9,3.88a4.71,4.71,0,0,0-6.66,0L7.06,11.06h0C3.8,14.33.94,20.44,3.82,29.19c1.67,7.27,6.07,17,16.24,29"/><path class="cls-1" d="M25.64,64.28C31.1,69.77,51.4,88.81,69.57,87.43a13.88,13.88,0,0,0,8.71-4.09L86,75.63A4.71,4.71,0,0,0,86,69L71.72,54.7a4.71,4.71,0,0,0-6.66,0l-5,5a4.69,4.69,0,0,1-5.08,1,51.52,51.52,0,0,1-15.72-9.95"/><line class="cls-1" x1="39.27" y1="50.76" x2="76.8" y2="13.5"/><line class="cls-1" x1="25.64" y1="64.28" x2="39.27" y2="50.76"/><line class="cls-1" x1="8.13" y1="81.66" x2="25.64" y2="64.28"/></svg>