<svg id="Layer_1" data-name="Layer 1" xmlns="http://www.w3.org/2000/svg" viewBox="0 0 90 90">
    <defs>
        <style>.cls-1{fill:none;stroke:#fff;stroke-linecap:round;stroke-miterlimit:10;stroke-width:4px;}</style>
    </defs>
    <title>Icons_Navvis</title>
    <line class="cls-1" x1="12.77" y1="77.5" x2="81.44" y2="9.33"/>
    <path class="cls-1"
          d="M84.89,67l-24-12.45a2.21,2.21,0,0,1-1.81-2.18V36.52a2.21,2.21,0,0,1,1.81-2.17L84.89,23a2.22,2.22,0,0,1,2.61,2.18V64.83A2.21,2.21,0,0,1,84.89,67Z"/>
    <path class="cls-1" d="M58,22.37a1.93,1.93,0,0,0-.92-.23H6.5a4,4,0,0,0-4,4v9"/>
    <path class="cls-1" d="M22.48,67.86H57.12a2,2,0,0,0,2-2V31.5"/>
    <path class="cls-1" d="M2.5,35.29V63.86a4,4,0,0,0,4,4h5.71"/>
</svg>