<svg id="Layer_1" data-name="Layer 1" xmlns="http://www.w3.org/2000/svg" viewBox="0 0 90 90">
    <title>Icons_Navvis</title>
    <defs>
        <style>
            .cls-1,.cls-2{fill:#fff}
        </style>
    </defs>
    <path class="cls-1" d="M85.84,40.18a1.6,1.6,0,0,0,0-1.18,1.58,1.58,0,0,0-.34-.5L67,20a1.55,1.55,0,0,0-2.19,2.19L80.68,38.05H47.32a1.55,1.55,0,1,0,0,3.09H80.68L64.77,57A1.55,1.55,0,0,0,67,59.23L85.5,40.69A1.75,1.75,0,0,0,85.84,40.18Z"/>
    <path class="cls-2" d="M58.14,47.32a1.54,1.54,0,0,0-1.55,1.54V73.59H41.14V14.86a1.55,1.55,0,0,0-1.08-1.47L15.55,5.59h41V30.32a1.55,1.55,0,0,0,3.09,0V4.05A1.54,1.54,0,0,0,58.14,2.5H5.59a.7.7,0,0,0-.14,0l-.24.05a1.59,1.59,0,0,0-.4.16s-.09,0-.13.06a1.42,1.42,0,0,0-.13.12L4.47,3a1.92,1.92,0,0,0-.28.42s0,.06,0,.09a1.72,1.72,0,0,0-.1.55V75.14a1.41,1.41,0,0,0,.11.54.8.8,0,0,0,.08.16,2,2,0,0,0,.2.31l.14.14a2.23,2.23,0,0,0,.3.2l.17.08.08,0,34,10.82a1.43,1.43,0,0,0,.46.07,1.48,1.48,0,0,0,.91-.3A1.54,1.54,0,0,0,41.14,86V76.68h17a1.54,1.54,0,0,0,1.54-1.54V48.86A1.54,1.54,0,0,0,58.14,47.32ZM38.05,83.84,7.14,74V6.16L38.05,16Z"/>
</svg>