<svg id="Layer_1" data-name="Layer 1" xmlns="http://www.w3.org/2000/svg" viewBox="0 0 90 90">
    <defs>
        <style>.cls-1{fill:none;stroke:#fff;stroke-linecap:round;stroke-miterlimit:10;stroke-width:4px;}</style>
    </defs>
    <title>Icons_Navvis</title>
    <path class="cls-1" d="M22.86,55a22.27,22.27,0,0,1-2.49-10.22V41.24"/>
    <path class="cls-1" d="M69.63,41.24v3.51c0,12.87-11,23.34-24.63,23.34A25.3,25.3,0,0,1,28.31,61.9"/>
    <path class="cls-1" d="M59.81,30.64V42.46A14.86,14.86,0,0,1,45,57.27h0a14.74,14.74,0,0,1-9-3"/>
    <path class="cls-1"
          d="M30.91,47a14.47,14.47,0,0,1-.72-4.53V17.31A14.85,14.85,0,0,1,45,2.5h0A14.85,14.85,0,0,1,59.81,17.31v1"/>
    <line class="cls-1" x1="45" y1="69.44" x2="45" y2="87.15"/>
    <line class="cls-1" x1="31.84" y1="87.5" x2="58.16" y2="87.5"/>
    <line class="cls-1" x1="12.6" y1="77.5" x2="81.27" y2="9.33"/>
</svg>