<svg id="Layer_1" data-name="Layer 1" xmlns="http://www.w3.org/2000/svg" viewBox="0 0 90 90"><defs><style>.cls-1,.cls-2{fill:none;stroke:#000;stroke-miterlimit:10;stroke-width:4px;}.cls-1{stroke-linecap:round;}</style></defs><title>Icons_Navvis</title><path class="cls-1" d="M54.14,86.6l2.78,1.09a2,2,0,0,0,1.53,0l27.1-10.64a2.08,2.08,0,0,0,1.32-2c-.74-16.41-13.52-29.47-29.19-29.47-.77,0-1.53,0-2.28.1"/><path class="cls-1" d="M54.29,3.14a18.91,18.91,0,0,1,3.39-.3,18.71,18.71,0,0,1,0,37.42,19.16,19.16,0,0,1-2.52-.17"/><path class="cls-2" d="M60.49,76.65a2.08,2.08,0,0,0,1.31-2C61.07,58.45,48.44,45.55,33,45.55S4.88,58.45,4.16,74.64a2.07,2.07,0,0,0,1.3,2L32.22,87.16a2.07,2.07,0,0,0,1.51,0Z"/><circle class="cls-2" cx="32.98" cy="21.85" r="18.48"/></svg>