<svg id="Layer_1" data-name="Layer 1" xmlns="http://www.w3.org/2000/svg" viewBox="0 0 90 90">
    <defs>
        <style>.cls-1{fill:none;stroke:#dec60b;stroke-linecap:round;stroke-miterlimit:10;stroke-width:2px;}</style>
    </defs>
    <title>Icons_Navvis</title>
    <path class="cls-1"
          d="M47.11,6l8.78,27a1,1,0,0,0,1,.7H85.28a2.21,2.21,0,0,1,1.3,4l-23,16.72a1,1,0,0,0-.36,1.12l8.78,27a2.22,2.22,0,0,1-3.41,2.48l-23-16.72a1,1,0,0,0-1.18,0l-23,16.72A2.22,2.22,0,0,1,18,82.62l8.78-27a1,1,0,0,0-.36-1.12l-23-16.72a2.21,2.21,0,0,1,1.3-4H33.15a1,1,0,0,0,1-.7L42.89,6A2.22,2.22,0,0,1,47.11,6Z"/>
</svg>