<svg id="Layer_1" data-name="Layer 1" xmlns="http://www.w3.org/2000/svg" viewBox="0 0 90 90"><defs><style>.cls-1{fill:none;stroke:#fff;stroke-linecap:round;stroke-miterlimit:10;stroke-width:4px;}</style></defs><title>Icons_Navvis</title><path class="cls-1" d="M21.84,3.67H56.4a2,2,0,0,1,1.93,2V81.83a2,2,0,0,1-1.93,2H7.94a2,2,0,0,1-1.94-2V20.08"/><path class="cls-1" d="M22.82,18.91V4.74A1,1,0,0,0,21.05,4L6.28,19.09A1,1,0,0,0,7,20.77H21a1.83,1.83,0,0,0,1.8-1.86h0"/><path class="cls-1" d="M75.83,82.85,69.27,72A2,2,0,0,1,69,71V7.76a4.09,4.09,0,0,1,4.09-4.09h9a4.09,4.09,0,0,1,4.1,4.09V71A2,2,0,0,1,85.9,72L79.33,82.85A2,2,0,0,1,75.83,82.85Z"/><line class="cls-1" x1="69.27" y1="70.04" x2="85.9" y2="70.04"/></svg>