<svg id="Layer_1" data-name="Layer 1" xmlns="http://www.w3.org/2000/svg" viewBox="0 0 90 90"><defs><style>.cls-1{fill:#e9d9f9;}.cls-2{fill:none;stroke:#7a329f;stroke-linecap:round;stroke-miterlimit:10;stroke-width:4px;}</style></defs><title>Icons_Navvis</title><path class="cls-1" d="M81.24,67,60.68,54.55a2.14,2.14,0,0,1-1.56-2.18V36.52a2.13,2.13,0,0,1,1.56-2.17L81.24,23a2,2,0,0,1,2.24,2.18V64.83A2,2,0,0,1,81.24,67Z"/><path class="cls-1" d="M2.5,38.16V64.21a3.67,3.67,0,0,0,3.7,3.65H53A1.84,1.84,0,0,0,54.88,66V28A1.84,1.84,0,0,0,53,26.17H6.2a3.67,3.67,0,0,0-3.7,3.64v8.35Z"/><path class="cls-2" d="M84.89,67l-24-12.45a2.21,2.21,0,0,1-1.81-2.18V36.52a2.2,2.2,0,0,1,1.81-2.17L84.89,23a2.22,2.22,0,0,1,2.61,2.18V64.83A2.21,2.21,0,0,1,84.89,67Z"/><path class="cls-2" d="M9.67,22.14H6.5a4,4,0,0,0-4,4v1"/><path class="cls-2" d="M2.5,35.29V63.86a4,4,0,0,0,4,4H57.12a2,2,0,0,0,2-2V24.14a2,2,0,0,0-2-2H17.42"/></svg>